SplineFontDB: 3.0
FontName: Jost-SemiItalic
FullName: Jost* 600 Semi Italic
FamilyName: Jost* Semi
Weight: Semi
Copyright: This typeface is licensed under the SIL open font license.
UComments: "2018-6-8: Created with FontForge (http://fontforge.org)"
Version: 003.300
ItalicAngle: -10
UnderlinePosition: -100
UnderlineWidth: 50
Ascent: 800
Descent: 200
InvalidEm: 0
LayerCount: 2
Layer: 0 0 "Back" 1
Layer: 1 0 "Fore" 0
XUID: [1021 69 1495626776 760146]
FSType: 0
OS2Version: 0
OS2_WeightWidthSlopeOnly: 0
OS2_UseTypoMetrics: 0
CreationTime: 1528480336
ModificationTime: 1536029840
PfmFamily: 17
TTFWeight: 600
TTFWidth: 5
LineGap: 100
VLineGap: 0
OS2TypoAscent: 825
OS2TypoAOffset: 0
OS2TypoDescent: -225
OS2TypoDOffset: 0
OS2TypoLinegap: 100
OS2WinAscent: 900
OS2WinAOffset: 0
OS2WinDescent: 300
OS2WinDOffset: 0
HheadAscent: 1030
HheadAOffset: 0
HheadDescent: -350
HheadDOffset: 0
OS2CapHeight: 700
OS2XHeight: 460
OS2Vendor: 'PfEd'
Lookup: 1 0 0 "alt a" { "alt a"  } ['ss01' ('DFLT' <'dflt' > 'latn' <'dflt' > ) ]
Lookup: 1 0 0 "Tabular Numbers lookup" { "Tabular Numbers lookup"  } ['tnum' ('DFLT' <'dflt' > 'grek' <'dflt' > 'latn' <'dflt' > ) ]
Lookup: 258 0 0 "Lets get our kern on" { "kernin like nobodys business" [150,0,4] } ['kern' ('DFLT' <'dflt' > 'latn' <'dflt' > ) ]
MarkAttachClasses: 1
DEI: 91125
KernClass2: 16 14 "kernin like nobodys business"
 15 slash seven V W
 175 quotedbl quotesingle asterisk grave dieresis ordfeminine macron degree acute ordmasculine circumflex breve dotaccent ring tilde quoteleft quoteright quotedblleft quotedblright
 17 nine question F P
 107 A L backslash Agrave Aacute Acircumflex Atilde Adieresis Aring Amacron Abreve Aogonek Lacute uni013B Lslash
 26 three eight B C germandbls
 5 K X Z
 125 at D G O Ograve Oacute Ocircumflex Otilde Odieresis Oslash Dcaron Dcroat Gcircumflex Gbreve Gdotaccent uni0122 Omacron Obreve

StartChar: H
Encoding: 72 72 0
Width: 742
VWidth: 0
Flags: HMW
LayerCount: 2
Fore
SplineSet
143 306.5 m 1
 165.5 438 l 1
 668.5 438 l 1
 645.5 306.5 l 1
 143 306.5 l 1
620.5 699.5 m 1
 765 700 l 1
 644 0 l 1
 502 0 l 1
 620.5 699.5 l 1
164.5 699.5 m 1
 308.5 700 l 1
 188 0 l 1
 46 0 l 1
 164.5 699.5 l 1
EndSplineSet
EndChar

StartChar: O
Encoding: 79 79 1
Width: 787
VWidth: 0
Flags: HMW
LayerCount: 2
Fore
SplineSet
217 350 m 0
 198.5 232.5 255.5 122.5 383.5 121.5 c 0
 513 120.5 615 225.5 636.5 350 c 0
 655 467.5 599.5 577.5 470 578.5 c 0
 340.5 579.5 238 474.5 217 350 c 0
66 350 m 0
 97 554 273.5 715 484.5 714.5 c 0
 692.5 714 816 546.5 787.5 350 c 0
 756.5 145.5 582 -19 368 -18.5 c 0
 157.5 -18 37.5 153.5 66 350 c 0
EndSplineSet
EndChar

StartChar: I
Encoding: 73 73 2
Width: 289
VWidth: 0
Flags: HMW
LayerCount: 2
Fore
SplineSet
164.5 700 m 1
 310.5 700 l 1
 190 0 l 1
 46 0 l 1
 164.5 700 l 1
EndSplineSet
EndChar

StartChar: C
Encoding: 67 67 3
Width: 674
VWidth: 0
Flags: HMW
LayerCount: 2
Fore
SplineSet
221 350 m 0
 202 228.5 272 127 394.5 125.5 c 0
 488.5 124.5 563 169 621.5 220 c 1
 597 57.5 l 1
 533.5 13 465.5 -15 373 -14.5 c 0
 163 -14 36.5 150.5 66 350 c 0
 97.5 557.5 274 714 488.5 714.5 c 0
 577 715 638 689 694 641.5 c 1
 669 479 l 1
 627 536.5 565.5 574.5 479.5 574.5 c 0
 355 574 243 478 221 350 c 0
EndSplineSet
EndChar

StartChar: E
Encoding: 69 69 4
Width: 570
VWidth: 0
Flags: HMW
LayerCount: 2
Fore
SplineSet
136 0 m 1
 157.5 122.5 l 1
 503 122.5 l 1
 481.5 0 l 1
 136 0 l 1
235 577.5 m 1
 256 700 l 1
 601 700 l 1
 580 577.5 l 1
 235 577.5 l 1
189 311.5 m 1
 210 431 l 1
 536 431 l 1
 515 311.5 l 1
 189 311.5 l 1
164.5 700 m 1
 304.5 700 l 1
 184 0 l 1
 46 0 l 1
 164.5 700 l 1
EndSplineSet
EndChar

StartChar: F
Encoding: 70 70 6
Width: 521
VWidth: 0
Flags: HMW
LayerCount: 2
Fore
SplineSet
234 573 m 1
 256 700 l 1
 562.5 700 l 1
 540.5 573 l 1
 234 573 l 1
187 297.5 m 1
 208 418 l 1
 504.5 418 l 1
 483.5 297.5 l 1
 187 297.5 l 1
164.5 700 m 1
 304.5 700 l 1
 184 0 l 1
 46 0 l 1
 164.5 700 l 1
EndSplineSet
EndChar

StartChar: G
Encoding: 71 71 7
Width: 778
VWidth: 0
Flags: HMW
LayerCount: 2
Fore
SplineSet
419 259.5 m 1
 440 374 l 1
 776 374 l 1
 749 166.5 608.5 -18.5 375 -18.5 c 0
 162.5 -18.5 36.5 149.5 66 350 c 0
 98 559 276.5 714 493 714.5 c 0
 622 715 715.5 653 771 552.5 c 1
 640 482 l 1
 611 544 559.5 584.5 479.5 584 c 0
 349 583.5 238 483 215.5 350 c 0
 196 224 258.5 111.5 390 111 c 0
 500.3695 110.5 566.4975 175.384 607.735 259.5 c 1
 419 259.5 l 1
EndSplineSet
EndChar

StartChar: T
Encoding: 84 84 8
Width: 517
VWidth: 0
Flags: HMW
LayerCount: 2
Fore
SplineSet
73.5 569 m 1
 97 700 l 1
 606.5 700 l 1
 583.5 569 l 1
 400.5 569 l 1
 303 0 l 1
 160 0 l 1
 257 569 l 1
 73.5 569 l 1
EndSplineSet
EndChar

StartChar: L
Encoding: 76 76 9
Width: 490
VWidth: 0
Flags: HMW
LayerCount: 2
Fore
SplineSet
165 700 m 1
 308.5 700 l 1
 210.5 127 l 1
 481.5 127 l 1
 459 0 l 1
 45 0 l 1
 165 700 l 1
EndSplineSet
EndChar

StartChar: D
Encoding: 68 68 10
Width: 696
VWidth: 0
Flags: HMW
LayerCount: 2
Fore
SplineSet
164.5 699.5 m 1
 312 700 l 1
 191.5 0 l 1
 46 0 l 1
 164.5 699.5 l 1
282.5 0 m 2
 135.5 0 l 1
 158.5 131.5 l 1
 292.5 131.5 l 2
 420.5 131.5 525.5 211 548.5 350 c 0
 569.5 483 499.5 569 374.5 569 c 2
 232 569 l 1
 255.5 700 l 1
 393 700 l 2
 604 700 726 550.5 696 350 c 0
 664.5 143 498.5 0 282.5 0 c 2
EndSplineSet
EndChar

StartChar: Q
Encoding: 81 81 11
Width: 817
VWidth: 0
Flags: HMW
LayerCount: 2
Fore
SplineSet
217 350 m 0
 197.5 226.5 263 114 393 113 c 0
 522 112 625.5 211.5 647 336 c 0
 666.5 455.5 609 577.5 472 578.5 c 0
 342.5 579.5 238.5 475 217 350 c 0
66 350 m 0
 97 554 275.5 715 486.5 714.5 c 0
 694.5 714 816 546 787.5 350 c 0
 756.5 146 584.5 -19 370.5 -18.5 c 0
 160 -18 37.5 153.5 66 350 c 0
378.5 300 m 1
 526 300 l 1
 791 -8.5 l 1
 639 -8.5 l 1
 378.5 300 l 1
EndSplineSet
EndChar

StartChar: A
Encoding: 65 65 12
Width: 691
VWidth: 0
Flags: HMW
LayerCount: 2
Fore
SplineSet
167 156.5 m 1
 202.5 271 l 1
 532.5 271 l 1
 528 156.5 l 1
 167 156.5 l 1
400 470.5 m 1
 259.5 230 l 1
 257.5 197.5 l 1
 135 0 l 1
 -30.5 0 l 1
 445 744 l 1
 664 0 l 1
 506 0 l 1
 454 191.5 l 1
 460 228.5 l 1
 400 470.5 l 1
EndSplineSet
EndChar

StartChar: R
Encoding: 82 82 13
Width: 603
VWidth: 0
Flags: HMW
LayerCount: 2
Fore
SplineSet
258 325.5 m 1
 405 325.5 l 1
 570 0 l 1
 406.5 0 l 1
 258 325.5 l 1
164.5 700 m 1
 308.5 700 l 1
 188 0 l 1
 46 0 l 1
 164.5 700 l 1
230 575.5 m 1
 251.5 700 l 1
 391.5 700 l 2
 539 700 632 610.5 613.5 476 c 0
 594.5 339 475.5 253.5 323.5 253.5 c 2
 174 253.5 l 1
 195 368.5 l 1
 326.5 368.5 l 2
 396 368.5 453.5 407 465.5 472 c 0
 476.5 534.5 435.5 575.5 369 575.5 c 2
 230 575.5 l 1
EndSplineSet
EndChar

StartChar: V
Encoding: 86 86 14
Width: 691
VWidth: 0
Flags: HMW
LayerCount: 2
Fore
SplineSet
365.5 249.5 m 1
 616.5 699.5 l 1
 785.5 699.5 l 1
 323.5 -44 l 1
 91.5 700 l 1
 254 700 l 1
 365.5 249.5 l 1
EndSplineSet
EndChar

StartChar: M
Encoding: 77 77 15
Width: 841
VWidth: 0
Flags: HMW
LayerCount: 2
Fore
SplineSet
266.385 386.7175 m 1
 156 0 l 1
 5.5 0 l 1
 233.5 735.5 l 1
 441 287 l 1
 806 739.5 l 1
 781.5 0 l 1
 631.5 0 l 1
 654.663 380.8025 l 1
 407 64 l 1
 266.385 386.7175 l 1
EndSplineSet
EndChar

StartChar: W
Encoding: 87 87 16
Width: 1012
VWidth: 0
Flags: HMW
LayerCount: 2
Fore
SplineSet
722.246 256.8865 m 1
 930.5 699.5 l 1
 1100.5 699.5 l 1
 698.5 -41.5 l 1
 555 415 l 1
 268.5 -42 l 1
 96.5 700 l 1
 262 700 l 1
 333.0365 259.058 l 1
 602 737.5 l 1
 722.246 256.8865 l 1
EndSplineSet
EndChar

StartChar: N
Encoding: 78 78 17
Width: 764
VWidth: 0
Flags: HMW
LayerCount: 2
Fore
SplineSet
647 700 m 1
 785.5 700 l 1
 660 -33.5 l 1
 258 426.272 l 1
 184 0 l 1
 44.5 0 l 1
 170.5 733.5 l 1
 572.5 273.2665 l 1
 647 700 l 1
EndSplineSet
EndChar

StartChar: a
Encoding: 97 97 18
Width: 585
VWidth: 0
Flags: HMW
LayerCount: 2
Fore
SplineSet
451.5 459.5 m 1
 580 460 l 1
 500 0 l 1
 373.5 0 l 1
 451.5 459.5 l 1
42.5 230 m 0
 61 366.5 171 470.5 295.5 470 c 0
 419 469.5 467 354.5 451 230 c 0
 433 98.5 344.5 -9 222 -9.5 c 0
 97.5 -10 25.5 99 42.5 230 c 0
177 230 m 0
 166.5 161.5 202 99.5 271 99 c 0
 335 98.5 398.5 157 410 230 c 0
 419.5 298.5 385 359 322.5 361 c 0
 252.5 363 189 302.5 177 230 c 0
EndSplineSet
Substitution2: "alt a" a.alt
EndChar

StartChar: X
Encoding: 88 88 19
Width: 628
VWidth: 0
Flags: HMW
LayerCount: 2
Fore
SplineSet
525 699.5 m 1
 703.5 699.5 l 1
 438 358.5 l 1
 605.5 0 l 1
 435 0 l 1
 340 247 l 1
 163.5 0 l 1
 -15 0 l 1
 274 364.5 l 1
 121 700 l 1
 292.5 700 l 1
 373 483.5 l 1
 525 699.5 l 1
EndSplineSet
EndChar

StartChar: K
Encoding: 75 75 20
Width: 641
VWidth: 0
Flags: HMW
LayerCount: 2
Fore
SplineSet
164.5 700 m 1
 312.5 700 l 1
 192 0 l 1
 46 0 l 1
 164.5 700 l 1
548.5 699.5 m 1
 723 699.5 l 1
 381.5 369 l 1
 612 0 l 1
 445 0 l 1
 213 371.5 l 1
 548.5 699.5 l 1
EndSplineSet
EndChar

StartChar: Y
Encoding: 89 89 21
Width: 612
VWidth: 0
Flags: HMW
LayerCount: 2
Fore
SplineSet
540.5 699.5 m 1
 708.5 699.5 l 1
 400.5 285.876 l 1
 352 0 l 1
 206.5 0 l 1
 258 293.376 l 1
 93.5 700 l 1
 254 700 l 1
 349.5 421.5 l 1
 540.5 699.5 l 1
EndSplineSet
EndChar

StartChar: B
Encoding: 66 66 22
Width: 614
VWidth: 0
Flags: HMW
LayerCount: 2
Fore
SplineSet
210.5 354.5 m 1
 222 420 l 1
 330 420.5 l 2
 387 421 435.5 451.5 445 504 c 0
 453.5 554.5 419 584 365 584.5 c 2
 289 584.5 l 1
 207.5 115 l 1
 292 115.5 l 2
 360.5 116 424 148.5 435.5 217.5 c 0
 446 282.5 397.5 314.5 333 315 c 2
 203.5 315.5 l 1
 217.5 394 l 1
 352 394.5 l 2
 477 393.5 597.5 334 578.5 199 c 0
 558.5 61.5 437 0 293 0 c 2
 45 0 l 1
 165 700 l 1
 389.5 700 l 2
 510.5 700 613.5 642.5 595 522.5 c 0
 577.5 410 464 355.5 339 354.5 c 2
 210.5 354.5 l 1
EndSplineSet
EndChar

StartChar: Z
Encoding: 90 90 23
Width: 580
VWidth: 0
Flags: HMW
LayerCount: 2
Fore
SplineSet
117 569 m 1
 140.5 700 l 1
 661.5 699.5 l 1
 231.5 127.5 l 1
 531.5 127 l 1
 509 0 l 1
 -20.5 0 l 1
 406.5 568.5 l 1
 117 569 l 1
EndSplineSet
EndChar

StartChar: o
Encoding: 111 111 24
Width: 559
VWidth: 0
Flags: HMW
LayerCount: 2
Fore
SplineSet
49 230 m 0
 67.5 369 188 470 331 470 c 0
 471.5 470 565.5 365.5 548 230 c 0
 529.5 91 408.5 -9.5 265.5 -9.5 c 0
 125.5 -9.5 31.5 94.5 49 230 c 0
181 230 m 0
 171.5 163 206.5 102 275 101 c 0
 344.5 100 404.5 159.5 415.5 230 c 0
 425 297 389.5 358 321 359 c 0
 251.5 360 192 300.5 181 230 c 0
EndSplineSet
EndChar

StartChar: J
Encoding: 74 74 25
Width: 295
VWidth: 0
Flags: HMW
LayerCount: 2
Fore
SplineSet
-111.5 -71.5 m 1
 -94 -90.5 -69.5 -106.5 -40 -105.5 c 0
 -2.5 -104 33.5 -72 40.5 -21.5 c 2
 165 700 l 1
 316.5 700 l 1
 188 -56 l 2
 168.5 -173 72.5 -234 -43.5 -233.5 c 0
 -107.5 -233 -164.5 -206 -203 -177 c 1
 -111.5 -71.5 l 1
EndSplineSet
EndChar

StartChar: t
Encoding: 116 116 26
Width: 286
VWidth: 0
Flags: HMW
LayerCount: 2
Fore
SplineSet
56.5 460 m 1
 336 460 l 1
 316 349.5 l 1
 36 349.5 l 1
 56.5 460 l 1
159 619.5 m 1
 285.5 620 l 1
 178.5 0 l 1
 54 0 l 1
 159 619.5 l 1
EndSplineSet
EndChar

StartChar: d
Encoding: 100 100 27
Width: 584
VWidth: 0
Flags: HMW
LayerCount: 2
Fore
SplineSet
504 779.5 m 1
 634.5 780 l 1
 500 0 l 1
 371.5 0 l 1
 504 779.5 l 1
42.5 230 m 0
 61 367 171 470.5 295.5 470 c 0
 419 469.5 467 354.5 451 230 c 0
 433 98.5 344.5 -9 222 -9.5 c 0
 97.5 -10 25.5 98.5 42.5 230 c 0
176.5 230 m 0
 166 161.5 201 99.5 270.5 99 c 0
 334 98.5 399 157 410.5 230 c 0
 420 298.5 384 359 322 361 c 0
 251.5 363 188.5 302.5 176.5 230 c 0
EndSplineSet
EndChar

StartChar: l
Encoding: 108 108 28
Width: 250
VWidth: 0
Flags: HMW
LayerCount: 2
Fore
SplineSet
166.5 779.5 m 1
 297.5 780 l 1
 163 0 l 1
 34 0 l 1
 166.5 779.5 l 1
EndSplineSet
EndChar

StartChar: i
Encoding: 105 105 29
Width: 263
VWidth: 0
Flags: HMW
LayerCount: 2
Fore
SplineSet
135.5 637.5 m 0
 135.5 680 169.5 711.5 213.5 711.5 c 0
 257.5 711.5 292 680 292 637.5 c 0
 292 595 257.5 563.5 213.5 563.5 c 0
 169.5 563.5 135.5 595 135.5 637.5 c 0
119.5 459.5 m 1
 246.5 459.5 l 1
 167.5 0 l 1
 41.5 0 l 1
 119.5 459.5 l 1
EndSplineSet
EndChar

StartChar: r
Encoding: 114 114 30
Width: 381
VWidth: 0
Flags: HMW
LayerCount: 2
Fore
SplineSet
240 460 m 1
 160.5 0 l 1
 33 0 l 1
 112.5 460 l 1
 240 460 l 1
351.5 323.5 m 1
 335.5 337.5 321 348 298 348.5 c 0
 245 349.5 211 297 202 242.5 c 1
 176 281 l 1
 192.5 375 266.5 469.5 346.5 470 c 0
 379.5 470.5 406 455.5 426 432.5 c 1
 351.5 323.5 l 1
EndSplineSet
EndChar

StartChar: c
Encoding: 99 99 31
Width: 473
VWidth: 0
Flags: HMW
LayerCount: 2
Fore
SplineSet
178.5 230 m 0
 168 158.5 209.5 99.5 282.5 98 c 0
 343 97 399 129.5 434.5 169.5 c 1
 417 36.5 l 1
 377.5 8 327 -9.5 265 -9.5 c 0
 123.5 -9 28.5 93.5 46.5 230 c 0
 65 370 186.5 469 331 469.5 c 0
 390.5 469.5 438.5 452 474.5 424 c 1
 456 290 l 1
 432 334 384.5 363 330.5 362.5 c 0
 254 362 190 303 178.5 230 c 0
EndSplineSet
EndChar

StartChar: b
Encoding: 98 98 32
Width: 584
VWidth: 0
Flags: HMW
LayerCount: 2
Fore
SplineSet
294.5 780 m 1
 160.5 0 l 1
 31 0 l 1
 164.5 780 l 1
 294.5 780 l 1
567 230 m 0
 548.5 93 439 -10.5 314.5 -10 c 0
 191 -9.5 143 105.5 159 230 c 0
 177 361.5 265 469 387.5 469.5 c 0
 512 470 584 361.5 567 230 c 0
433 230 m 0
 443.5 298.5 408.5 360.5 339 361 c 0
 275.5 361.5 211.5 303 200 230 c 0
 190.5 161.5 225.5 101 287.5 99 c 0
 358 97 421 157.5 433 230 c 0
EndSplineSet
EndChar

StartChar: p
Encoding: 112 112 33
Width: 584
VWidth: 0
Flags: HMW
LayerCount: 2
Fore
SplineSet
123.5 -219.5 m 1
 -7 -220 l 1
 110.5 460 l 1
 239 459.5 l 1
 123.5 -219.5 l 1
567 230 m 0
 548 90.5 439 -15.5 313.5 -14.5 c 0
 186 -13.5 147.5 106 163.5 230 c 0
 181.5 361.5 262.5 473.5 388.5 474 c 0
 514 474.5 584 363.5 567 230 c 0
433 230.5 m 0
 443.5 300 407 355.5 338.5 356.5 c 0
 275.5 357.5 211 302 200 229.5 c 0
 190.5 160.5 227 105.5 288.5 103.5 c 0
 358.5 101.5 421.5 158 433 230.5 c 0
EndSplineSet
EndChar

StartChar: q
Encoding: 113 113 34
Width: 584
VWidth: 0
Flags: HMW
LayerCount: 2
Fore
SplineSet
333 -220 m 1
 449.5 460 l 1
 579.5 460 l 1
 462.5 -220 l 1
 333 -220 l 1
42.5 230 m 0
 61.5 369.5 170.5 475.5 296 474.5 c 0
 423.5 473.5 463 354 447 230 c 0
 429 98.5 347.5 -13.5 221.5 -14 c 0
 96 -14.5 25.5 96.5 42.5 230 c 0
176.5 229.5 m 0
 166 160 202.5 104.5 271 103.5 c 0
 334 102.5 399.5 158 410.5 230.5 c 0
 420 299.5 382.5 354.5 321 356.5 c 0
 251 358.5 188 302 176.5 229.5 c 0
EndSplineSet
EndChar

StartChar: h
Encoding: 104 104 35
Width: 539
VWidth: 0
Flags: HMW
LayerCount: 2
Fore
SplineSet
297.5 780 m 1
 163.5 0 l 1
 33.5 0 l 1
 167 780 l 1
 297.5 780 l 1
372 280 m 2
 378 328 370 370 317.5 372.5 c 0
 263 375 224 329.5 211.5 280.5 c 1
 184.5 281 l 1
 203 382 265 474 374.5 474.5 c 0
 482 475 516 398.5 502.5 298.5 c 1
 451.5 0 l 1
 323 0 l 1
 372 280 l 2
EndSplineSet
EndChar

StartChar: n
Encoding: 110 110 36
Width: 543
VWidth: 0
Flags: HMW
LayerCount: 2
Fore
SplineSet
242.5 460 m 1
 163.5 0 l 1
 33 0 l 1
 112.5 460 l 1
 242.5 460 l 1
372 280 m 2
 378 328 369.5 370 317 372.5 c 0
 262.5 375 224 330 211.5 281 c 1
 184 276.5 l 1
 202.5 377.5 264 469.5 373.5 470 c 0
 480.5 470.5 519.5 395 506 294.5 c 1
 455.5 0 l 1
 323 0 l 1
 372 280 l 2
EndSplineSet
EndChar

StartChar: m
Encoding: 109 109 37
Width: 784
VWidth: 0
Flags: HMW
LayerCount: 2
Fore
SplineSet
347.5 280 m 2
 352.5 326 350 370 301 372.5 c 0
 250.5 375.5 217 329 206.5 281 c 1
 179 276.5 l 1
 197 376 255 469.5 361.5 470 c 0
 466 470.5 490 396 478.5 298.5 c 1
 427.5 0 l 1
 298 0 l 1
 347.5 280 l 2
238 460 m 1
 158.5 0 l 1
 33 0 l 1
 112.5 460 l 1
 238 460 l 1
747 294.5 m 2
 697.5 0 l 1
 567 0 l 1
 617 280 l 2
 622 326 619 370 570 372.5 c 0
 519.5 375.5 486 329 475.5 281 c 1
 427 276.5 l 1
 446.5 377.5 522.5 470 630.5 470 c 0
 735.5 470 759 392 747 294.5 c 2
EndSplineSet
EndChar

StartChar: k
Encoding: 107 107 38
Width: 521
VWidth: 0
Flags: HMW
LayerCount: 2
Fore
SplineSet
164 779.5 m 1
 290 780 l 1
 156 0 l 1
 32 0 l 1
 164 779.5 l 1
393 459.5 m 1
 554 459.5 l 1
 323.5 265 l 1
 489 0 l 1
 341.5 0 l 1
 173 273.5 l 1
 393 459.5 l 1
EndSplineSet
EndChar

StartChar: u
Encoding: 117 117 39
Width: 543
VWidth: 0
Flags: HMW
LayerCount: 2
Fore
SplineSet
326 0 m 1
 405.5 460 l 1
 535 460 l 1
 456 0 l 1
 326 0 l 1
197 180 m 1
 191.5 131.5 199 90 251.5 87.5 c 0
 306 85 345 130 357.5 179 c 1
 385 183.5 l 1
 366.5 82.5 304 -9.5 194.5 -10 c 0
 87.5 -10.5 50 65 62.5 165.5 c 1
 113 460 l 1
 246 459.5 l 1
 197 180 l 1
EndSplineSet
EndChar

StartChar: e
Encoding: 101 101 40
Width: 537
VWidth: 0
Flags: HMW
LayerCount: 2
Fore
SplineSet
118.5 201.5 m 1
 130 282 l 1
 399.9345 282 l 1
 399.8895 333.202 375.551 374.5 316 375 c 0
 246 375.5 196 321.5 183 255.5 c 1
 176.5 230 l 1
 167 155 197.5 93.5 272.5 91.5 c 0
 325.5 90 363 119 393 155.5 c 1
 502 116.5 l 1
 447.5 42.5 377 -10 261 -9.5 c 0
 120.5 -8.5 33.5 96.5 50.5 230 c 0
 53 247 56.5 263.5 61.5 279.5 c 0
 96 391.5 198.5 470 325.5 469.5 c 0
 462.5 469 539 371.5 523.5 236 c 0
 522 226 520 214.5 517.5 201.5 c 1
 118.5 201.5 l 1
EndSplineSet
EndChar

StartChar: g
Encoding: 103 103 41
Width: 580
VWidth: 0
Flags: HMW
LayerCount: 2
Fore
SplineSet
6.5 -32 m 1
 130.5 -32.5 l 1
 130.5 -89 160.5 -127.5 225 -128 c 0
 297.5 -129 360 -71 372 10 c 2
 449.5 460 l 1
 575 460 l 1
 498 10 l 2
 474.5 -143.5 367.5 -236 224 -236.5 c 0
 79 -237 2 -155 6.5 -32 c 1
43.5 234.5 m 0
 62 371.5 171.5 470.5 295.5 470 c 0
 418.5 469.5 468 359 452 234 c 0
 434.5 103 345.5 -0.5 223.5 -1 c 0
 99.5 -1.5 26.5 102.5 43.5 234.5 c 0
177.5 234 m 0
 167 164.5 203.5 108.5 272 107.5 c 0
 335 106.5 400.5 162 411.5 234.5 c 0
 421 303.5 383.5 360 322 361 c 0
 250 362 189 306.5 177.5 234 c 0
EndSplineSet
EndChar

StartChar: f
Encoding: 102 102 42
Width: 317
VWidth: 0
Flags: HMW
LayerCount: 2
Fore
SplineSet
74 460 m 1
 358.5 460 l 1
 338.5 349.5 l 1
 54 349.5 l 1
 74 460 l 1
378.5 649 m 1
 367 665 355 675 337.5 675 c 0
 304 675 282 640 276.5 599.5 c 2
 173 0 l 1
 47 0 l 1
 154 630.5 l 2
 170.5 726 235 795.5 338 794 c 0
 390 793.5 421.5 770 446.5 745.5 c 1
 378.5 649 l 1
EndSplineSet
EndChar

StartChar: s
Encoding: 115 115 43
Width: 425
VWidth: 0
Flags: HMW
LayerCount: 2
Fore
SplineSet
88 170.5 m 1
 127.5 127.5 172 85.5 217 87 c 0
 246.5 87 274 101.5 277.5 127 c 0
 283 164.5 234.5 182 194.5 198.5 c 0
 132.5 224.5 76.5 264.5 86 343 c 0
 97 422.5 175 469.5 263 469.5 c 0
 335 469.5 396 438 437 393.5 c 1
 371.5 315.5 l 1
 340.5 347 304.5 372 265 372.5 c 0
 236 373 208 361 204 338 c 0
 197 301 260 288 300 271 c 0
 361.5 244.5 413.5 203.5 405 128 c 0
 394 34.5 319.5 -16 220 -16 c 0
 131.5 -16 62.5 30 16 91 c 1
 88 170.5 l 1
EndSplineSet
EndChar

StartChar: y
Encoding: 121 121 44
Width: 482
VWidth: 0
Flags: HMW
LayerCount: 2
Fore
SplineSet
544.5 459.5 m 1
 136 -219.5 l 1
 0.5 -219.5 l 1
 162 49 l 1
 45.5 460 l 1
 184.5 460 l 1
 267 93 l 1
 202.5 96 l 1
 406.5 459.5 l 1
 544.5 459.5 l 1
EndSplineSet
EndChar

StartChar: w
Encoding: 119 119 45
Width: 715
VWidth: 0
Flags: HMW
LayerCount: 2
Fore
SplineSet
48.5 460 m 1
 182.5 460 l 1
 235.7275 210.1965 l 1
 412 497 l 1
 492.484 207.9675 l 1
 634 459.5 l 1
 774.5 459.5 l 1
 468.5 -32 l 1
 374.7975 258.585 l 1
 184 -32.5 l 1
 48.5 460 l 1
EndSplineSet
EndChar

StartChar: v
Encoding: 118 118 46
Width: 487
VWidth: 0
Flags: HMW
LayerCount: 2
Fore
SplineSet
52.5 460 m 1
 189.5 460 l 1
 255.5 188.5 l 1
 405.5 459.5 l 1
 546.5 459.5 l 1
 220 -50.5 l 1
 52.5 460 l 1
EndSplineSet
EndChar

StartChar: x
Encoding: 120 120 47
Width: 484
VWidth: 0
Flags: HMW
LayerCount: 2
Fore
SplineSet
385 459.5 m 1
 533 459.5 l 1
 329.5 232.5 l 1
 466.5 0 l 1
 328.5 0 l 1
 250 147.5 l 1
 131.5 0 l 1
 -21 0 l 1
 194.5 243 l 1
 64.5 460 l 1
 207.5 460 l 1
 277 329 l 1
 385 459.5 l 1
EndSplineSet
EndChar

StartChar: z
Encoding: 122 122 48
Width: 488
VWidth: 0
Flags: HMW
LayerCount: 2
Fore
SplineSet
288 340.5 m 1
 81.5 340.5 l 1
 103 460 l 1
 530.5 460 l 1
 233.5 119.5 l 1
 442.5 119.5 l 1
 421 0 l 1
 -16 0 l 1
 288 340.5 l 1
EndSplineSet
EndChar

StartChar: j
Encoding: 106 106 49
Width: 257
VWidth: 0
Flags: HMW
LayerCount: 2
Fore
SplineSet
129.5 637.5 m 0
 129.5 680 164 711.5 208 711.5 c 0
 252 711.5 286 680 286 637.5 c 0
 286 595 252 563.5 208 563.5 c 0
 164 563.5 129.5 595 129.5 637.5 c 0
-73.5 -88 m 1
 -62.5 -104 -47 -113.5 -30 -114 c 0
 3 -115 24 -78 29 -38.5 c 2
 114.5 460 l 1
 241 460 l 1
 151 -69 l 2
 134.5 -164.5 74 -235 -29 -233.5 c 0
 -81 -233 -116.5 -209 -141.5 -184.5 c 1
 -73.5 -88 l 1
EndSplineSet
EndChar

StartChar: P
Encoding: 80 80 50
Width: 583
VWidth: 0
Flags: HMW
LayerCount: 2
Fore
SplineSet
164.5 699.5 m 1
 308.5 700 l 1
 188 0 l 1
 46 0 l 1
 164.5 699.5 l 1
230 577.5 m 1
 251.5 700 l 1
 382.5 700 l 2
 530.5 699 620.5 613.5 604 476 c 0
 587 336 468 254.5 315 253.5 c 2
 174 253.5 l 1
 196 376 l 1
 327.5 376 l 2
 396.5 377 454 411.5 466 476.5 c 0
 477 539.5 435.5 577 369.5 577.5 c 2
 230 577.5 l 1
EndSplineSet
EndChar

StartChar: U
Encoding: 85 85 51
Width: 658
VWidth: 0
Flags: HMW
LayerCount: 2
Fore
SplineSet
160 700 m 1
 303 700 l 1
 222.5 238.5 l 2
 213.5 169.5 238 109 317 108.5 c 0
 402.5 108 450 166.5 462.5 239 c 1
 542 700 l 1
 685 700 l 1
 605 230 l 2
 580 76 467 -23.5 303.5 -23.5 c 0
 152 -23.5 58 79 79.5 230 c 1
 160 700 l 1
EndSplineSet
EndChar

StartChar: S
Encoding: 83 83 52
Width: 585
VWidth: 0
Flags: HMW
LayerCount: 2
Fore
SplineSet
148.5 244 m 1
 178.5 168.5 215 109.5 293 109.5 c 0
 349.5 109 393.5 140 403 190.5 c 0
 415.5 257.5 346 285.5 282 312.5 c 0
 204 346 117.5 408 132.5 523 c 0
 150.5 639.5 264 714 392 714 c 0
 512 714 580 642 606.5 560.5 c 1
 490 496.5 l 1
 467.5 547 438 587.5 379.5 588 c 0
 330 588.5 287 560 279 517.5 c 0
 267 460 350.5 433 413 408 c 0
 502 371.5 567.5 303 553 194 c 0
 533.5 63 421 -18.5 277.5 -18.5 c 0
 156.5 -18.5 68.5 61 36 173 c 1
 148.5 244 l 1
EndSplineSet
EndChar

StartChar: at
Encoding: 64 64 53
Width: 747
VWidth: 0
Flags: HMW
LayerCount: 2
Fore
SplineSet
320 320 m 0
 315.5 283 324 249.5 359 246.5 c 0
 405 241.5 458.5 304.5 466 366 c 0
 470.5 403.5 459 439.5 424.5 442 c 0
 376 446.5 327.5 375 320 320 c 0
213 314.5 m 0
 226.5 430.5 320.5 532 415 529.5 c 0
 495.5 528 516 444 506.5 370.5 c 0
 493 254.5 419 155.5 321.5 156 c 0
 238 156.5 202.5 230 213 314.5 c 0
46.5 320 m 0
 79.5 535.5 266 721 493.5 720.5 c 0
 690 720 794 553 768 390 c 0
 751 248 649.5 135 541.5 138.5 c 0
 469 140.5 444.5 200 454 262 c 1
 450 288.5 l 1
 516.5 519.5 l 1
 621.5 519.5 l 1
 551 297.5 l 2
 548.5 289.5 545.5 279.5 544 271 c 0
 542 252 543 234.5 562.5 231.5 c 0
 603.5 221.5 660 312 667 390 c 0
 687.5 509.5 634 629 487 630 c 0
 308.5 631 175.5 487 147.5 320 c 0
 125 180.5 185 68.5 338 66.5 c 0
 407.5 65.5 477 80.5 538.5 111.5 c 1
 571 31.5 l 1
 504 -2 421.5 -23 328 -22.5 c 0
 118.5 -21 18.5 133 46.5 320 c 0
EndSplineSet
EndChar

StartChar: period
Encoding: 46 46 54
Width: 306
VWidth: 0
Flags: HMW
LayerCount: 2
Fore
SplineSet
56 60 m 0
 56 104.5 91 141 139 141 c 0
 187 141 221.5 104.5 221.5 60 c 0
 221.5 15.5 187 -21.5 139 -21.5 c 0
 91 -21.5 56 15.5 56 60 c 0
EndSplineSet
EndChar

StartChar: comma
Encoding: 44 44 55
Width: 308
VWidth: 0
Flags: HMW
LayerCount: 2
Fore
SplineSet
113.5 109 m 1
 240.5 76 l 1
 80.5 -171 l 1
 -16 -147.5 l 1
 113.5 109 l 1
EndSplineSet
EndChar

StartChar: colon
Encoding: 58 58 56
Width: 306
VWidth: 0
Flags: HMW
LayerCount: 2
Fore
SplineSet
54 60 m 0
 54 104.5 88.5 141 136.5 141 c 0
 184.5 141 219 104.5 219 60 c 0
 219 15.5 184.5 -21.5 136.5 -21.5 c 0
 88.5 -21.5 54 15.5 54 60 c 0
118 435.5 m 0
 118 480 152.5 516.5 200.5 516.5 c 0
 248.5 516.5 283 480 283 435.5 c 0
 283 391 248.5 354 200.5 354 c 0
 152.5 354 118 391 118 435.5 c 0
EndSplineSet
EndChar

StartChar: semicolon
Encoding: 59 59 57
Width: 363
VWidth: 0
Flags: HMW
LayerCount: 2
Fore
SplineSet
161 431 m 0
 161 475.5 196 512.5 244 512.5 c 0
 292 512.5 327.5 475.5 327.5 431 c 0
 327.5 386.5 292 349.5 244 349.5 c 0
 196 349.5 161 386.5 161 431 c 0
129 109 m 1
 255 76 l 1
 95.5 -171 l 1
 -0.5 -147.5 l 1
 129 109 l 1
EndSplineSet
EndChar

StartChar: quotedbl
Encoding: 34 34 58
Width: 487
VWidth: 0
Flags: HMW
LayerCount: 2
Fore
SplineSet
197.5 699.5 m 1
 340.5 699.5 l 1
 192.5 387 l 1
 105 386.5 l 1
 197.5 699.5 l 1
394 699.5 m 1
 537 699.5 l 1
 389 387 l 1
 301.5 386.5 l 1
 394 699.5 l 1
EndSplineSet
EndChar

StartChar: exclam
Encoding: 33 33 59
Width: 321
VWidth: 0
Flags: HMW
LayerCount: 2
Fore
SplineSet
173 700 m 1
 333.5 700 l 1
 224.5 222.5 l 1
 119.5 222.5 l 1
 173 700 l 1
61 56 m 0
 61 100.5 96 133 144 133 c 0
 192 133 227 100.5 227 56 c 0
 227 11.5 192 -22 144 -22 c 0
 96 -22 61 11.5 61 56 c 0
EndSplineSet
EndChar

StartChar: quotesingle
Encoding: 39 39 60
Width: 291
VWidth: 0
Flags: HMW
LayerCount: 2
Fore
SplineSet
197.5 699.5 m 1
 340.5 699.5 l 1
 192.5 387 l 1
 105 386.5 l 1
 197.5 699.5 l 1
EndSplineSet
EndChar

StartChar: numbersign
Encoding: 35 35 61
Width: 629
VWidth: 0
Flags: HMW
LayerCount: 2
Fore
SplineSet
118 420.5 m 1
 134.5 524.5 l 1
 660 524.5 l 1
 642 420 l 1
 499 420 l 1
 475.5 424 l 1
 280.5 424 l 1
 258 420 l 1
 118 420.5 l 1
36.5 180 m 1
 54.5 284.5 l 1
 185.5 284.5 l 1
 211 280.5 l 1
 426 280.5 l 1
 453 284.5 l 1
 580.5 284.5 l 1
 562.5 180 l 1
 36.5 180 l 1
543.5 699.5 m 1
 661.5 699.5 l 1
 375.5 0 l 1
 259.5 0 l 1
 351.5 225 l 1
 365.5 248.5 l 1
 450.5 457.5 l 1
 457 484.5 l 1
 543.5 699.5 l 1
319 699.5 m 1
 436 699.5 l 1
 348 486.5 l 1
 333 459 l 1
 247.5 249.5 l 1
 242.5 226 l 1
 150.5 0 l 1
 35.5 0 l 1
 319 699.5 l 1
EndSplineSet
EndChar

StartChar: hyphen
Encoding: 45 45 62
Width: 211
VWidth: 0
Flags: HMW
LayerCount: 2
Fore
SplineSet
7.5 180 m 1
 27.5 294.5 l 1
 233 294.5 l 1
 212.5 180 l 1
 7.5 180 l 1
EndSplineSet
EndChar

StartChar: dollar
Encoding: 36 36 63
Width: 590
VWidth: 0
Flags: HMW
LayerCount: 2
Fore
SplineSet
361.5 817.5 m 1
 470 817.5 l 1
 438.5 646 l 1
 339 646 l 1
 361.5 817.5 l 1
249.5 57.5 m 1
 348.5 57.5 l 1
 325.5 -111.5 l 1
 217.5 -111.5 l 1
 249.5 57.5 l 1
495 496 m 1
 473.5 548.5 444 597 385.5 597.5 c 0
 332 598 293 569 285.5 525 c 0
 273 459 354.5 435.5 420 408.5 c 0
 507.5 372 577 303 564 194 c 0
 546.5 65.5 432.5 -10 290 -9.5 c 0
 171 -9 83 70.5 47 173 c 1
 158 244 l 1
 189 168 227.5 109.5 305.5 109.5 c 0
 363.5 109.5 405.5 141 413.5 191.5 c 0
 424.5 257.5 355 285.5 290 312.5 c 0
 212 346 125 410.5 139 526.5 c 0
 155 633 267.5 709.5 391.5 709.5 c 0
 509.5 709.5 576.5 643 611 560.5 c 1
 495 496 l 1
EndSplineSet
EndChar

StartChar: bar
Encoding: 124 124 64
Width: 319
VWidth: 0
Flags: HMW
LayerCount: 2
Fore
SplineSet
200 784.5 m 1
 328.5 784.5 l 1
 175 -214.5 l 1
 46 -214.5 l 1
 200 784.5 l 1
EndSplineSet
EndChar

StartChar: zero
Encoding: 48 48 65
Width: 624
VWidth: 0
Flags: HMW
LayerCount: 2
Fore
SplineSet
209 350 m 0
 197.5 248 202.5 117 301.5 115 c 0
 401 113 466 235 482 350 c 0
 493.5 452 488.5 583 389.5 585 c 0
 290 587 225 465 209 350 c 0
70.5 350 m 0
 97.5 544 222 712.5 403 712 c 0
 588.5 711.5 644 532 621 350 c 0
 594 155.5 471.5 -12.5 288 -12 c 0
 105.5 -11.5 47.5 168.5 70.5 350 c 0
EndSplineSet
Substitution2: "Tabular Numbers lookup" uniFF10
EndChar

StartChar: one
Encoding: 49 49 66
Width: 477
VWidth: 0
Flags: HMW
LayerCount: 2
Fore
SplineSet
128 515 m 1
 152 647 l 1
 465.5 713 l 1
 342.5 0 l 1
 204 0 l 1
 299.5 557.5 l 1
 128 515 l 1
EndSplineSet
Substitution2: "Tabular Numbers lookup" uniFF11
EndChar

StartChar: two
Encoding: 50 50 67
Width: 612
VWidth: 0
Flags: HMW
LayerCount: 2
Fore
SplineSet
0 0 m 1
 358 331.5 l 2
 409.5 380.5 458 427 467.5 488 c 0
 474.5 537 447.5 584.5 385.5 585.5 c 0
 310 587 260.5 519.5 246.5 446.5 c 1
 105.5 446.5 l 1
 130 591.5 235 713.5 400.5 713 c 0
 544.5 712.5 633.5 607.5 616.5 493.5 c 0
 605.5 416.5 553.5 353 492.5 302 c 2
 292.5 134 l 1
 573.5 133.5 l 1
 552.5 0 l 1
 0 0 l 1
EndSplineSet
Substitution2: "Tabular Numbers lookup" uniFF12
EndChar

StartChar: four
Encoding: 52 52 68
Width: 645
VWidth: 0
Flags: HMW
LayerCount: 2
Fore
SplineSet
8 129.5 m 1
 493.5 699 l 1
 594.5 699.5 l 1
 475 0 l 1
 327 0 l 1
 357 170.5 l 1
 372.5 181.5 l 1
 419.5 463 l 1
 225.9185 238 l 1
 450 237.5 l 1
 469 253 l 1
 626 253 l 1
 604 129 l 1
 8 129.5 l 1
EndSplineSet
Substitution2: "Tabular Numbers lookup" uniFF14
EndChar

StartChar: slash
Encoding: 47 47 69
Width: 564
VWidth: 0
Flags: HMW
LayerCount: 2
Fore
SplineSet
516.5 699.5 m 1
 646 699.5 l 1
 92 -149.5 l 1
 -40.5 -149 l 1
 516.5 699.5 l 1
EndSplineSet
EndChar

StartChar: backslash
Encoding: 92 92 70
Width: 520
VWidth: 0
Flags: HMW
LayerCount: 2
Fore
SplineSet
107 700.5 m 1
 232 700 l 1
 478.5 0 l 1
 355.5 0 l 1
 107 700.5 l 1
EndSplineSet
EndChar

StartChar: eight
Encoding: 56 56 71
Width: 585
VWidth: 0
Flags: HMW
LayerCount: 2
Fore
SplineSet
138 531.5 m 0
 155 643 265.5 714.5 383.5 714 c 0
 497.5 713.5 591 641.5 575 530.5 c 0
 558.5 413 443.5 346 329.5 346 c 0
 219 346 121.5 415 138 531.5 c 0
269.5 516 m 0
 263 471 288.5 429 336 428.5 c 0
 386.5 428 431.5 469 439.5 516.5 c 0
 446.5 562 422 604.5 372.5 605 c 0
 319.5 605.5 277.5 564 269.5 516 c 0
55.5 190.5 m 0
 74 323.5 208.5 394.5 329 394 c 0
 444.5 394 560 322 541.5 189.5 c 0
 523 67 397 -14.5 268 -14 c 0
 143.5 -13.5 37.5 69.5 55.5 190.5 c 0
199.5 210.5 m 0
 190.5 152.5 224.5 106.5 281 106 c 0
 340.5 105.5 395.5 150.5 405 211.5 c 0
 413 263.5 378 314.5 323 315 c 0
 264 315.5 209.5 265 199.5 210.5 c 0
EndSplineSet
Substitution2: "Tabular Numbers lookup" uniFF18
EndChar

StartChar: nine
Encoding: 57 57 72
Width: 623
VWidth: 0
Flags: HMW
LayerCount: 2
Fore
SplineSet
490 459 m 0
 500 528 461.5 588 389 588.5 c 0
 315 589 252.5 531 241 458.5 c 0
 231 390 269.5 327.5 342 327 c 0
 416 326.5 478.5 386.5 490 459 c 0
287.5 2.5 m 1
 102.5 2.5 l 1
 362 264.5 l 1
 392 273 l 1
 357.5 244.5 323 231 278 231.5 c 0
 163.5 232.5 86.5 337.5 101 459 c 0
 120.5 613 251 714 401 714 c 0
 548.5 714 649.5 610 630 459 c 0
 620 388.5 580.5 329 535 278.5 c 2
 287.5 2.5 l 1
EndSplineSet
Substitution2: "Tabular Numbers lookup" uniFF19
EndChar

StartChar: three
Encoding: 51 51 73
Width: 581
VWidth: 0
Flags: HMW
LayerCount: 2
Fore
SplineSet
296 340.5 m 1
 305.5 410 l 1
 376.5 415 442.5 451 451.5 512 c 0
 457.5 556 434.5 592 383 593 c 0
 326.5 594 285 552 272 504 c 1
 139 504.5 l 1
 161.5 623 258 712 393.5 712 c 0
 521 712 609.5 630 593.5 519.5 c 0
 574.5 393.5 436 343.5 296 340.5 c 1
283.5 -14 m 0
 136 -13.5 54 87.5 64 211.5 c 1
 203.5 211 l 1
 200.5 149 234 107 298.5 106 c 0
 360 105 413.5 144 422.5 204.5 c 0
 435.5 277 371.5 308 291.5 311.5 c 1
 302 388 l 1
 446.5 385 582 334.5 562 189.5 c 0
 544.5 64.5 426 -14.5 283.5 -14 c 0
EndSplineSet
Substitution2: "Tabular Numbers lookup" uniFF13
EndChar

StartChar: five
Encoding: 53 53 74
Width: 602
VWidth: 0
Flags: HMW
LayerCount: 2
Fore
SplineSet
583 225.5 m 0
 563.5 73 425.5 -11.5 286 -12 c 0
 172.5 -12 93 34.5 34 96 c 1
 115.5 208 l 1
 155.5 158.5 211.5 122 273.5 121.5 c 0
 354.5 121 420 165 431.5 239 c 0
 441.5 310 385 352.5 316 354 c 0
 252 355.5 186.5 337.5 119 305.5 c 1
 271 700 l 1
 646.5 700 l 1
 626 573.5 l 1
 357.5 573.5 l 1
 294.791 435.494 l 1
 330.221 449.417 368.8325 456 408.5 456 c 0
 528 455 598 351 583 225.5 c 0
EndSplineSet
Substitution2: "Tabular Numbers lookup" uniFF15
EndChar

StartChar: six
Encoding: 54 54 75
Width: 623
VWidth: 0
Flags: HMW
LayerCount: 2
Fore
SplineSet
207.5 241 m 0
 197.5 172 236.5 112 309 111.5 c 0
 383 111 445.5 169 457 241.5 c 0
 467 310 428 372.5 355.5 373 c 0
 281.5 373.5 219 313.5 207.5 241 c 0
409.5 697.5 m 1
 594.5 697.5 l 1
 335.5 435.5 l 1
 305.5 427 l 1
 340 455.5 374.5 469 419.5 468.5 c 0
 534 467.5 611 362.5 596.5 241 c 0
 577 87 446.5 -14 296.5 -14 c 0
 149 -14 48 90 67.5 241 c 0
 77.5 311.5 116.5 371 162 421.5 c 2
 409.5 697.5 l 1
EndSplineSet
Substitution2: "Tabular Numbers lookup" uniFF16
EndChar

StartChar: seven
Encoding: 55 55 76
Width: 562
VWidth: 0
Flags: HMW
LayerCount: 2
Fore
SplineSet
97 564.5 m 1
 119 700 l 1
 654 699.5 l 1
 219 0 l 1
 62 0 l 1
 420.5 564.5 l 1
 97 564.5 l 1
EndSplineSet
Substitution2: "Tabular Numbers lookup" uniFF17
EndChar

StartChar: plus
Encoding: 43 43 77
Width: 637
VWidth: 0
Flags: HMW
LayerCount: 2
Fore
SplineSet
69.5 202 m 1
 91.5 328.5 l 1
 606 328.5 l 1
 583.5 201.5 l 1
 69.5 202 l 1
314.5 528.5 m 1
 450.5 529 l 1
 358.5 1.5 l 1
 224.5 1.5 l 1
 314.5 528.5 l 1
EndSplineSet
EndChar

StartChar: equal
Encoding: 61 61 78
Width: 603
VWidth: 0
Flags: HMW
LayerCount: 2
Fore
SplineSet
45.5 100.5 m 1
 65.5 215 l 1
 559.5 215 l 1
 539 100 l 1
 45.5 100.5 l 1
78 290.5 m 1
 98 405.5 l 1
 592 405.5 l 1
 572 290 l 1
 78 290.5 l 1
EndSplineSet
EndChar

StartChar: percent
Encoding: 37 37 79
Width: 844
VWidth: 0
Flags: HMW
LayerCount: 2
Fore
SplineSet
89 539.5 m 0
 103 635 189 716.5 291 716.5 c 0
 392 716.5 454.5 631.5 441.5 538.5 c 0
 427.5 443 340.5 361.5 238.5 361.5 c 0
 137.5 361.5 76 446.5 89 539.5 c 0
195.5 538 m 0
 190.5 503 210 466 252 465 c 0
 293 464 328.5 502 334 539.5 c 0
 339 574.5 320.5 612 278.5 613 c 0
 237.5 614 201 575.5 195.5 538 c 0
470.5 162 m 0
 484.5 257.5 570 338.5 672 338.5 c 0
 773 338.5 834.5 254 821.5 161 c 0
 807.5 65.5 721.5 -15.5 619.5 -15.5 c 0
 518.5 -15.5 457.5 69 470.5 162 c 0
577 160.5 m 0
 572 125.5 592 88.5 632 87.5 c 0
 673 86.5 707.5 122.5 714.5 162 c 0
 719.5 197 700 234.5 660 235.5 c 0
 619 236.5 584 200 577 160.5 c 0
696 699.5 m 1
 832 699.5 l 1
 214 0 l 1
 80 0 l 1
 696 699.5 l 1
EndSplineSet
EndChar

StartChar: ampersand
Encoding: 38 38 80
Width: 708
VWidth: 0
Flags: HMW
LayerCount: 2
Fore
SplineSet
258.5 375.5 m 2
 223 427 177.5 479.5 186 548 c 0
 199 643 294 716 406 715.5 c 0
 513.5 715 584.5 638.5 572 549 c 0
 559.5 458.5 478 407 384 351.5 c 0
 311.5 310 199.5 284.5 186 197 c 0
 177.5 141.5 218 102 281 100.5 c 0
 412 95.5 531.5 225 619.5 333.5 c 1
 701 266 l 1
 593.5 136.5 446 -13.5 255.5 -12 c 0
 135.5 -11 33 65 49 186.5 c 0
 67.5 332.5 224 376 316 419 c 0
 379 450 443.5 490 451.5 540 c 0
 455.5 575 434 607.5 392 608 c 0
 349 608.5 317.5 578.5 311.5 540 c 0
 303.5 495 342.5 455.5 376.5 407.5 c 2
 673 0 l 1
 530 0 l 1
 258.5 375.5 l 2
EndSplineSet
EndChar

StartChar: question
Encoding: 63 63 81
Width: 588
VWidth: 0
Flags: HMW
LayerCount: 2
Fore
SplineSet
464.5 500 m 0
 475 562 435.5 603 367.5 603.5 c 0
 303 604.5 245 565.5 203 518 c 1
 122.5 592.5 l 1
 193.5 665 275.5 717.5 388.5 716.5 c 0
 514 715.5 613.5 625.5 595 499.5 c 0
 576.5 378.5875 463.259 308.0635 353.147 286.12 c 1
 330.5 192.5 l 1
 226 192.5 l 1
 235.5 370 l 1
 264 370 l 1
 365 372 449.5 429 464.5 500 c 0
171 54.5 m 0
 171 95.5 207 128 253 128 c 0
 299.5 128 334.5 95 334.5 54.5 c 0
 334.5 13 299 -21.5 253 -21.5 c 0
 206.5 -21.5 171 13 171 54.5 c 0
EndSplineSet
EndChar

StartChar: parenleft
Encoding: 40 40 82
Width: 321
VWidth: 0
Flags: HMW
LayerCount: 2
Fore
SplineSet
288 779 m 1
 407.5 779 l 1
 320 628.5 256.5 463 229 290 c 0
 204 125.5 211.5 -42.5 258 -200.5 c 1
 142 -200.5 l 1
 87 -43 74.5 125.5 98.5 290 c 0
 125.5 464 190 631.5 288 779 c 1
EndSplineSet
EndChar

StartChar: parenright
Encoding: 41 41 83
Width: 321
VWidth: 0
Flags: HMW
LayerCount: 2
Fore
SplineSet
89.5 -199 m 1
 -29.5 -199 l 1
 58 -48.5 121 117 148.5 290 c 0
 173.5 454.5 166 622.5 119.5 780.5 c 1
 235.5 780.5 l 1
 290.5 623 303 454.5 279 290 c 0
 252 116 187.5 -51.5 89.5 -199 c 1
EndSplineSet
EndChar

StartChar: asterisk
Encoding: 42 42 84
Width: 574
VWidth: 0
Flags: HMW
LayerCount: 2
Fore
SplineSet
550 602 m 1
 568 488 l 1
 346 443.5 l 1
 335.5 509.5 l 1
 550 602 l 1
492 328.5 m 1
 386 259 l 1
 311.5 458.5 l 1
 367.5 495.5 l 1
 492 328.5 l 1
226.5 261 m 1
 140.5 333.5 l 1
 316 495 l 1
 365 454 l 1
 226.5 261 l 1
118.5 490 m 1
 171.5 601 l 1
 358.5 506.5 l 1
 328 444.5 l 1
 118.5 490 l 1
320 699.5 m 1
 440 699.5 l 1
 375 476 l 1
 308.5 476 l 1
 320 699.5 l 1
EndSplineSet
EndChar

StartChar: less
Encoding: 60 60 85
Width: 621
VWidth: 0
Flags: HMW
LayerCount: 2
Fore
SplineSet
267 262 m 1
 555 128.5 l 1
 533 5 l 1
 72.5 221 l 1
 87.5 305.5 l 1
 622.5 522 l 1
 598.5 388 l 1
 267 262 l 1
EndSplineSet
EndChar

StartChar: greater
Encoding: 62 62 86
Width: 621
VWidth: 0
Flags: HMW
LayerCount: 2
Fore
SplineSet
389 262 m 1
 102 395.5 l 1
 123.5 519 l 1
 583.5 303 l 1
 569 218.5 l 1
 34 2 l 1
 57.5 136 l 1
 389 262 l 1
EndSplineSet
EndChar

StartChar: bracketleft
Encoding: 91 91 87
Width: 333
VWidth: 0
Flags: HMW
LayerCount: 2
Fore
SplineSet
304 664.5 m 1
 185 -104.5 l 1
 283.5 -104.5 l 1
 265 -220 l 1
 38 -220 l 1
 192.5 780 l 1
 419.5 780 l 1
 401.5 665 l 1
 304 664.5 l 1
EndSplineSet
EndChar

StartChar: bracketright
Encoding: 93 93 88
Width: 333
VWidth: 0
Flags: HMW
LayerCount: 2
Fore
SplineSet
83 -104.5 m 1
 201.5 664.5 l 1
 103 664.5 l 1
 121.5 780 l 1
 348 780 l 1
 193.5 -220 l 1
 -33 -220 l 1
 -15 -105 l 1
 83 -104.5 l 1
EndSplineSet
EndChar

StartChar: asciicircum
Encoding: 94 94 89
Width: 494
VWidth: 0
Flags: HMW
LayerCount: 2
Fore
SplineSet
324 590 m 1
 215 452 l 1
 92 452 l 1
 302 709.5 l 1
 376.5 710 l 1
 498 451 l 1
 383.5 451 l 1
 324 590 l 1
EndSplineSet
EndChar

StartChar: underscore
Encoding: 95 95 90
Width: 506
VWidth: 0
Flags: HMW
LayerCount: 2
Fore
SplineSet
-53.5 -147.5 m 1
 -39 -64 l 1
 470 -64 l 1
 455.5 -147.5 l 1
 -53.5 -147.5 l 1
EndSplineSet
EndChar

StartChar: grave
Encoding: 96 96 91
Width: 363
VWidth: 0
Flags: HMW
LayerCount: 2
Fore
SplineSet
141.5 657.5 m 1
 248 704.5 l 1
 371.5 542.5 l 1
 296 506 l 1
 141.5 657.5 l 1
EndSplineSet
EndChar

StartChar: braceleft
Encoding: 123 123 92
Width: 362
VWidth: 0
Flags: HMW
LayerCount: 2
Fore
SplineSet
314.5 624 m 2
 293.5 490 l 2
 276.5 392 252 291 128 280.5 c 1
 130.5 300 l 1
 251 287 244.5 179.5 231 90 c 2
 209.5 -44.5 l 2
 205 -71.5 218 -93.5 247.5 -94 c 2
 283 -94 l 1
 267 -200 l 1
 190 -200 l 2
 116 -199.5 57 -146.5 68.5 -60 c 2
 98 132 l 2
 105 194 98.5 221 59.5 242 c 1
 73.5 338 l 1
 116.5 355.5 137 385 145.5 448.5 c 2
 174.5 640.5 l 2
 187.5 729 258 778.5 334 779.5 c 2
 417.5 779.5 l 1
 402.5 674.5 l 1
 369.5 674.5 l 2
 338.5 674.5 319.5 652.5 314.5 624 c 2
EndSplineSet
EndChar

StartChar: braceright
Encoding: 125 125 93
Width: 362
VWidth: 0
Flags: HMW
LayerCount: 2
Fore
SplineSet
108.5 -44.5 m 2
 129 90 l 2
 146 188 170 289 294 299.5 c 1
 291.5 280 l 1
 171 293 178 400.5 191.5 490 c 2
 213 625 l 2
 217.5 652 204.5 673.5 175 674 c 2
 140 674 l 1
 155.5 780 l 1
 232.5 780 l 2
 306.5 779.5 365.5 726.5 354 640 c 2
 324.5 448 l 2
 317.5 386 324 359 363 338 c 1
 349.5 242 l 1
 306.5 224.5 285.5 195 277 131.5 c 2
 248 -60.5 l 2
 235.5 -149 164 -198.5 88 -199.5 c 2
 5 -199.5 l 1
 20.5 -94.5 l 1
 53 -94.5 l 2
 84 -94.5 103.5 -73 108.5 -44.5 c 2
EndSplineSet
EndChar

StartChar: asciitilde
Encoding: 126 126 94
Width: 558
VWidth: 0
Flags: HMW
LayerCount: 2
Fore
SplineSet
158 167 m 1
 54 172 l 1
 53.5 179.5 52.5 188 53.5 196.5 c 0
 57.5 227.5 72 258 94.5 284 c 0
 124.5 318 165.5 340.5 219.5 340 c 0
 262 340 296 320.5 334 292 c 0
 356 275 377.5 258 397 258.5 c 0
 419.5 259 435.5 279 439.5 300.5 c 0
 441.5 310.5 441 322.5 439 332.5 c 1
 545.5 326.5 l 1
 546 318 547.5 307.5 546 298 c 0
 542.5 268 530.5 235.5 508 209.5 c 0
 480.5 177.5 443.5 158 397.5 158.5 c 0
 358.5 159 325.5 180 286.5 208 c 0
 262 226.5 237 242 211.5 241.5 c 0
 181.5 241 162 218.5 157 193.5 c 0
 155 183.5 157 175.5 158 167 c 1
EndSplineSet
EndChar

StartChar: exclamdown
Encoding: 161 161 95
Width: 321
VWidth: 0
Flags: HMW
LayerCount: 2
Fore
SplineSet
173.5 -234 m 1
 13 -234 l 1
 123 243.5 l 1
 227 243.5 l 1
 173.5 -234 l 1
285 409.5 m 0
 279.5 367 237.5 333 193 334 c 0
 148 335 117 368 122.5 411.5 c 0
 128 454 169.5 488.5 214 487.5 c 0
 259 486.5 290.5 453 285 409.5 c 0
EndSplineSet
EndChar

StartChar: cent
Encoding: 162 162 96
Width: 562
VWidth: 0
Flags: HMW
LayerCount: 2
Fore
SplineSet
219.5 37.5 m 1
 316.5 37.5 l 1
 297 -111.5 l 1
 187 -111.5 l 1
 219.5 37.5 l 1
199.5 230 m 0
 188 157.5 230.5 100 302.5 98.5 c 0
 365.5 97.5 420 132 455.5 170.5 c 1
 435 35.5 l 1
 395.5 7.5 342 -9.5 282.5 -9.5 c 0
 141 -9 48.5 94.5 68 230 c 0
 88.5 369.5 211.5 469 356.5 469.5 c 0
 413.5 469.5 463 453 499 424 c 1
 478.5 288.5 l 1
 456 331.5 413.5 362.5 355 362 c 0
 281.5 361.5 212.5 303.5 199.5 230 c 0
306 577.5 m 1
 415.5 577.5 l 1
 383 428.5 l 1
 286 428.5 l 1
 306 577.5 l 1
EndSplineSet
EndChar

StartChar: sterling
Encoding: 163 163 97
Width: 584
VWidth: 0
Flags: HMW
LayerCount: 2
Fore
SplineSet
100.5 370 m 1
 465 370 l 1
 448 277 l 1
 83.5 277 l 1
 100.5 370 l 1
480.5 470.5 m 1
 483 526 470.5 588.5 398 590 c 0
 345 591.5 295 557.5 285 501.5 c 0
 269 416 346.5 363.5 335 268 c 0
 319 160 208.5 78 120 51.5 c 1
 167 122.5 l 1
 512 122.5 l 1
 490.5 0 l 1
 26 0 l 1
 117 92 192.5 168.5 210.5 275.5 c 0
 223.5 364.5 139.5 416.5 151.5 520.5 c 0
 168 637.5 283.5 710 405 709.5 c 0
 535.5 709 606 610.5 602.5 514.5 c 1
 480.5 470.5 l 1
EndSplineSet
EndChar

StartChar: currency
Encoding: 164 164 98
Width: 560
VWidth: 0
Flags: HMW
LayerCount: 2
Fore
SplineSet
84 504.5 m 1
 150 562 l 1
 230.5 460 l 1
 167 406 l 1
 84 504.5 l 1
65.5 38 m 1
 15.5 100.5 l 1
 126 194 l 1
 175.5 134.5 l 1
 65.5 38 l 1
484.5 406 m 1
 433.5 467 l 1
 544.5 562 l 1
 593.5 501 l 1
 484.5 406 l 1
377.5 138.5 m 1
 443.5 194 l 1
 523.5 93.5 l 1
 460 38.5 l 1
 377.5 138.5 l 1
72.5 300 m 0
 92 432 205.5 539.5 341 539.5 c 0
 475 539.5 555 428 537 300 c 0
 517.5 168 403.5 60.5 268 60.5 c 0
 134 60.5 54.5 172 72.5 300 c 0
191.5 299.5 m 0
 181.5 237 214.5 181 281 180.5 c 0
 349 179.5 407 234.5 418 300.5 c 0
 428 363 395 419 328.5 419.5 c 0
 260.5 420.5 202.5 365.5 191.5 299.5 c 0
EndSplineSet
EndChar

StartChar: yen
Encoding: 165 165 99
Width: 624
VWidth: 0
Flags: HMW
LayerCount: 2
Fore
SplineSet
62 272 m 1
 78.5 365 l 1
 614.5 365 l 1
 598.5 272 l 1
 62 272 l 1
36.5 122 m 1
 52.5 215 l 1
 589 215 l 1
 573 122 l 1
 36.5 122 l 1
547 699.5 m 1
 713.5 699.5 l 1
 408 289 l 1
 359 0 l 1
 212 0 l 1
 263.5 294 l 1
 99.5 700 l 1
 259.5 700 l 1
 355 422 l 1
 547 699.5 l 1
EndSplineSet
EndChar

StartChar: brokenbar
Encoding: 166 166 100
Width: 320
VWidth: 0
Flags: HMW
LayerCount: 2
Fore
SplineSet
188 694.5 m 1
 316.5 694.5 l 1
 271.5 437 l 1
 143 437 l 1
 188 694.5 l 1
242.5 263 m 1
 198 5.5 l 1
 69.5 5.5 l 1
 114 263 l 1
 242.5 263 l 1
EndSplineSet
EndChar

StartChar: section
Encoding: 167 167 101
Width: 513
VWidth: 0
Flags: HMW
LayerCount: 2
Fore
SplineSet
435 558.5 m 1
 412 588.5 377 608.5 342 608.5 c 0
 313.5 608.5 281.5 596.5 278 573.5 c 0
 273.5 542.5 329.5 529 366.5 515.5 c 0
 432.5 492 485.5 444 476 375 c 0
 461 271.5 357.5 236 256.5 233 c 1
 263 272 l 1
 303 281 346 308 353 350 c 0
 361.5 402.5 302.5 420.5 257.5 440.5 c 0
 200 466.5 146 508 156 582 c 0
 168.5 670.5 262 719 346.5 719.5 c 0
 419 720 485 688.5 514 639 c 1
 435 558.5 l 1
114 169.5 m 1
 143.5 123.5 188 91.5 237.5 92 c 0
 271.5 92 304 106.5 308.5 134 c 0
 315 171.5 265 185 225.5 200 c 0
 159.5 223.5 94.5 267 105 341.5 c 0
 119.5 438 225 476 328.5 479 c 1
 323 444.5 l 1
 280 429 239 411 231.5 369 c 0
 221.5 310 290 296 334.5 275.5 c 0
 395.5 247.5 446 200 437 129.5 c 0
 424 30.5 325.5 -19 230 -19 c 0
 136.5 -19 68.5 26 34 90.5 c 1
 114 169.5 l 1
EndSplineSet
EndChar

StartChar: dieresis
Encoding: 168 168 102
Width: 484
VWidth: 0
Flags: HMW
LayerCount: 2
Fore
SplineSet
359 641 m 0
 363.5 681 404.5 714.5 445 713.5 c 0
 486.5 712.5 517.5 680 513 639 c 0
 508.5 599 467.5 565 427 566 c 0
 385.5 567 354.5 600 359 641 c 0
134.5 641 m 0
 139 681 180 714.5 220.5 713.5 c 0
 262 712.5 293 680 288.5 639 c 0
 284 599 243 565 202.5 566 c 0
 161 567 130 600 134.5 641 c 0
EndSplineSet
EndChar

StartChar: copyright
Encoding: 169 169 103
Width: 776
VWidth: 0
Flags: HMW
LayerCount: 2
Fore
SplineSet
304 350 m 0
 293 276.5 335 216.5 410 215.5 c 0
 466 214.5 510.5 241.5 545.5 271.5 c 1
 532.5 174.5 l 1
 494.5 149 455 131.5 400 131.5 c 0
 274.5 131.5 195 229.5 210.5 350 c 0
 227 474 333 568 460 568.5 c 0
 513.5 569 550.5 552 585.5 524.5 c 1
 572 427.5 l 1
 545 460.5 510 485 458 485 c 0
 381.5 485 316 427 304 350 c 0
130 350 m 0
 106.5 189 202 41 373.5 40.5 c 0
 548 40 693.5 180.5 720 350 c 0
 743.5 511 648 659 476.5 659.5 c 0
 302 660 156.5 519.5 130 350 c 0
74.5 350 m 0
 102 550 271.5 710.5 476 710 c 0
 677 709.5 800.5 543 775.5 350 c 0
 748 150 578 -10.5 373.5 -10 c 0
 172.5 -9.5 49.5 157 74.5 350 c 0
EndSplineSet
EndChar

StartChar: registered
Encoding: 174 174 104
Width: 776
VWidth: 0
Flags: HMW
LayerCount: 2
Fore
SplineSet
392.5 336 m 1
 471.5 336 l 1
 568 149.5 l 1
 469.5 149.5 l 1
 392.5 336 l 1
321 569.5 m 1
 408 569.5 l 1
 343 150.5 l 1
 256.5 150.5 l 1
 321 569.5 l 1
362.5 495.5 m 1
 373.5 569.5 l 1
 457 570 l 1
 543.5 568 605 518 594.5 439.5 c 0
 584 358 512.5 309 422.5 307 c 1
 332.5 307 l 1
 343.5 375 l 1
 422.5 375.5 l 1
 463 377 499.5 397.5 505 436.5 c 0
 510 474 483.5 493.5 445.5 495.5 c 1
 362.5 495.5 l 1
130 350 m 0
 106.5 189 202 41 373.5 40.5 c 0
 548 40 693.5 180.5 720 350 c 0
 743.5 511 648 659 476.5 659.5 c 0
 302 660 156.5 519.5 130 350 c 0
74.5 350 m 0
 102 549.5 271.5 710.5 476 710 c 0
 677 709.5 800.5 543 775.5 350 c 0
 748 150.5 578 -10.5 373.5 -10 c 0
 172.5 -9.5 49.5 157 74.5 350 c 0
EndSplineSet
EndChar

StartChar: ordfeminine
Encoding: 170 170 105
Width: 252
VWidth: 0
Flags: HMW
LayerCount: 2
Fore
SplineSet
145.5 530 m 0
 143.5 513.5 155 502 175 501.5 c 0
 205.5 500.5 230 521 239.5 551.5 c 1
 243.5 524 l 1
 231.5 484 198.5 455 151 455.5 c 0
 107 456 73.5 485.5 80 530 c 0
 87 576 137.5 605.5 187 605.5 c 0
 219.5 605.5 246 592.5 261.5 579.5 c 1
 256 548 l 1
 239 560 222 568.5 198.5 568 c 0
 174.5 567.5 148.5 551.5 145.5 530 c 0
143 630.5 m 1
 126.5 679 l 1
 154 691 188 705.5 226 705 c 0
 278 704.5 319 680 315 631.5 c 1
 286.5 460.5 l 1
 223 460.5 l 1
 251.5 617.5 l 1
 249.5 637 240.5 649 217.5 651 c 0
 188.5 653 159.5 638.5 143 630.5 c 1
EndSplineSet
EndChar

StartChar: ordmasculine
Encoding: 186 186 106
Width: 269
VWidth: 0
Flags: HMW
LayerCount: 2
Fore
SplineSet
89.5 580.5 m 0
 99 649 160.5 700 231 699.5 c 0
 301 699 349.5 647.5 340 579.5 c 0
 330.5 511 267.5 460 197 460.5 c 0
 127 461 80 512.5 89.5 580.5 c 0
155.5 579.5 m 0
 151 547.5 167.5 517 200.5 516.5 c 0
 234.5 516 268 546 273.5 580.5 c 0
 278 612.5 260.5 643.5 227.5 644 c 0
 193.5 644.5 161 614 155.5 579.5 c 0
EndSplineSet
EndChar

StartChar: guillemotleft
Encoding: 171 171 107
Width: 516
VWidth: 0
Flags: HMW
LayerCount: 2
Fore
SplineSet
341.5 256.5 m 1
 454 62.5 l 1
 367.5 6 l 1
 232 259 l 1
 447.5 503 l 1
 520 442 l 1
 341.5 256.5 l 1
155.5 256.5 m 1
 268.5 62.5 l 1
 181.5 6 l 1
 46.5 259 l 1
 261.5 503 l 1
 334.5 442 l 1
 155.5 256.5 l 1
EndSplineSet
EndChar

StartChar: guillemotright
Encoding: 187 187 108
Width: 516
VWidth: 0
Flags: HMW
LayerCount: 2
Fore
SplineSet
208 253.5 m 1
 95 447.5 l 1
 182 504 l 1
 317.5 251 l 1
 102 7 l 1
 29.5 68 l 1
 208 253.5 l 1
394 253.5 m 1
 281 447.5 l 1
 368 504 l 1
 503 251 l 1
 287.5 7 l 1
 215 68 l 1
 394 253.5 l 1
EndSplineSet
EndChar

StartChar: uni00AD
Encoding: 173 173 109
Width: 203
VWidth: 0
Flags: HMW
LayerCount: 2
Fore
SplineSet
12.5 200.5 m 1
 24.5 275 l 1
 221 275 l 1
 208.5 200.5 l 1
 12.5 200.5 l 1
EndSplineSet
EndChar

StartChar: logicalnot
Encoding: 172 172 110
Width: 622
VWidth: 0
Flags: HMW
LayerCount: 2
Fore
SplineSet
83.5 280 m 1
 102.5 395 l 1
 602.5 395 l 1
 563.5 175.5 l 1
 467 175.5 l 1
 487 280 l 1
 83.5 280 l 1
EndSplineSet
EndChar

StartChar: macron
Encoding: 175 175 111
Width: 509
VWidth: 0
Flags: HMW
LayerCount: 2
Fore
SplineSet
149 580 m 1
 167 695 l 1
 524 695 l 1
 506 580 l 1
 149 580 l 1
EndSplineSet
EndChar

StartChar: degree
Encoding: 176 176 112
Width: 282
VWidth: 0
Flags: HMW
LayerCount: 2
Fore
SplineSet
91 598.5 m 0
 100.5 667 162.5 720 233 719.5 c 0
 303.5 719 351 665 341.5 597 c 0
 332 528.5 269.5 475.5 198.5 476 c 0
 128 476.5 81.5 530.5 91 598.5 c 0
154.5 597.5 m 0
 150 565 168 534 202 533.5 c 0
 237.5 533 272 564 277.5 598.5 c 0
 282 631 263.5 662.5 229.5 663 c 0
 194 663.5 160 632 154.5 597.5 c 0
EndSplineSet
EndChar

StartChar: plusminus
Encoding: 177 177 113
Width: 609
VWidth: 0
Flags: HMW
LayerCount: 2
Fore
SplineSet
46 4.5 m 1
 64 120.5 l 1
 550 120.5 l 1
 531.5 4.5 l 1
 46 4.5 l 1
97 336 m 1
 116 456.5 l 1
 601.5 456.5 l 1
 582.5 336 l 1
 97 336 l 1
316.5 620 m 1
 450 620 l 1
 380 172.5 l 1
 248.5 172.5 l 1
 316.5 620 l 1
EndSplineSet
EndChar

StartChar: uni00B2
Encoding: 178 178 114
Width: 378
VWidth: 0
Flags: HMW
LayerCount: 2
Fore
SplineSet
42.5 283 m 1
 261 481 l 2
 292 510 324 538 330 575 c 0
 334 603 319.5 632.5 283.5 634 c 0
 238 636.5 207 593 197 550.5 c 1
 111 551 l 1
 128.5 636.5 191.5 710 291.5 709.5 c 0
 379 709 429.5 645 418.5 576.5 c 0
 411.5 531 379.5 494 343.5 463.5 c 2
 223 363 l 1
 389 362 l 1
 375 282.5 l 1
 42.5 283 l 1
EndSplineSet
EndChar

StartChar: uni00B3
Encoding: 179 179 115
Width: 339
VWidth: 0
Flags: HMW
LayerCount: 2
Fore
SplineSet
201.5 485 m 1
 208 526 l 1
 251 530 291 551 297.5 588 c 0
 301 613.5 287 635 257 636 c 0
 223 637 199 611 190 583.5 c 1
 108.5 584 l 1
 125 653 181.5 706.5 263 706.5 c 0
 339.5 706 392.5 657.5 382 591.5 c 0
 369.5 516.5 285 488 201.5 485 c 1
192 271.5 m 0
 102 272 56 332.5 60 407 c 1
 144 407 l 1
 144 371 160 345.5 199 344 c 0
 235 343 270.5 368 275.5 403 c 0
 283.5 446.5 244 463.5 197 467 c 1
 204.5 512.5 l 1
 291 509.5 373.5 480 360.5 393 c 0
 350 319 276.5 271 192 271.5 c 0
EndSplineSet
EndChar

StartChar: acute
Encoding: 180 180 116
Width: 363
VWidth: 0
Flags: HMW
LayerCount: 2
Fore
SplineSet
389 653.5 m 1
 193 506.5 l 1
 123 546.5 l 1
 291.5 704 l 1
 389 653.5 l 1
EndSplineSet
EndChar

StartChar: mu
Encoding: 181 181 117
Width: 543
VWidth: 0
Flags: HMW
LayerCount: 2
Fore
SplineSet
326 0 m 1
 405.5 460 l 1
 535 460 l 1
 456 0 l 1
 326 0 l 1
197 180 m 1
 191.5 131 199 90.5 251.5 88 c 0
 306.5 85.5 345 130.5 357.5 179 c 1
 390 183.5 l 1
 371 82.5 304.5 -9.5 194.5 -10 c 0
 87.5 -10.5 50 64.5 62.5 165.5 c 1
 113 460 l 1
 246 459.5 l 1
 197 180 l 1
112 459.5 m 1
 238.5 460 l 1
 103.5 -320 l 1
 -20.5 -319.5 l 1
 112 459.5 l 1
EndSplineSet
EndChar

StartChar: paragraph
Encoding: 182 182 118
Width: 625
VWidth: 0
Flags: HMW
LayerCount: 2
Fore
SplineSet
356 615 m 1
 371 699.5 l 1
 588.5 699.5 l 1
 574 615 l 1
 356 615 l 1
548 699.5 m 1
 661.5 699.5 l 1
 504.5 -219.5 l 1
 391 -219.5 l 1
 548 699.5 l 1
371 699.5 m 1
 484.5 699.5 l 1
 327 -219.5 l 1
 214 -219.5 l 1
 371 699.5 l 1
301 270.5 m 1
 178.5 277 94 356 113 485.5 c 0
 133.5 620.5 243 699.5 371 699.5 c 1
 301 270.5 l 1
EndSplineSet
EndChar

StartChar: periodcentered
Encoding: 183 183 119
Width: 306
VWidth: 0
Flags: HMW
LayerCount: 2
Fore
SplineSet
89 261 m 0
 94.5 303.5 137 342.5 182 341.5 c 0
 228 340.5 258 302 252.5 259 c 0
 247 216.5 204.5 177.5 159.5 178.5 c 0
 113.5 179.5 83.5 218 89 261 c 0
EndSplineSet
EndChar

StartChar: uni00B9
Encoding: 185 185 120
Width: 464
VWidth: 0
Flags: HMW
LayerCount: 2
Fore
SplineSet
206 583.5 m 1
 219.5 662.5 l 1
 409.5 702 l 1
 335.5 274.5 l 1
 251 274.5 l 1
 308 608 l 1
 206 583.5 l 1
EndSplineSet
EndChar

StartChar: cedilla
Encoding: 184 184 121
Width: 369
VWidth: 0
Flags: HMW
LayerCount: 2
Fore
SplineSet
163 67.5 m 1
 261.5 64.5 l 1
 160.5 -54 l 1
 168.5 -52.5 177 -51.5 185.5 -51.5 c 0
 228.5 -54.5 264.5 -89.5 258.5 -143 c 0
 250 -208.5 183.5 -245.5 123 -246 c 0
 75.5 -246.5 39 -233.5 0.5 -206.5 c 1
 49 -148 l 1
 69.5 -163 91.5 -172.5 114.5 -172.5 c 0
 141.5 -172.5 173 -158 175.5 -135 c 0
 178 -111.5 151.5 -103 128 -102.5 c 0
 109.5 -101.5 78 -107.5 49.5 -118 c 1
 163 67.5 l 1
EndSplineSet
EndChar

StartChar: questiondown
Encoding: 191 191 122
Width: 588
VWidth: 0
Flags: HMW
LayerCount: 2
Fore
SplineSet
189.5 200 m 0
 179 138 218 97.5 286.5 97 c 0
 351.5 96 410 134 451.5 181.5 c 1
 532.5 108 l 1
 461.5 35 379 -17.5 266 -16.5 c 0
 141 -15.5 41.5 74.5 60 200.5 c 0
 78.5 320.5 189 393.5 301 413.5 c 1
 323.5 507.5 l 1
 428.5 507.5 l 1
 419 330.5 l 1
 390.5 330.5 l 1
 289.5 328.5 204.5 271 189.5 200 c 0
481 645.5 m 0
 476 606 432.5 571 389 572 c 0
 345 573 313 607 318 647.5 c 0
 323 687 365.5 722.5 409 721.5 c 0
 453 720.5 486 686 481 645.5 c 0
EndSplineSet
EndChar

StartChar: multiply
Encoding: 215 215 123
Width: 578
VWidth: 0
Flags: HMW
LayerCount: 2
Fore
SplineSet
107 8.5 m 1
 38.5 95 l 1
 230 258 l 1
 94.5 422 l 1
 186 502 l 1
 316 334.5 l 1
 504 501.5 l 1
 572.5 415 l 1
 381 252 l 1
 516.5 88 l 1
 425 8 l 1
 295 175.5 l 1
 107 8.5 l 1
EndSplineSet
EndChar

StartChar: Oslash
Encoding: 216 216 124
Width: 766
VWidth: 0
Flags: HMW
LayerCount: 2
Fore
SplineSet
217.5 350 m 0
 199 231.5 255 122.5 383.5 121.5 c 0
 513.5 120.5 614.5 224 636 350 c 0
 654.5 468.5 598.5 577.5 470 578.5 c 0
 340 579.5 239 476 217.5 350 c 0
66 350 m 0
 97 554.5 272.5 715 484.5 714.5 c 0
 693 714 816 547 787.5 350 c 0
 756.5 145.5 580.5 -19.5 368 -19 c 0
 159 -18.5 37.5 153 66 350 c 0
772.5 754 m 1
 834 702.5 l 1
 76.5 -54 l 1
 16.5 -5 l 1
 772.5 754 l 1
EndSplineSet
EndChar

StartChar: Thorn
Encoding: 222 222 125
Width: 576
VWidth: 0
Flags: HMW
LayerCount: 2
Fore
SplineSet
168.5 699.5 m 1
 297.5 700 l 1
 177 0 l 1
 50 0 l 1
 168.5 699.5 l 1
204.5 455.5 m 1
 225.5 573.5 l 1
 357 573.5 l 1
 505 571 600.5 489 579.5 351.5 c 0
 558 212.5 443 133.5 290 131 c 1
 149 131 l 1
 170.5 249.5 l 1
 301.5 249.5 l 2
 376.5 251 437 281.5 450 352.5 c 0
 462 422 415.5 453 344.5 455 c 1
 204.5 455.5 l 1
EndSplineSet
EndChar

StartChar: divide
Encoding: 247 247 126
Width: 615
VWidth: 0
Flags: HMW
LayerCount: 2
Fore
SplineSet
288.5 525 m 0
 294 567.5 336 606 381 605 c 0
 427 604 457 566 451.5 523 c 0
 446 480.5 404 441.5 359 442.5 c 0
 313 443.5 283 482 288.5 525 c 0
214 91 m 0
 219.5 133.5 262.5 172.5 307.5 171.5 c 0
 353.5 170.5 382.5 132 377 89 c 0
 371.5 46.5 329.5 7.5 284.5 8.5 c 0
 238.5 9.5 208.5 48 214 91 c 0
49.5 250 m 1
 70 370 l 1
 618.5 370 l 1
 597.5 249.5 l 1
 49.5 250 l 1
EndSplineSet
EndChar

StartChar: oslash
Encoding: 248 248 127
Width: 529
VWidth: 0
Flags: HMW
LayerCount: 2
Fore
SplineSet
42.5 230 m 0
 63 371 186 469.5 328.5 469.5 c 0
 468.5 469.5 561.5 367.5 542 230 c 0
 521.5 89 398 -9.5 255.5 -9.5 c 0
 115.5 -9.5 23 92.5 42.5 230 c 0
166.5 230 m 0
 155.5 158.5 193 97.5 265.5 97 c 0
 339.5 96 406 154.5 418.5 230 c 0
 429.5 298 390.5 362 318.5 363 c 0
 245 364 179 302.5 166.5 230 c 0
493.5 503.5 m 1
 545.5 473 l 1
 79.5 -47.5 l 1
 28 -18 l 1
 493.5 503.5 l 1
EndSplineSet
EndChar

StartChar: circumflex
Encoding: 710 710 128
Width: 465
VWidth: 0
Flags: HMW
LayerCount: 2
Fore
SplineSet
317 633 m 1
 208 546 l 1
 128 610.5 l 1
 330 748 l 1
 491 606 l 1
 396 545.5 l 1
 317 633 l 1
EndSplineSet
EndChar

StartChar: ogonek
Encoding: 731 731 129
Width: 252
VWidth: 0
Flags: HMW
LayerCount: 2
Fore
SplineSet
152.5 -116.5 m 1
 176 -181 l 1
 153.5 -201 122.5 -219.5 78 -219.5 c 0
 13 -219.5 -33 -181.5 -25.5 -119.5 c 0
 -16 -50.5 61.5 -8.5 127.5 24.5 c 1
 167 0 l 1
 122.5 -24.5 76 -56 70 -96 c 0
 68 -118.5 76.5 -134 99.5 -136 c 0
 119.5 -137.5 138 -127 152.5 -116.5 c 1
EndSplineSet
EndChar

StartChar: tilde
Encoding: 732 732 130
Width: 514
VWidth: 0
Flags: HMW
LayerCount: 2
Fore
SplineSet
158.5 635.5 m 1
 178.5 681 224.5 726 282 724.5 c 0
 336 723.5 354 673.5 403.5 675 c 0
 430.5 676 453 700.5 473.5 726 c 1
 529 659 l 1
 504 622 454 577 397 579 c 0
 348.5 580.5 319.5 631.5 274 629 c 0
 239.5 627.5 227 597.5 219 579 c 1
 158.5 635.5 l 1
EndSplineSet
EndChar

StartChar: ring
Encoding: 730 730 131
Width: 304
VWidth: 0
Flags: HMW
LayerCount: 2
Fore
SplineSet
141 775 m 0
 149.5 837.5 209.5 885 272.5 884.5 c 0
 335.5 884 382 835.5 373.5 773 c 0
 365 710.5 304 662.5 241 663 c 0
 178 663.5 132.5 712.5 141 775 c 0
210.5 773 m 0
 207.5 748.5 223 727 246 725.5 c 0
 270 724 300.5 748.5 303.5 774.5 c 0
 306.5 799 290.5 821 267.5 822.5 c 0
 243.5 824 213.5 799 210.5 773 c 0
EndSplineSet
EndChar

StartChar: dotaccent
Encoding: 729 729 132
Width: 291
VWidth: 0
Flags: HMW
LayerCount: 2
Fore
SplineSet
179 807.5 m 0
 184 847.5 226 881 266.5 880 c 0
 308 879 338 846 333 805 c 0
 328 765 286.5 731.5 246 732.5 c 0
 204.5 733.5 174 766.5 179 807.5 c 0
EndSplineSet
EndChar

StartChar: uni2010
Encoding: 8208 8208 133
Width: 211
VWidth: 0
Flags: HMW
LayerCount: 2
Fore
SplineSet
7.5 180 m 1
 27.5 295 l 1
 233 295 l 1
 212.5 180 l 1
 7.5 180 l 1
EndSplineSet
EndChar

StartChar: endash
Encoding: 8211 8211 134
Width: 748
VWidth: 0
Flags: HMW
LayerCount: 2
Fore
SplineSet
70.5 180 m 1
 90.5 295 l 1
 701 295 l 1
 681 180 l 1
 70.5 180 l 1
EndSplineSet
EndChar

StartChar: figuredash
Encoding: 8210 8210 135
Width: 598
VWidth: 0
Flags: HMW
LayerCount: 2
Fore
SplineSet
70.5 180 m 1
 90.5 295 l 1
 549.5 295 l 1
 529.5 180 l 1
 70.5 180 l 1
EndSplineSet
EndChar

StartChar: emdash
Encoding: 8212 8212 136
Width: 898
VWidth: 0
Flags: HMW
LayerCount: 2
Fore
SplineSet
70.5 180 m 1
 90.5 295 l 1
 853.5 295 l 1
 833.5 180 l 1
 70.5 180 l 1
EndSplineSet
EndChar

StartChar: minus
Encoding: 8722 8722 137
Width: 574
VWidth: 0
Flags: HMW
LayerCount: 2
Fore
SplineSet
62 180 m 1
 81.5 295 l 1
 540.5 295 l 1
 520.5 180 l 1
 62 180 l 1
EndSplineSet
EndChar

StartChar: quoteright
Encoding: 8217 8217 138
Width: 305
VWidth: 0
Flags: HMW
LayerCount: 2
Fore
SplineSet
193 699.5 m 1
 334 699.5 l 1
 190.5 452.5 l 1
 96.5 452.5 l 1
 193 699.5 l 1
EndSplineSet
EndChar

StartChar: quoteleft
Encoding: 8216 8216 139
Width: 305
VWidth: 0
Flags: HMW
LayerCount: 2
Fore
SplineSet
255.5 452 m 1
 114.5 452.5 l 1
 257 699 l 1
 352 699 l 1
 255.5 452 l 1
EndSplineSet
EndChar

StartChar: quotesinglbase
Encoding: 8218 8218 140
Width: 305
VWidth: 0
Flags: HMW
LayerCount: 2
Fore
SplineSet
97 79.5 m 1
 238 79.5 l 1
 94.5 -167.5 l 1
 0.5 -167.5 l 1
 97 79.5 l 1
EndSplineSet
EndChar

StartChar: quotedblleft
Encoding: 8220 8220 141
Width: 521
VWidth: 0
Flags: HMW
LayerCount: 2
Fore
SplineSet
255.5 452 m 1
 114.5 452.5 l 1
 257 699 l 1
 352 699 l 1
 255.5 452 l 1
471 452 m 1
 330 452.5 l 1
 473 699 l 1
 567.5 699 l 1
 471 452 l 1
EndSplineSet
EndChar

StartChar: quotedblright
Encoding: 8221 8221 142
Width: 521
VWidth: 0
Flags: HMW
LayerCount: 2
Fore
SplineSet
193 699.5 m 1
 334 699.5 l 1
 190.5 452.5 l 1
 96.5 452.5 l 1
 193 699.5 l 1
409 699.5 m 1
 550 699.5 l 1
 406.5 452.5 l 1
 312.5 452.5 l 1
 409 699.5 l 1
EndSplineSet
EndChar

StartChar: perthousand
Encoding: 8240 8240 143
Width: 1266
VWidth: 0
Flags: HMW
LayerCount: 2
Fore
SplineSet
890.5 162 m 0
 904.5 257.5 991.5 339 1093.5 339 c 0
 1194.5 339 1256 254 1243 161 c 0
 1229 65.5 1142.5 -15.5 1040.5 -15.5 c 0
 939.5 -15.5 877.5 69 890.5 162 c 0
998 160.5 m 0
 993 125.5 1011.5 89.5 1051.5 88 c 0
 1092.5 86.5 1130.5 124.5 1136 162 c 0
 1141 197 1122.5 234 1082.5 235.5 c 0
 1041.5 237 1003.5 198 998 160.5 c 0
89 539.5 m 0
 103 635 189 716.5 291 716.5 c 0
 392 716.5 454.5 631.5 441.5 538.5 c 0
 427.5 443 340.5 361 238.5 361 c 0
 137.5 361 76 446.5 89 539.5 c 0
196 538 m 0
 191 503 209.5 466.5 249.5 465 c 0
 290.5 463.5 328.5 502 334 539.5 c 0
 339 574.5 320.5 611.5 280.5 613 c 0
 239.5 614.5 201.5 575.5 196 538 c 0
470.5 162 m 0
 484.5 257.5 570.5 339 672.5 339 c 0
 773.5 339 835.5 254 822.5 161 c 0
 808.5 65.5 722 -15.5 620 -15.5 c 0
 519 -15.5 457.5 69 470.5 162 c 0
577 160.5 m 0
 572 125.5 591 89.5 631 88 c 0
 672 86.5 709.5 124.5 715 162 c 0
 720 197 702 234 662 235.5 c 0
 621 237 582.5 198 577 160.5 c 0
696.5 699.5 m 1
 832.5 699.5 l 1
 214.5 0 l 1
 80 0 l 1
 696.5 699.5 l 1
EndSplineSet
EndChar

StartChar: guilsinglleft
Encoding: 8249 8249 144
Width: 339
VWidth: 0
Flags: HMW
LayerCount: 2
Fore
SplineSet
155.5 256.5 m 1
 268.5 62.5 l 1
 181.5 6 l 1
 46.5 259 l 1
 261.5 503 l 1
 334.5 442 l 1
 155.5 256.5 l 1
EndSplineSet
EndChar

StartChar: guilsinglright
Encoding: 8250 8250 145
Width: 339
VWidth: 0
Flags: HMW
LayerCount: 2
Fore
SplineSet
216.5 253.5 m 1
 104 447.5 l 1
 190.5 504 l 1
 326 251 l 1
 111 7 l 1
 38 68 l 1
 216.5 253.5 l 1
EndSplineSet
EndChar

StartChar: uni2031
Encoding: 8241 8241 146
Width: 1687
VWidth: 0
Flags: HMW
LayerCount: 2
Fore
SplineSet
1311.5 162 m 0
 1325.5 257.5 1412 339 1514 339 c 0
 1615 339 1677 254 1664 161 c 0
 1650 65.5 1563.5 -15.5 1461.5 -15.5 c 0
 1360.5 -15.5 1298.5 69 1311.5 162 c 0
1419 160.5 m 0
 1414 125.5 1432.5 89.5 1472.5 88 c 0
 1513.5 86.5 1551 124.5 1556.5 162 c 0
 1561.5 197 1543 234 1503 235.5 c 0
 1462 237 1424.5 198 1419 160.5 c 0
890.5 162 m 0
 904.5 257.5 991.5 339 1093.5 339 c 0
 1194.5 339 1256 254 1243 161 c 0
 1229 65.5 1142.5 -15.5 1040.5 -15.5 c 0
 939.5 -15.5 877.5 69 890.5 162 c 0
998 160.5 m 0
 993 125.5 1011.5 89.5 1051.5 88 c 0
 1092.5 86.5 1130.5 124.5 1136 162 c 0
 1141 197 1122.5 234 1082.5 235.5 c 0
 1041.5 237 1003.5 198 998 160.5 c 0
89 539.5 m 0
 103 635 189 716.5 291 716.5 c 0
 392 716.5 454.5 631.5 441.5 538.5 c 0
 427.5 443 340.5 361 238.5 361 c 0
 137.5 361 76 446.5 89 539.5 c 0
196 538 m 0
 191 503 209.5 466.5 249.5 465 c 0
 290.5 463.5 328.5 502 334 539.5 c 0
 339 574.5 320.5 611.5 280.5 613 c 0
 239.5 614.5 201.5 575.5 196 538 c 0
470.5 162 m 0
 484.5 257.5 570.5 339 672.5 339 c 0
 773.5 339 835.5 254 822.5 161 c 0
 808.5 65.5 722 -15.5 620 -15.5 c 0
 519 -15.5 457.5 69 470.5 162 c 0
577 160.5 m 0
 572 125.5 591 89.5 631 88 c 0
 672 86.5 709.5 124.5 715 162 c 0
 720 197 702 234 662 235.5 c 0
 621 237 582.5 198 577 160.5 c 0
696.5 699.5 m 1
 832.5 699.5 l 1
 214.5 0 l 1
 80 0 l 1
 696.5 699.5 l 1
EndSplineSet
EndChar

StartChar: uni203D
Encoding: 8253 8253 147
Width: 588
VWidth: 0
Flags: HMW
LayerCount: 2
Fore
SplineSet
472 487 m 0
 484.5 558.5 438.5 602.5 362.5 603 c 0
 297 603.5 242.5 570 203.5 518.5 c 1
 122 592 l 1
 182.5 662.5 273 716.5 387.5 715.5 c 0
 512.5 714.5 613.5 625.5 595 499.5 c 0
 573.5 359.5 426.5 287 302 281 c 1
 284 347.5 l 1
 373 353 456 406 472 487 c 0
263 505.5 m 1
 395 505 l 1
 315.5 192.5 l 1
 234 192.5 l 1
 263 505.5 l 1
173 56.5 m 0
 178.5 98 222 133.5 266 132.5 c 0
 311 131.5 343 96.5 337.5 54.5 c 0
 332 13 289 -22.5 245 -21.5 c 0
 200 -20.5 167.5 14.5 173 56.5 c 0
EndSplineSet
EndChar

StartChar: Euro
Encoding: 8364 8364 148
Width: 614
VWidth: 0
Flags: HMW
LayerCount: 2
Fore
SplineSet
79.5 389 m 1
 92.5 462 l 1
 574.5 462 l 1
 561.5 389 l 1
 79.5 389 l 1
48 261 m 1
 61 334.5 l 1
 531.5 334.5 l 1
 518.5 261 l 1
 48 261 l 1
249 350 m 0
 233.5 231 259 108.5 376.5 106.5 c 0
 435.5 105.5 489.5 132 535.5 166.5 c 1
 514.5 24 l 1
 468 0 417 -16.5 363.5 -16.5 c 0
 169.5 -16.5 97 170 121 350 c 0
 149 542 287.5 717.5 481 717 c 0
 533 717 579.5 701 623.5 676 c 1
 601.5 532.5 l 1
 565 571 522 594.5 468 594.5 c 0
 350.5 594.5 268.5 481 249 350 c 0
EndSplineSet
EndChar

StartChar: fraction
Encoding: 8260 8260 149
Width: 700
VWidth: 0
Flags: HMW
LayerCount: 2
Fore
SplineSet
652 699 m 1
 760 699 l 1
 136.5 0 l 1
 28.5 0 l 1
 652 699 l 1
EndSplineSet
EndChar

StartChar: onequarter
Encoding: 188 188 150
Width: 778
VWidth: 0
Flags: HMW
LayerCount: 2
Fore
SplineSet
697.5 699 m 1
 788.5 699 l 1
 164.5 0 l 1
 74 0 l 1
 697.5 699 l 1
96.5 583.5 m 1
 110 662.5 l 1
 300 702 l 1
 226 274.5 l 1
 141.5 274.5 l 1
 198 608 l 1
 96.5 583.5 l 1
375.5 78 m 1
 455 141.5 l 1
 634 142.5 l 1
 646 151.5 l 1
 748.5 151.5 l 1
 735 77.5 l 1
 375.5 78 l 1
470.5 99.5 m 1
 373 76 l 1
 668 419 l 1
 730 419.5 l 1
 658 0 l 1
 568.5 0 l 1
 585.5 99 l 1
 594 105 l 1
 623 275.5 l 1
 470.5 99.5 l 1
EndSplineSet
EndChar

StartChar: onehalf
Encoding: 189 189 151
Width: 846
VWidth: 0
Flags: HMW
LayerCount: 2
Fore
SplineSet
697.5 699 m 1
 788.5 699 l 1
 164.5 0 l 1
 74 0 l 1
 697.5 699 l 1
96.5 583.5 m 1
 110 662.5 l 1
 300 702 l 1
 226 274.5 l 1
 141.5 274.5 l 1
 198 608 l 1
 96.5 583.5 l 1
458 3 m 1
 676 201 l 2
 707 230 739 258 745 295 c 0
 749 323 734 352 698 353.5 c 0
 652.5 356 622 313 612 270.5 c 1
 526.5 271 l 1
 544 356.5 606.5 430 706.5 429.5 c 0
 794 429 844 365 833 296.5 c 0
 826 251 794.5 214 758.5 183.5 c 2
 637.5 83 l 1
 804 82 l 1
 790.5 2.5 l 1
 458 3 l 1
EndSplineSet
EndChar

StartChar: threequarters
Encoding: 190 190 152
Width: 836
VWidth: 0
Flags: HMW
LayerCount: 2
Fore
SplineSet
760.5 699 m 1
 851 699 l 1
 227.5 0 l 1
 137 0 l 1
 760.5 699 l 1
208.5 485 m 1
 215 526 l 1
 258 530 297.5 551 304 588 c 0
 307.5 613.5 294.5 635 264.5 636 c 0
 230.5 637 206 611 197 583.5 c 1
 115.5 584 l 1
 132 653 188 706.5 269.5 706.5 c 0
 346 706 399.5 657.5 389 591.5 c 0
 376.5 516.5 292 488 208.5 485 c 1
199 271.5 m 0
 109 272 63 332.5 67 407 c 1
 151 407 l 1
 151 371 167 345.5 206 344 c 0
 242 343 277.5 368 282.5 403 c 0
 290.5 446.5 251 463.5 204 467 c 1
 211.5 512.5 l 1
 298 509.5 380 480 367 393 c 0
 356.5 319 283.5 271 199 271.5 c 0
434.5 78 m 1
 514 141.5 l 1
 692.5 142.5 l 1
 704 151.5 l 1
 807 151.5 l 1
 794 77.5 l 1
 434.5 78 l 1
529.5 99.5 m 1
 432 76 l 1
 726.5 419 l 1
 788.5 419.5 l 1
 717 0 l 1
 626.5 0 l 1
 643.5 99 l 1
 652.5 105 l 1
 681.5 275.5 l 1
 529.5 99.5 l 1
EndSplineSet
EndChar

StartChar: uni2150
Encoding: 8528 8528 153
Width: 886
VWidth: 0
Flags: HMW
LayerCount: 2
Fore
SplineSet
666.5 699 m 1
 774.5 699 l 1
 150.5 0 l 1
 42.5 0 l 1
 666.5 699 l 1
96.5 583.5 m 1
 110 662.5 l 1
 300 702 l 1
 226 274.5 l 1
 141.5 274.5 l 1
 198 608 l 1
 96.5 583.5 l 1
573.5 338.5 m 1
 587.5 419.5 l 1
 911 419.5 l 1
 642.5 0 l 1
 546.5 0 l 1
 766 338 l 1
 573.5 338.5 l 1
EndSplineSet
EndChar

StartChar: uni2151
Encoding: 8529 8529 154
Width: 829
VWidth: 0
Flags: HMW
LayerCount: 2
Fore
SplineSet
662 699 m 1
 770 699 l 1
 146.5 0 l 1
 38.5 0 l 1
 662 699 l 1
96.5 583.5 m 1
 110 662.5 l 1
 300 702 l 1
 226 274.5 l 1
 141.5 274.5 l 1
 198 608 l 1
 96.5 583.5 l 1
746.5 277.5 m 0
 752 318 730.5 354 688 355 c 0
 644.5 356.5 603 319 596.5 276.5 c 0
 591 236 613 200 655.5 198.5 c 0
 699 197 740 235 746.5 277.5 c 0
622 4 m 1
 508.5 4 l 1
 666.5 159.5 l 1
 685 164.5 l 1
 664.5 149 644 141 617.5 141.5 c 0
 549 142 503.5 205.5 512.5 277.5 c 0
 524.5 369 605 430.5 694 430.5 c 0
 782.5 430.5 844 367 831 276.5 c 0
 824.5 234.5 800 198.5 772.5 168.5 c 1
 622 4 l 1
EndSplineSet
EndChar

StartChar: uni2152
Encoding: 8530 8530 155
Width: 1138
VWidth: 0
Flags: HMW
LayerCount: 2
Fore
SplineSet
662 699 m 1
 770 699 l 1
 146.5 0 l 1
 38.5 0 l 1
 662 699 l 1
96.5 583.5 m 1
 110 662.5 l 1
 300 702 l 1
 226 274.5 l 1
 141.5 274.5 l 1
 198 608 l 1
 96.5 583.5 l 1
541.5 310.5 m 1
 555.5 389.5 l 1
 745.5 429 l 1
 671 1.5 l 1
 587 1.5 l 1
 643.5 335 l 1
 541.5 310.5 l 1
870.5 210 m 0
 863.5 148.5 866.5 71 925 69 c 0
 984.5 67 1025 142 1034.5 210 c 0
 1041.5 271.5 1038.5 349 980 351 c 0
 920.5 353 880 278 870.5 210 c 0
786.5 210 m 0
 801.5 325.5 878 427.5 985 427 c 0
 1096 426.5 1131 320 1117.5 210 c 0
 1102 94 1028 -7.5 919 -7 c 0
 810 -6.5 773 100 786.5 210 c 0
EndSplineSet
EndChar

StartChar: onethird
Encoding: 8531 8531 156
Width: 814
VWidth: 0
Flags: HMW
LayerCount: 2
Fore
SplineSet
662 699 m 1
 769.5 699 l 1
 146 0 l 1
 38.5 0 l 1
 662 699 l 1
96.5 583.5 m 1
 110 662.5 l 1
 300 702 l 1
 226 274.5 l 1
 141.5 274.5 l 1
 198 608 l 1
 96.5 583.5 l 1
625 205 m 1
 631.5 246 l 1
 674.5 250 714.5 271 721 308 c 0
 724.5 333.5 711 355 681 356 c 0
 647 357 622.5 331 613.5 303.5 c 1
 532 304 l 1
 548.5 373 605 426.5 686.5 426.5 c 0
 763 426 816.5 377.5 806 311.5 c 0
 793.5 236.5 708.5 208 625 205 c 1
615.5 -8.5 m 0
 525.5 -8 480 52.5 484 127 c 1
 568 127 l 1
 568 91 584 65.5 623 64 c 0
 659 63 694.5 88 699.5 123 c 0
 707.5 166.5 667.5 183.5 620.5 187 c 1
 628.5 232.5 l 1
 715 229.5 797 200 784 113 c 0
 773.5 39 700 -9 615.5 -8.5 c 0
EndSplineSet
EndChar

StartChar: twothirds
Encoding: 8532 8532 157
Width: 942
VWidth: 0
Flags: HMW
LayerCount: 2
Fore
SplineSet
798.5 699 m 1
 906.5 699 l 1
 282.5 0 l 1
 174.5 0 l 1
 798.5 699 l 1
47.5 283 m 1
 266 481 l 2
 297 510 329 538 335 575 c 0
 339 603 324 632 288 633.5 c 0
 242.5 636 212 593 202 550.5 c 1
 116 551 l 1
 133.5 636.5 196 710 296 709.5 c 0
 383.5 709 434 645 423 576.5 c 0
 416 531 384 494 348 463.5 c 2
 228 363 l 1
 394 362 l 1
 380 282.5 l 1
 47.5 283 l 1
753 205 m 1
 759.5 246 l 1
 802.5 250 842 271 848.5 308 c 0
 852 333.5 838.5 355 808.5 356 c 0
 774.5 357 750.5 331 741.5 303.5 c 1
 659.5 304 l 1
 676 373 732.5 426.5 814 426.5 c 0
 890.5 426 944 377.5 933.5 311.5 c 0
 921 236.5 836.5 208 753 205 c 1
743 -8.5 m 0
 653 -8 607 52.5 611 127 c 1
 695.5 127 l 1
 695.5 91 711.5 65.5 750.5 64 c 0
 786.5 63 821.5 88 826.5 123 c 0
 834.5 166.5 796 183.5 749 187 c 1
 756 232.5 l 1
 842.5 229.5 925 200 912 113 c 0
 901.5 39 827.5 -9 743 -8.5 c 0
EndSplineSet
EndChar

StartChar: uni2155
Encoding: 8533 8533 158
Width: 803
VWidth: 0
Flags: HMW
LayerCount: 2
Fore
SplineSet
662 699 m 1
 770 699 l 1
 146.5 0 l 1
 38.5 0 l 1
 662 699 l 1
96.5 583.5 m 1
 110 662.5 l 1
 300 702 l 1
 226 274.5 l 1
 141.5 274.5 l 1
 198 608 l 1
 96.5 583.5 l 1
777 132.5 m 0
 764.5 42 680.5 -8 597.5 -8.5 c 0
 529 -9 481.5 19 445.5 56 c 1
 494.5 123 l 1
 519.5 94.5 551.5 71.5 588 71 c 0
 635 70.5 680 97.5 686 142 c 0
 691.5 183.5 659 208.5 618.5 210.5 c 0
 580 212.5 540 200.5 499 182 c 1
 561 228.5 l 1
 593 256.5 632 272.5 673 272 c 0
 745 270.5 787 208 777 132.5 c 0
648 342 m 1
 594 230.5 l 1
 493 177 l 1
 593 417.5 l 1
 819.5 417.5 l 1
 806.5 342.5 l 1
 648 342 l 1
EndSplineSet
EndChar

StartChar: uni2156
Encoding: 8534 8534 159
Width: 937
VWidth: 0
Flags: HMW
LayerCount: 2
Fore
SplineSet
798.5 699 m 1
 906.5 699 l 1
 282.5 0 l 1
 174.5 0 l 1
 798.5 699 l 1
47.5 283 m 1
 266 481 l 2
 297 510 329 538 335 575 c 0
 339 603 324 632 288 633.5 c 0
 242.5 636 212 593 202 550.5 c 1
 116 551 l 1
 133.5 636.5 196 710 296 709.5 c 0
 383.5 709 434 645 423 576.5 c 0
 416 531 384 494 348 463.5 c 2
 228 363 l 1
 394 362 l 1
 380 282.5 l 1
 47.5 283 l 1
904.5 132.5 m 0
 892 42 807.5 -8 724.5 -8.5 c 0
 656 -9 609.5 19 573.5 56 c 1
 622 123 l 1
 647 94.5 679 71.5 715.5 71 c 0
 762.5 70.5 807 97.5 813 142 c 0
 818.5 183.5 786.5 208.5 746 210.5 c 0
 707.5 212.5 667.5 200.5 626.5 182 c 1
 688 228.5 l 1
 720 256.5 759 272.5 800 272 c 0
 872 270.5 914.5 208 904.5 132.5 c 0
775.5 342 m 1
 721.5 230.5 l 1
 620.5 177 l 1
 721 417.5 l 1
 947 417.5 l 1
 934 342.5 l 1
 775.5 342 l 1
EndSplineSet
EndChar

StartChar: uni2157
Encoding: 8535 8535 160
Width: 875
VWidth: 0
Flags: HMW
LayerCount: 2
Fore
SplineSet
737.5 699 m 1
 846 699 l 1
 222.5 0 l 1
 114.5 0 l 1
 737.5 699 l 1
206.5 485 m 1
 212.5 526 l 1
 255.5 530 295.5 551 302 588 c 0
 305.5 613.5 292 635 262 636 c 0
 228 637 203.5 611 194.5 583.5 c 1
 113 584 l 1
 129.5 653 186 706.5 267.5 706.5 c 0
 344 706 397.5 657.5 387 591.5 c 0
 374.5 516.5 290 488 206.5 485 c 1
197 271.5 m 0
 107 272 61 332.5 65 407 c 1
 149 407 l 1
 149 371 165 345.5 204 344 c 0
 240 343 275.5 368 280.5 403 c 0
 288.5 446.5 249 463.5 202 467 c 1
 209.5 512.5 l 1
 296 509.5 378 480 365 393 c 0
 354.5 319 281.5 271 197 271.5 c 0
839.5 132.5 m 0
 827 42 743 -8 660 -8.5 c 0
 591.5 -9 544.5 19 508.5 56 c 1
 557 123 l 1
 582 94.5 614 71.5 650.5 71 c 0
 697.5 70.5 742.5 97.5 748.5 142 c 0
 754 183.5 721.5 208.5 681 210.5 c 0
 642.5 212.5 602.5 200.5 561.5 182 c 1
 623.5 228.5 l 1
 655.5 256.5 694.5 272.5 735.5 272 c 0
 807.5 270.5 849.5 208 839.5 132.5 c 0
710.5 342 m 1
 657 230.5 l 1
 555.5 177 l 1
 655.5 417.5 l 1
 882 417.5 l 1
 869 342.5 l 1
 710.5 342 l 1
EndSplineSet
EndChar

StartChar: uni2158
Encoding: 8536 8536 161
Width: 943
VWidth: 0
Flags: HMW
LayerCount: 2
Fore
SplineSet
789 699 m 1
 896.5 698.5 l 1
 273.5 0 l 1
 165.5 0 l 1
 789 699 l 1
54.5 358 m 1
 134 421.5 l 1
 313 422.5 l 1
 324.5 431.5 l 1
 427 431.5 l 1
 414 357.5 l 1
 54.5 358 l 1
150.5 379.5 m 1
 52 356 l 1
 347 699 l 1
 408.5 699.5 l 1
 337 280.5 l 1
 247.5 280.5 l 1
 264.5 379 l 1
 273 385 l 1
 302 555.5 l 1
 150.5 379.5 l 1
912.5 132.5 m 0
 900 42 816 -9 733 -9.5 c 0
 664.5 -10 617.5 18 581.5 55 c 1
 630 122.5 l 1
 655 94 686.5 71 723 70.5 c 0
 770 70 816 97 822 141.5 c 0
 827.5 183 794 207.5 753.5 209.5 c 0
 715 211.5 676 200 635 181.5 c 1
 696 227.5 l 1
 728 255.5 767 272 808 271.5 c 0
 880 270 922.5 208 912.5 132.5 c 0
783 341.5 m 1
 730 230.5 l 1
 629 176 l 1
 729 417.5 l 1
 955.5 417.5 l 1
 942 342 l 1
 783 341.5 l 1
EndSplineSet
EndChar

StartChar: uni2159
Encoding: 8537 8537 162
Width: 807
VWidth: 0
Flags: HMW
LayerCount: 2
Fore
SplineSet
675 699 m 1
 783 699 l 1
 159.5 0 l 1
 51.5 0 l 1
 675 699 l 1
96.5 583.5 m 1
 110 662.5 l 1
 300 702 l 1
 226 274.5 l 1
 141.5 274.5 l 1
 198 608 l 1
 96.5 583.5 l 1
546 142.5 m 0
 540.5 102 562 66 604.5 65 c 0
 648 63.5 689 101 695.5 143.5 c 0
 701 184 679.5 220 637 221.5 c 0
 593.5 223 552.5 185 546 142.5 c 0
670.5 416 m 1
 784 416 l 1
 626.5 260.5 l 1
 607.5 255.5 l 1
 628 271 648 278.5 674.5 278.5 c 0
 743 278.5 789 214.5 780 142.5 c 0
 768 51 687.5 -10.5 598.5 -10.5 c 0
 510 -10.5 448.5 53 461.5 143.5 c 0
 468 185.5 492 221.5 519.5 251.5 c 1
 670.5 416 l 1
EndSplineSet
EndChar

StartChar: uni215A
Encoding: 8538 8538 163
Width: 882
VWidth: 0
Flags: HMW
LayerCount: 2
Fore
SplineSet
763 699 m 1
 871 699 l 1
 247.5 0 l 1
 139.5 0 l 1
 763 699 l 1
389.5 412.5 m 0
 377 322 292.5 272 209.5 271.5 c 0
 141 271 94.5 299 58.5 336 c 1
 107 403 l 1
 132 374.5 164 351.5 200.5 351 c 0
 247.5 350.5 292.5 377.5 298.5 422 c 0
 304 463.5 271.5 488.5 231 490.5 c 0
 192.5 492.5 152.5 480.5 111.5 462 c 1
 173 508.5 l 1
 205 536.5 244 552.5 285 552 c 0
 357 550.5 399.5 488 389.5 412.5 c 0
260 622 m 1
 207 510.5 l 1
 105.5 457 l 1
 205.5 697.5 l 1
 432.5 697.5 l 1
 419 622.5 l 1
 260 622 l 1
621 142.5 m 0
 615.5 102 637 66 679.5 65 c 0
 723 63.5 764 101 770.5 143.5 c 0
 776 184 754.5 220 712 221.5 c 0
 668.5 223 627.5 185 621 142.5 c 0
745.5 416 m 1
 859 416 l 1
 701.5 260.5 l 1
 683 255.5 l 1
 703.5 271 723 278.5 749.5 278.5 c 0
 818 278.5 864 214.5 855 142.5 c 0
 843 51 762.5 -10.5 673.5 -10.5 c 0
 585 -10.5 523.5 53 536.5 143.5 c 0
 543 185.5 567 221.5 594.5 251.5 c 1
 745.5 416 l 1
EndSplineSet
EndChar

StartChar: oneeighth
Encoding: 8539 8539 164
Width: 828
VWidth: 0
Flags: HMW
LayerCount: 2
Fore
SplineSet
675 699 m 1
 783 699 l 1
 159.5 0 l 1
 51.5 0 l 1
 675 699 l 1
96.5 583.5 m 1
 110 662.5 l 1
 300 702 l 1
 226 274.5 l 1
 141.5 274.5 l 1
 198 608 l 1
 96.5 583.5 l 1
549.5 319.5 m 0
 559 385.5 626.5 429 696 428.5 c 0
 764 428 822.5 385 813 318.5 c 0
 804 249 733 208 665.5 208.5 c 0
 599 209 540 249.5 549.5 319.5 c 0
629 309.5 m 0
 625.5 283 640.5 258.5 668 257 c 0
 696 255.5 726 283 730 311 c 0
 733.5 338 719.5 362 691 363.5 c 0
 661.5 365 633.5 338 629 309.5 c 0
499.5 114.5 m 0
 510 193.5 592 237 663 236.5 c 0
 732.5 236.5 803 193 792.5 113.5 c 0
 782 41 705 -9 628.5 -8.5 c 0
 554 -8 489 41.5 499.5 114.5 c 0
587 126.5 m 0
 582 92.5 601.5 64.5 634.5 63.5 c 0
 668.5 62.5 705 91.5 710 127.5 c 0
 714.5 158 694 187.5 661.5 188.5 c 0
 628 189.5 592.5 158.5 587 126.5 c 0
EndSplineSet
EndChar

StartChar: threeeighths
Encoding: 8540 8540 165
Width: 894
VWidth: 0
Flags: HMW
LayerCount: 2
Fore
SplineSet
742.5 699 m 1
 850 699 l 1
 226.5 0 l 1
 119 0 l 1
 742.5 699 l 1
206.5 485 m 1
 212.5 526 l 1
 255.5 530 295.5 551 302 588 c 0
 305.5 613.5 292 635 262 636 c 0
 228 637 203.5 611 194.5 583.5 c 1
 113.5 584 l 1
 130 653 186 706.5 267.5 706.5 c 0
 344 706 397.5 657.5 387 591.5 c 0
 374.5 516.5 290 488 206.5 485 c 1
197 271.5 m 0
 107 272 61 332.5 65 407 c 1
 149 407 l 1
 149 371 165 345.5 204 344 c 0
 240 343 275.5 368 280.5 403 c 0
 288.5 446.5 249 463.5 202 467 c 1
 209.5 512.5 l 1
 296 509.5 378 480 365 393 c 0
 354.5 319 281.5 271 197 271.5 c 0
616 319.5 m 0
 625.5 385.5 694 429 763.5 428.5 c 0
 831.5 428 889.5 385 880 318.5 c 0
 871 249 800.5 208 733 208.5 c 0
 666.5 209 606.5 249.5 616 319.5 c 0
696 309.5 m 0
 692.5 283 707.5 258.5 735 257 c 0
 763 255.5 793 283 797 311 c 0
 800.5 338 787 362 758.5 363.5 c 0
 729 365 700.5 338 696 309.5 c 0
566.5 114.5 m 0
 577 193.5 659.5 237 730.5 236.5 c 0
 800 236.5 870 193 859.5 113.5 c 0
 849 41 772.5 -9 696 -8.5 c 0
 621.5 -8 556 41.5 566.5 114.5 c 0
654 126.5 m 0
 649 92.5 669 64.5 702 63.5 c 0
 736 62.5 771.5 91.5 776.5 127.5 c 0
 781 158 761.5 187.5 729 188.5 c 0
 695.5 189.5 659.5 158.5 654 126.5 c 0
EndSplineSet
EndChar

StartChar: fiveeighths
Encoding: 8541 8541 166
Width: 916
VWidth: 0
Flags: HMW
LayerCount: 2
Fore
SplineSet
763 699 m 1
 871 699 l 1
 247.5 0 l 1
 139.5 0 l 1
 763 699 l 1
385.5 412.5 m 0
 373 322 288.5 272 205.5 271.5 c 0
 137 271 90.5 299 54.5 336 c 1
 102.5 403 l 1
 127.5 374.5 159.5 351.5 196 351 c 0
 243 350.5 288 377.5 294 422 c 0
 299.5 463.5 267 488.5 226.5 490.5 c 0
 188 492.5 148 480.5 107 462 c 1
 169 508.5 l 1
 201 536.5 240 552.5 281 552 c 0
 353 550.5 395.5 488 385.5 412.5 c 0
256 622 m 1
 202.5 510.5 l 1
 101 457 l 1
 201.5 697.5 l 1
 427.5 697.5 l 1
 414.5 622.5 l 1
 256 622 l 1
637 319.5 m 0
 646.5 385.5 715 429 784.5 428.5 c 0
 852.5 428 910.5 385 901 318.5 c 0
 892 249 821.5 208 754 208.5 c 0
 687.5 209 627.5 249.5 637 319.5 c 0
717 309.5 m 0
 713.5 283 729 258.5 756.5 257 c 0
 784.5 255.5 814 283 818 311 c 0
 821.5 338 807.5 362 779 363.5 c 0
 749.5 365 721.5 338 717 309.5 c 0
587.5 114.5 m 0
 598 193.5 680.5 237 751.5 236.5 c 0
 821 236.5 891 193 880.5 113.5 c 0
 870 41 793.5 -9 717 -8.5 c 0
 642.5 -8 577 41.5 587.5 114.5 c 0
675 126.5 m 0
 670 92.5 690 64.5 723 63.5 c 0
 757 62.5 792.5 91.5 797.5 127.5 c 0
 802 158 782 187.5 749.5 188.5 c 0
 716 189.5 680.5 158.5 675 126.5 c 0
EndSplineSet
EndChar

StartChar: seveneighths
Encoding: 8542 8542 167
Width: 809
VWidth: 0
Flags: HMW
LayerCount: 2
Fore
SplineSet
652 699 m 1
 760 699 l 1
 136.5 0 l 1
 28.5 0 l 1
 652 699 l 1
101.5 618.5 m 1
 115.5 699.5 l 1
 438.5 699.5 l 1
 170 281 l 1
 75 281 l 1
 294.5 618 l 1
 101.5 618.5 l 1
530.5 319.5 m 0
 540 385.5 608.5 429 678 428.5 c 0
 746 428 803.5 385 794 318.5 c 0
 785 249 714.5 208 647 208.5 c 0
 580.5 209 521 249.5 530.5 319.5 c 0
610 309.5 m 0
 606.5 283 622 258.5 649.5 257 c 0
 677.5 255.5 707.5 283 711.5 311 c 0
 715 338 701 362 672.5 363.5 c 0
 643 365 614.5 338 610 309.5 c 0
481 114.5 m 0
 491.5 193.5 574 237 645 236.5 c 0
 714.5 236.5 784 193 773.5 113.5 c 0
 763 41 687 -9 610.5 -8.5 c 0
 536 -8 470.5 41.5 481 114.5 c 0
568 126.5 m 0
 563 92.5 583.5 64.5 616.5 63.5 c 0
 650.5 62.5 686 91.5 691 127.5 c 0
 695.5 158 675.5 187.5 643 188.5 c 0
 609.5 189.5 573.5 158.5 568 126.5 c 0
EndSplineSet
EndChar

StartChar: uni2074
Encoding: 8308 8308 168
Width: 402
VWidth: 0
Flags: HMW
LayerCount: 2
Fore
SplineSet
50.5 358 m 1
 129.5 421.5 l 1
 309 422.5 l 1
 320.5 431.5 l 1
 423 431.5 l 1
 410 357.5 l 1
 50.5 358 l 1
145.5 379.5 m 1
 47.5 356 l 1
 342.5 699 l 1
 404.5 699.5 l 1
 332.5 280.5 l 1
 243.5 280.5 l 1
 260.5 379 l 1
 268.5 385 l 1
 298 555.5 l 1
 145.5 379.5 l 1
EndSplineSet
EndChar

StartChar: uni2075
Encoding: 8309 8309 169
Width: 366
VWidth: 0
Flags: HMW
LayerCount: 2
Fore
SplineSet
385.5 412.5 m 0
 373 322 288.5 272 205.5 271.5 c 0
 137 271 90.5 299 54.5 336 c 1
 102.5 403 l 1
 127.5 374.5 159.5 351.5 196 351 c 0
 243 350.5 288 377.5 294 422 c 0
 299.5 463.5 267 488.5 226.5 490.5 c 0
 188 492.5 148 480.5 107 462 c 1
 169 508.5 l 1
 201 536.5 240 552.5 281 552 c 0
 353 550.5 395.5 488 385.5 412.5 c 0
256 622 m 1
 202.5 510.5 l 1
 101 457 l 1
 201.5 697.5 l 1
 427.5 697.5 l 1
 414.5 622.5 l 1
 256 622 l 1
EndSplineSet
EndChar

StartChar: uni2076
Encoding: 8310 8310 170
Width: 361
VWidth: 0
Flags: HMW
LayerCount: 2
Fore
SplineSet
153.5 422.5 m 0
 148 382 170 346 212.5 345 c 0
 256 343.5 296.5 381 303 423.5 c 0
 308.5 464 287.5 500 245 501.5 c 0
 201.5 503 160 465 153.5 422.5 c 0
278.5 696 m 1
 392 696 l 1
 234 540.5 l 1
 215.5 535.5 l 1
 236 551 256 558.5 282.5 558.5 c 0
 351 558.5 397 494.5 388 422.5 c 0
 376 331 295.5 269.5 206.5 269.5 c 0
 118 269.5 56 333 69 423.5 c 0
 75.5 465.5 100 501.5 127.5 531.5 c 1
 278.5 696 l 1
EndSplineSet
EndChar

StartChar: uni2077
Encoding: 8311 8311 171
Width: 360
VWidth: 0
Flags: HMW
LayerCount: 2
Fore
SplineSet
101.5 618.5 m 1
 115.5 699.5 l 1
 438.5 699.5 l 1
 170 281 l 1
 75 281 l 1
 294.5 618 l 1
 101.5 618.5 l 1
EndSplineSet
EndChar

StartChar: uni2078
Encoding: 8312 8312 172
Width: 339
VWidth: 0
Flags: HMW
LayerCount: 2
Fore
SplineSet
113 599.5 m 0
 122.5 665.5 190 709 259.5 708.5 c 0
 327.5 708 385.5 665 376 598.5 c 0
 367 529 296.5 488 229 488.5 c 0
 162.5 489 103.5 529.5 113 599.5 c 0
192 589.5 m 0
 188.5 563 203.5 538.5 231 537 c 0
 259 535.5 290 563 294 591 c 0
 297.5 618 283 642 254.5 643.5 c 0
 225 645 196.5 618 192 589.5 c 0
63.5 394.5 m 0
 74 473.5 155.5 517 226.5 516.5 c 0
 296 516.5 366.5 473 356 393.5 c 0
 345.5 321 269 271 192.5 271.5 c 0
 118 272 53 321.5 63.5 394.5 c 0
150.5 406.5 m 0
 145.5 372.5 165 344.5 198 343.5 c 0
 232 342.5 268 371.5 273 407.5 c 0
 277.5 438 257.5 467.5 225 468.5 c 0
 191.5 469.5 156 438.5 150.5 406.5 c 0
EndSplineSet
EndChar

StartChar: uni2079
Encoding: 8313 8313 173
Width: 359
VWidth: 0
Flags: HMW
LayerCount: 2
Fore
SplineSet
329 557.5 m 0
 334.5 598 313 634 270.5 635 c 0
 227 636.5 185.5 599 179 556.5 c 0
 173.5 516 195.5 480 238 478.5 c 0
 281.5 477 322.5 515 329 557.5 c 0
204.5 284 m 1
 91 284 l 1
 248.5 439.5 l 1
 267 444.5 l 1
 246.5 429 226.5 421 200 421.5 c 0
 131.5 422 86 485.5 95 557.5 c 0
 107 649 187.5 710.5 276.5 710.5 c 0
 365 710.5 426.5 647 413.5 556.5 c 0
 407 514.5 382.5 478.5 355 448.5 c 1
 204.5 284 l 1
EndSplineSet
EndChar

StartChar: uni2070
Encoding: 8304 8304 174
Width: 373
VWidth: 0
Flags: HMW
LayerCount: 2
Fore
SplineSet
161.5 490 m 0
 154.5 428.5 158 351 216.5 349 c 0
 276 347 316 422 325.5 490 c 0
 332.5 551.5 330 629 271.5 631 c 0
 212 633 171 558 161.5 490 c 0
77.5 490 m 0
 92.5 605.5 169.5 707.5 276.5 707 c 0
 387.5 706.5 423 600 409.5 490 c 0
 394 374 320 272.5 211 273 c 0
 102 273.5 64 380 77.5 490 c 0
EndSplineSet
EndChar

StartChar: uni2080
Encoding: 8320 8320 175
Width: 373
VWidth: 0
Flags: HMW
LayerCount: 2
Fore
SplineSet
113.5 210 m 0
 106.5 148.5 110 71 168.5 69 c 0
 228 67 268 142 277.5 210 c 0
 284.5 271.5 282 349 223.5 351 c 0
 164 353 123 278 113.5 210 c 0
30 210 m 0
 45 325.5 122 427.5 229 427 c 0
 340 426.5 375 320 361.5 210 c 0
 346 94 272 -7.5 163 -7 c 0
 54 -6.5 16.5 100 30 210 c 0
EndSplineSet
EndChar

StartChar: uni2084
Encoding: 8324 8324 176
Width: 405
VWidth: 0
Flags: HMW
LayerCount: 2
Fore
SplineSet
1.5 78 m 1
 81.5 141.5 l 1
 260 142.5 l 1
 272 151.5 l 1
 374.5 151.5 l 1
 361 77.5 l 1
 1.5 78 l 1
97 99.5 m 1
 -1 76 l 1
 294 419 l 1
 356 419.5 l 1
 284 0 l 1
 194.5 0 l 1
 211.5 99 l 1
 220 105 l 1
 249.5 275.5 l 1
 97 99.5 l 1
EndSplineSet
EndChar

StartChar: uni2085
Encoding: 8325 8325 177
Width: 372
VWidth: 0
Flags: HMW
LayerCount: 2
Fore
SplineSet
339.5 132.5 m 0
 327 42 243 -8 160 -8.5 c 0
 91.5 -9 44.5 19 8.5 56 c 1
 57 123 l 1
 82 94.5 114 71.5 150.5 71 c 0
 197.5 70.5 242.5 97.5 248.5 142 c 0
 254 183.5 221.5 208.5 181 210.5 c 0
 142.5 212.5 103 200.5 62 182 c 1
 123 228.5 l 1
 155 256.5 194.5 272.5 235.5 272 c 0
 307.5 270.5 349.5 208 339.5 132.5 c 0
210.5 342 m 1
 156.5 230.5 l 1
 56 177 l 1
 156 417.5 l 1
 382.5 417.5 l 1
 369 342.5 l 1
 210.5 342 l 1
EndSplineSet
EndChar

StartChar: uni2086
Encoding: 8326 8326 178
Width: 369
VWidth: 0
Flags: HMW
LayerCount: 2
Fore
SplineSet
107.5 142.5 m 0
 102 102 124 66 166.5 65 c 0
 210 63.5 251 101 257.5 143.5 c 0
 263 184 242 220 199.5 221.5 c 0
 156 223 114 185 107.5 142.5 c 0
233 416 m 1
 346.5 416 l 1
 188.5 260.5 l 1
 170 255.5 l 1
 190.5 271 210 278.5 236.5 278.5 c 0
 305 278.5 351 214.5 342 142.5 c 0
 330 51 250 -10.5 161 -10.5 c 0
 72.5 -10.5 10 53 23 143.5 c 0
 29.5 185.5 54.5 221.5 82 251.5 c 1
 233 416 l 1
EndSplineSet
EndChar

StartChar: uni2087
Encoding: 8327 8327 179
Width: 364
VWidth: 0
Flags: HMW
LayerCount: 2
Fore
SplineSet
56.5 338.5 m 1
 70.5 419.5 l 1
 394 419.5 l 1
 125 0 l 1
 29.5 0 l 1
 249.5 338 l 1
 56.5 338.5 l 1
EndSplineSet
EndChar

StartChar: uni2088
Encoding: 8328 8328 180
Width: 343
VWidth: 0
Flags: HMW
LayerCount: 2
Fore
SplineSet
68 319.5 m 0
 77.5 385.5 145 429 214.5 428.5 c 0
 282.5 428 341 385 331.5 318.5 c 0
 322.5 249 251.5 208 184 208.5 c 0
 117.5 209 58.5 249.5 68 319.5 c 0
147.5 309.5 m 0
 144 283 159 258.5 186.5 257 c 0
 214.5 255.5 245 283 249 311 c 0
 252.5 338 238 362 209.5 363.5 c 0
 180 365 152 338 147.5 309.5 c 0
18.5 114.5 m 0
 29 193.5 110.5 237 181.5 236.5 c 0
 251 236.5 321.5 193 311 113.5 c 0
 300.5 41 224 -9 147.5 -8.5 c 0
 73 -8 8 41.5 18.5 114.5 c 0
105.5 126.5 m 0
 100.5 92.5 120.5 64.5 153.5 63.5 c 0
 187.5 62.5 223.5 91.5 228.5 127.5 c 0
 233 158 212.5 187.5 180 188.5 c 0
 146.5 189.5 111 158.5 105.5 126.5 c 0
EndSplineSet
EndChar

StartChar: uni2089
Encoding: 8329 8329 181
Width: 371
VWidth: 0
Flags: HMW
LayerCount: 2
Fore
SplineSet
277.5 277.5 m 0
 283 318 261.5 354 219 355 c 0
 175.5 356.5 134 319 127.5 276.5 c 0
 122 236 144 200 186.5 198.5 c 0
 230 197 271 235 277.5 277.5 c 0
153 4 m 1
 39.5 4 l 1
 197.5 159.5 l 1
 216 164.5 l 1
 195.5 149 175.5 141 149 141.5 c 0
 80.5 142 34.5 205.5 43.5 277.5 c 0
 55.5 369 136 430.5 225 430.5 c 0
 313.5 430.5 375.5 367 362.5 276.5 c 0
 356 234.5 331.5 198.5 304 168.5 c 1
 153 4 l 1
EndSplineSet
EndChar

StartChar: uni2081
Encoding: 8321 8321 182
Width: 337
VWidth: 0
Flags: HMW
LayerCount: 2
Fore
SplineSet
112 310.5 m 1
 125.5 389.5 l 1
 315.5 429 l 1
 241.5 1.5 l 1
 157.5 1.5 l 1
 213.5 335 l 1
 112 310.5 l 1
EndSplineSet
EndChar

StartChar: uni2082
Encoding: 8322 8322 183
Width: 380
VWidth: 0
Flags: HMW
LayerCount: 2
Fore
SplineSet
-3 3 m 1
 215.5 201 l 2
 246.5 230 278.5 258 284.5 295 c 0
 288.5 323 274 352.5 238 354 c 0
 192.5 356.5 161.5 313 151.5 270.5 c 1
 66 271 l 1
 83.5 356.5 145.5 430 245.5 429.5 c 0
 333 429 383.5 365 372.5 296.5 c 0
 365.5 251 334 214 298 183.5 c 2
 177 83 l 1
 343 82 l 1
 329.5 2.5 l 1
 -3 3 l 1
EndSplineSet
EndChar

StartChar: uni2083
Encoding: 8323 8323 184
Width: 343
VWidth: 0
Flags: HMW
LayerCount: 2
Fore
SplineSet
156.5 205 m 1
 163 246 l 1
 206 250 246 271 252.5 308 c 0
 256 333.5 242.5 355 212.5 356 c 0
 178.5 357 154 331 145 303.5 c 1
 64 304 l 1
 80.5 373 136.5 426.5 218 426.5 c 0
 294.5 426 348 377.5 337.5 311.5 c 0
 325 236.5 240 208 156.5 205 c 1
147 -8.5 m 0
 57 -8 11.5 52.5 15.5 127 c 1
 99 127 l 1
 99 91 115 65.5 154 64 c 0
 190 63 226 88 231 123 c 0
 239 166.5 199 183.5 152 187 c 1
 159.5 232.5 l 1
 246 229.5 328.5 200 315.5 113 c 0
 305 39 231.5 -9 147 -8.5 c 0
EndSplineSet
EndChar

StartChar: Agrave
Encoding: 192 192 185
Width: 691
VWidth: 0
Flags: HMW
LayerCount: 2
Fore
SplineSet
167 156.5 m 1
 202.5 271 l 1
 532.5 271.5 l 1
 528 156 l 1
 167 156.5 l 1
402 470.5 m 1
 259.5 230 l 1
 257.5 197.5 l 1
 135.5 0 l 1
 -30 0 l 1
 445 744 l 1
 664 0 l 1
 506 0 l 1
 451 191.5 l 1
 460 228.5 l 1
 402 470.5 l 1
333.5 954 m 1
 440.5 1000.5 l 1
 561.5 838.5 l 1
 486 802 l 1
 333.5 954 l 1
EndSplineSet
EndChar

StartChar: Aacute
Encoding: 193 193 186
Width: 691
VWidth: 0
Flags: HMW
LayerCount: 2
Fore
SplineSet
167 156.5 m 1
 202.5 271 l 1
 532.5 271.5 l 1
 528 156 l 1
 167 156.5 l 1
402 470.5 m 1
 259.5 230 l 1
 257.5 197.5 l 1
 135.5 0 l 1
 -30 0 l 1
 445 744 l 1
 664 0 l 1
 506 0 l 1
 451 191.5 l 1
 460 228.5 l 1
 402 470.5 l 1
628.5 949 m 1
 430.5 802.5 l 1
 361 843 l 1
 531.5 999.5 l 1
 628.5 949 l 1
EndSplineSet
EndChar

StartChar: Acircumflex
Encoding: 194 194 187
Width: 691
VWidth: 0
Flags: HMW
LayerCount: 2
Fore
SplineSet
167 156.5 m 1
 202.5 271 l 1
 532.5 271.5 l 1
 528 156 l 1
 167 156.5 l 1
402 470.5 m 1
 259.5 230 l 1
 257.5 197.5 l 1
 135.5 0 l 1
 -30 0 l 1
 445 744 l 1
 664 0 l 1
 506 0 l 1
 451 191.5 l 1
 460 228.5 l 1
 402 470.5 l 1
470.5 867 m 1
 362 780 l 1
 281 844.5 l 1
 483.5 982 l 1
 645 839.5 l 1
 549 779.5 l 1
 470.5 867 l 1
EndSplineSet
EndChar

StartChar: Atilde
Encoding: 195 195 188
Width: 691
VWidth: 0
Flags: HMW
LayerCount: 2
Fore
SplineSet
167 156.5 m 1
 202.5 271 l 1
 532.5 271.5 l 1
 528 156 l 1
 167 156.5 l 1
402 470.5 m 1
 259.5 230 l 1
 257.5 197.5 l 1
 135.5 0 l 1
 -30 0 l 1
 445 744 l 1
 664 0 l 1
 506 0 l 1
 451 191.5 l 1
 460 228.5 l 1
 402 470.5 l 1
281 850 m 1
 301.5 895.5 348 940 405.5 938.5 c 0
 459.5 937.5 476.5 888 525.5 889.5 c 0
 552.5 890.5 576 914 597 939.5 c 1
 651.5 873 l 1
 626.5 836.5 575 791.5 518 793.5 c 0
 470 795 441.5 846 396.5 843.5 c 0
 362 842 348.5 811.5 340 793.5 c 1
 281 850 l 1
EndSplineSet
EndChar

StartChar: Adieresis
Encoding: 196 196 189
Width: 691
VWidth: 0
Flags: HMW
LayerCount: 2
Fore
SplineSet
167 156.5 m 1
 202.5 271 l 1
 532.5 271.5 l 1
 528 156 l 1
 167 156.5 l 1
402 470.5 m 1
 259.5 230 l 1
 257.5 197.5 l 1
 135.5 0 l 1
 -30 0 l 1
 445 744 l 1
 664 0 l 1
 506 0 l 1
 451 191.5 l 1
 460 228.5 l 1
 402 470.5 l 1
510 837 m 0
 515 877 556.5 910.5 597 909.5 c 0
 638.5 908.5 669 875.5 664 834.5 c 0
 659 794.5 617.5 761 577 762 c 0
 535.5 763 505 796 510 837 c 0
255.5 841 m 0
 260.5 881 302.5 915 343 914 c 0
 384.5 913 415.5 880 410.5 839 c 0
 405.5 799 363 765 322.5 766 c 0
 281 767 250.5 800 255.5 841 c 0
EndSplineSet
EndChar

StartChar: Aring
Encoding: 197 197 190
Width: 691
VWidth: 0
Flags: HMW
LayerCount: 2
Fore
SplineSet
167 156.5 m 1
 202.5 271 l 1
 532.5 271.5 l 1
 528 156 l 1
 167 156.5 l 1
402 470.5 m 1
 259.5 230 l 1
 257.5 197.5 l 1
 135.5 0 l 1
 -30 0 l 1
 445 744 l 1
 664 0 l 1
 506 0 l 1
 451 191.5 l 1
 460 228.5 l 1
 402 470.5 l 1
339.5 801 m 0
 348 863.5 408 911 471 910.5 c 0
 534 910 580.5 861.5 572 799 c 0
 563.5 736.5 502.5 688.5 439.5 689 c 0
 376.5 689.5 331 738.5 339.5 801 c 0
409 799 m 0
 406 774.5 421.5 753 444.5 751.5 c 0
 468.5 750 499 774.5 502 800.5 c 0
 505 825 489 847 466 848.5 c 0
 442 850 412 825 409 799 c 0
EndSplineSet
EndChar

StartChar: AE
Encoding: 198 198 191
Width: 1018
VWidth: 0
Flags: HMW
LayerCount: 2
Fore
SplineSet
247.5 167.5 m 1
 275.5 301 l 1
 569 301 l 1
 545.5 167.5 l 1
 247.5 167.5 l 1
519.5 700 m 1
 643.5 657.5 l 1
 161.5 0 l 1
 -18 0 l 1
 519.5 700 l 1
558.5 0 m 1
 579.5 122.5 l 1
 946.5 122.5 l 1
 925 0 l 1
 558.5 0 l 1
669 577.5 m 1
 519.5 700 l 1
 1044.5 700 l 1
 1023.5 577.5 l 1
 669 577.5 l 1
611.5 311 m 1
 632 431 l 1
 979.5 431 l 1
 958.5 310.5 l 1
 611.5 311 l 1
607.5 699.5 m 1
 760.5 700 l 1
 640 0 l 1
 489 0 l 1
 607.5 699.5 l 1
EndSplineSet
EndChar

StartChar: Ccedilla
Encoding: 199 199 192
Width: 675
VWidth: 0
Flags: HMW
LayerCount: 2
Fore
SplineSet
221 350 m 0
 202 228 272.5 127 395 125.5 c 0
 489 124.5 563 169.5 621.5 220 c 1
 597 57.5 l 1
 533.5 13 465.5 -15 373 -14.5 c 0
 163 -14 36.5 150.5 66 350 c 0
 97.5 557.5 274 714 488.5 714.5 c 0
 577 715 638 689 694 641.5 c 1
 669 479 l 1
 627 536 566 574.5 480 574.5 c 0
 355.5 574 243 478.5 221 350 c 0
332.5 50 m 1
 430.5 48 l 1
 329.5 -70.5 l 1
 337.5 -69 347 -68.5 355.5 -68.5 c 0
 398.5 -71.5 434 -106.5 427.5 -159.5 c 0
 419 -224.5 352.5 -262 292 -263 c 0
 244.5 -263.5 207.5 -249.5 169 -223 c 1
 218 -165 l 1
 238.5 -180 261 -189.5 284 -189.5 c 0
 311 -189.5 342 -174.5 344.5 -151.5 c 0
 347 -128 320.5 -120 297 -119.5 c 0
 278.5 -118.5 247 -124 218.5 -134.5 c 1
 332.5 50 l 1
EndSplineSet
EndChar

StartChar: Egrave
Encoding: 200 200 193
Width: 570
VWidth: 0
Flags: HMW
LayerCount: 2
Fore
SplineSet
136.5 0 m 1
 158 122.5 l 1
 503 122.5 l 1
 481.5 0 l 1
 136.5 0 l 1
235.5 577.5 m 1
 256.5 700 l 1
 601 700 l 1
 580 577.5 l 1
 235.5 577.5 l 1
189.5 311 m 1
 210.5 431 l 1
 536 431 l 1
 515 310.5 l 1
 189.5 311 l 1
164.5 699.5 m 1
 304.5 700 l 1
 184 0 l 1
 46 0 l 1
 164.5 699.5 l 1
273 931 m 1
 380.5 978.5 l 1
 501 816 l 1
 425.5 779 l 1
 273 931 l 1
EndSplineSet
EndChar

StartChar: Eacute
Encoding: 201 201 194
Width: 570
VWidth: 0
Flags: HMW
LayerCount: 2
Fore
SplineSet
136.5 0 m 1
 158 122.5 l 1
 503 122.5 l 1
 481.5 0 l 1
 136.5 0 l 1
235.5 577.5 m 1
 256.5 700 l 1
 601 700 l 1
 580 577.5 l 1
 235.5 577.5 l 1
189.5 311 m 1
 210.5 431 l 1
 536 431 l 1
 515 310.5 l 1
 189.5 311 l 1
164.5 699.5 m 1
 304.5 700 l 1
 184 0 l 1
 46 0 l 1
 164.5 699.5 l 1
568.5 926 m 1
 371 780 l 1
 300.5 820.5 l 1
 471.5 977.5 l 1
 568.5 926 l 1
EndSplineSet
EndChar

StartChar: Ecircumflex
Encoding: 202 202 195
Width: 570
VWidth: 0
Flags: HMW
LayerCount: 2
Fore
SplineSet
136.5 0 m 1
 158 122.5 l 1
 503 122.5 l 1
 481.5 0 l 1
 136.5 0 l 1
235.5 577.5 m 1
 256.5 700 l 1
 601 700 l 1
 580 577.5 l 1
 235.5 577.5 l 1
189.5 311 m 1
 210.5 431 l 1
 536 431 l 1
 515 310.5 l 1
 189.5 311 l 1
164.5 699.5 m 1
 304.5 700 l 1
 184 0 l 1
 46 0 l 1
 164.5 699.5 l 1
422 877.5 m 1
 298 783.5 l 1
 252.5 825.5 l 1
 429.5 963.5 l 1
 565 821.5 l 1
 512 783.5 l 1
 422 877.5 l 1
EndSplineSet
EndChar

StartChar: Edieresis
Encoding: 203 203 196
Width: 570
VWidth: 0
Flags: HMW
LayerCount: 2
Fore
SplineSet
136.5 0 m 1
 158 122.5 l 1
 503 122.5 l 1
 481.5 0 l 1
 136.5 0 l 1
235.5 577.5 m 1
 256.5 700 l 1
 601 700 l 1
 580 577.5 l 1
 235.5 577.5 l 1
189.5 311 m 1
 210.5 431 l 1
 536 431 l 1
 515 310.5 l 1
 189.5 311 l 1
164.5 699.5 m 1
 304.5 700 l 1
 184 0 l 1
 46 0 l 1
 164.5 699.5 l 1
450.5 861 m 0
 455.5 901 497.5 934.5 538 933.5 c 0
 579.5 932.5 609.5 900 604.5 859 c 0
 599.5 819 558 785 517.5 786 c 0
 476 787 445.5 820 450.5 861 c 0
226 861 m 0
 231 901 272.5 934.5 313 933.5 c 0
 354.5 932.5 385 900 380 859 c 0
 375 819 333.5 785 293 786 c 0
 251.5 787 221 820 226 861 c 0
EndSplineSet
EndChar

StartChar: Igrave
Encoding: 204 204 197
Width: 289
VWidth: 0
Flags: HMW
LayerCount: 2
Fore
SplineSet
164.5 699.5 m 1
 310.5 700 l 1
 190 0 l 1
 46 0 l 1
 164.5 699.5 l 1
124 931 m 1
 231 978.5 l 1
 351.5 816 l 1
 276 779 l 1
 124 931 l 1
EndSplineSet
EndChar

StartChar: Iacute
Encoding: 205 205 198
Width: 289
VWidth: 0
Flags: HMW
LayerCount: 2
Fore
SplineSet
164.5 699.5 m 1
 310.5 700 l 1
 190 0 l 1
 46 0 l 1
 164.5 699.5 l 1
418.5 926 m 1
 220.5 779.5 l 1
 151.5 820.5 l 1
 322 977.5 l 1
 418.5 926 l 1
EndSplineSet
EndChar

StartChar: Icircumflex
Encoding: 206 206 199
Width: 289
VWidth: 0
Flags: HMW
LayerCount: 2
Fore
SplineSet
164.5 699.5 m 1
 310.5 700 l 1
 190 0 l 1
 46 0 l 1
 164.5 699.5 l 1
266.5 877.5 m 1
 142.5 783.5 l 1
 97.5 825.5 l 1
 274.5 963.5 l 1
 409.5 821.5 l 1
 357 783.5 l 1
 266.5 877.5 l 1
EndSplineSet
EndChar

StartChar: Idieresis
Encoding: 207 207 200
Width: 289
VWidth: 0
Flags: HMW
LayerCount: 2
Fore
SplineSet
164.5 699.5 m 1
 310.5 700 l 1
 190 0 l 1
 46 0 l 1
 164.5 699.5 l 1
298 850 m 0
 303 890 344.5 923.5 385 922.5 c 0
 426.5 921.5 457.5 888.5 452.5 847.5 c 0
 447.5 807.5 405.5 774 365 775 c 0
 323.5 776 293 809 298 850 c 0
74 850 m 0
 79 890 119.5 923.5 160 922.5 c 0
 201.5 921.5 233 888.5 228 847.5 c 0
 223 807.5 180.5 774 140 775 c 0
 98.5 776 69 809 74 850 c 0
EndSplineSet
EndChar

StartChar: Ntilde
Encoding: 209 209 201
Width: 764
VWidth: 0
Flags: HMW
LayerCount: 2
Fore
SplineSet
647 700 m 1
 785.5 700 l 1
 660 -33.5 l 1
 258 426.272 l 1
 184 0 l 1
 44.5 0 l 1
 170.5 733.5 l 1
 572.5 273.2665 l 1
 647 700 l 1
293 827.5 m 1
 313.5 873 359.5 918 417 916.5 c 0
 471 915.5 488.5 865.5 537.5 867 c 0
 564.5 868 587.5 892.5 608.5 918 c 1
 663 851 l 1
 638 814.5 587 769 530 771 c 0
 482 772.5 453 823.5 408 821 c 0
 373.5 819.5 360.5 789 352 771 c 1
 293 827.5 l 1
EndSplineSet
EndChar

StartChar: Eth
Encoding: 208 208 202
Width: 696
VWidth: 0
Flags: HMW
LayerCount: 2
Fore
SplineSet
29 305 m 1
 45.5 397.5 l 1
 374 397.5 l 1
 357.5 305 l 1
 29 305 l 1
164.5 699.5 m 1
 312.5 700 l 1
 192 0 l 1
 46 0 l 1
 164.5 699.5 l 1
282.5 0 m 1
 136 0 l 1
 159 132 l 1
 292.5 132 l 1
 420.5 134.5 525.5 211 548.5 350 c 0
 569.5 483 499.5 565 374.5 568 c 1
 232.5 568.5 l 1
 256 700 l 1
 393 700 l 1
 604 697 726 550 696 350 c 0
 664.5 143.5 498.5 3 282.5 0 c 1
EndSplineSet
EndChar

StartChar: Ograve
Encoding: 210 210 203
Width: 788
VWidth: 0
Flags: HMW
LayerCount: 2
Fore
SplineSet
217.5 350 m 0
 199 232.5 255 122.5 383.5 121.5 c 0
 513.5 120.5 614.5 225.5 636 350 c 0
 654.5 467.5 599.5 577.5 470 578.5 c 0
 340 579.5 238.5 474.5 217.5 350 c 0
66 350 m 0
 97 554.5 273.5 715 484.5 714.5 c 0
 693 714 816 547 787.5 350 c 0
 756.5 145 582 -19.5 368 -19 c 0
 157.5 -18.5 37.5 153 66 350 c 0
389.5 931 m 1
 496.5 978.5 l 1
 617.5 816 l 1
 542 779 l 1
 389.5 931 l 1
EndSplineSet
EndChar

StartChar: Oacute
Encoding: 211 211 204
Width: 788
VWidth: 0
Flags: HMW
LayerCount: 2
Fore
SplineSet
217.5 350 m 0
 199 232.5 255 122.5 383.5 121.5 c 0
 513.5 120.5 614.5 225.5 636 350 c 0
 654.5 467.5 599.5 577.5 470 578.5 c 0
 340 579.5 238.5 474.5 217.5 350 c 0
66 350 m 0
 97 554.5 273.5 715 484.5 714.5 c 0
 693 714 816 547 787.5 350 c 0
 756.5 145 582 -19.5 368 -19 c 0
 157.5 -18.5 37.5 153 66 350 c 0
673.5 926 m 1
 475.5 780 l 1
 405.5 820.5 l 1
 576 977.5 l 1
 673.5 926 l 1
EndSplineSet
EndChar

StartChar: Ocircumflex
Encoding: 212 212 205
Width: 788
VWidth: 0
Flags: HMW
LayerCount: 2
Fore
SplineSet
217.5 350 m 0
 199 232.5 255 122.5 383.5 121.5 c 0
 513.5 120.5 614.5 225.5 636 350 c 0
 654.5 467.5 599.5 577.5 470 578.5 c 0
 340 579.5 238.5 474.5 217.5 350 c 0
66 350 m 0
 97 554.5 273.5 715 484.5 714.5 c 0
 693 714 816 547 787.5 350 c 0
 756.5 145 582 -19.5 368 -19 c 0
 157.5 -18.5 37.5 153 66 350 c 0
527.5 877.5 m 1
 403.5 783.5 l 1
 358 825.5 l 1
 535.5 963.5 l 1
 670.5 821.5 l 1
 618 783.5 l 1
 527.5 877.5 l 1
EndSplineSet
EndChar

StartChar: Otilde
Encoding: 213 213 206
Width: 788
VWidth: 0
Flags: HMW
LayerCount: 2
Fore
SplineSet
217.5 350 m 0
 199 232.5 255 122.5 383.5 121.5 c 0
 513.5 120.5 614.5 225.5 636 350 c 0
 654.5 467.5 599.5 577.5 470 578.5 c 0
 340 579.5 238.5 474.5 217.5 350 c 0
66 350 m 0
 97 554.5 273.5 715 484.5 714.5 c 0
 693 714 816 547 787.5 350 c 0
 756.5 145 582 -19.5 368 -19 c 0
 157.5 -18.5 37.5 153 66 350 c 0
350 834 m 1
 350.5 878.5 425.5 914 462 913.5 c 0
 514 912.5 527.5 866.5 574.5 868 c 0
 598 869 619 890.5 638.5 915 c 1
 679 870.5 l 1
 656.5 836.5 615.5 797.5 567 799.5 c 0
 520.5 801 499.5 846.5 457.5 845.5 c 0
 422 844.5 407 813.5 398.5 795.5 c 1
 350 834 l 1
EndSplineSet
EndChar

StartChar: Odieresis
Encoding: 214 214 207
Width: 788
VWidth: 0
Flags: HMW
LayerCount: 2
Fore
SplineSet
217.5 350 m 0
 199 232.5 255 122.5 383.5 121.5 c 0
 513.5 120.5 614.5 225.5 636 350 c 0
 654.5 467.5 599.5 577.5 470 578.5 c 0
 340 579.5 238.5 474.5 217.5 350 c 0
66 350 m 0
 97 554.5 273.5 715 484.5 714.5 c 0
 693 714 816 547 787.5 350 c 0
 756.5 145 582 -19.5 368 -19 c 0
 157.5 -18.5 37.5 153 66 350 c 0
547 850 m 0
 552 890 593.5 923.5 634 922.5 c 0
 675.5 921.5 706.5 888.5 701.5 847.5 c 0
 696.5 807.5 654.5 774 614 775 c 0
 572.5 776 542 809 547 850 c 0
322.5 850 m 0
 327.5 890 369.5 923.5 410 922.5 c 0
 451.5 921.5 482 888.5 477 847.5 c 0
 472 807.5 430.5 774 390 775 c 0
 348.5 776 317.5 809 322.5 850 c 0
EndSplineSet
EndChar

StartChar: Ugrave
Encoding: 217 217 208
Width: 658
VWidth: 0
Flags: HMW
LayerCount: 2
Fore
SplineSet
160.5 700 m 1
 303.5 700 l 1
 223 239 l 2
 214 170 238 109.5 317 108.5 c 0
 397 107.5 449 167 462.5 239.5 c 1
 542 700 l 1
 685 700 l 1
 605 230 l 2
 579.5 76.5 458.5 -23 303 -23 c 0
 151.5 -23 60 78.5 80 230 c 1
 160.5 700 l 1
312.5 926 m 1
 419.5 973.5 l 1
 540 811 l 1
 465 774.5 l 1
 312.5 926 l 1
EndSplineSet
EndChar

StartChar: Uacute
Encoding: 218 218 209
Width: 658
VWidth: 0
Flags: HMW
LayerCount: 2
Fore
SplineSet
160.5 700 m 1
 303.5 700 l 1
 223 239 l 2
 214 170 238 109.5 317 108.5 c 0
 397 107.5 449 167 462.5 239.5 c 1
 542 700 l 1
 685 700 l 1
 605 230 l 2
 579.5 76.5 458.5 -23 303 -23 c 0
 151.5 -23 60 78.5 80 230 c 1
 160.5 700 l 1
609 921.5 m 1
 411 775 l 1
 341.5 815.5 l 1
 512.5 972.5 l 1
 609 921.5 l 1
EndSplineSet
EndChar

StartChar: Ucircumflex
Encoding: 219 219 210
Width: 658
VWidth: 0
Flags: HMW
LayerCount: 2
Fore
SplineSet
160.5 700 m 1
 303.5 700 l 1
 223 239 l 2
 214 170 238 109.5 317 108.5 c 0
 397 107.5 449 167 462.5 239.5 c 1
 542 700 l 1
 685 700 l 1
 605 230 l 2
 579.5 76.5 458.5 -23 303 -23 c 0
 151.5 -23 60 78.5 80 230 c 1
 160.5 700 l 1
453 862 m 1
 344.5 774.5 l 1
 264 839 l 1
 466 976.5 l 1
 627.5 834.5 l 1
 531.5 774 l 1
 453 862 l 1
EndSplineSet
EndChar

StartChar: Udieresis
Encoding: 220 220 211
Width: 658
VWidth: 0
Flags: HMW
LayerCount: 2
Fore
SplineSet
160.5 700 m 1
 303.5 700 l 1
 223 239 l 2
 214 170 238 109.5 317 108.5 c 0
 397 107.5 449 167 462.5 239.5 c 1
 542 700 l 1
 685 700 l 1
 605 230 l 2
 579.5 76.5 458.5 -23 303 -23 c 0
 151.5 -23 60 78.5 80 230 c 1
 160.5 700 l 1
496 850 m 0
 501 890 542.5 923.5 583 922.5 c 0
 624.5 921.5 655 888.5 650 847.5 c 0
 645 807.5 603.5 774 563 775 c 0
 521.5 776 491 809 496 850 c 0
245 850 m 0
 250 890 292 923.5 332.5 922.5 c 0
 374 921.5 404.5 888.5 399.5 847.5 c 0
 394.5 807.5 352.5 774 312 775 c 0
 270.5 776 240 809 245 850 c 0
EndSplineSet
EndChar

StartChar: Yacute
Encoding: 221 221 212
Width: 612
VWidth: 0
Flags: HMW
LayerCount: 2
Fore
SplineSet
586 921.5 m 1
 388 775 l 1
 318.5 815.5 l 1
 489.5 972.5 l 1
 586 921.5 l 1
541 699.5 m 1
 708.5 699.5 l 1
 401 286 l 1
 352.5 0 l 1
 206.5 0 l 1
 258 293 l 1
 94 700 l 1
 254 700 l 1
 349.5 422 l 1
 541 699.5 l 1
EndSplineSet
EndChar

StartChar: agrave
Encoding: 224 224 213
Width: 585
VWidth: 0
Flags: HMW
LayerCount: 2
Fore
SplineSet
451.5 459.5 m 1
 580 460 l 1
 500 0 l 1
 373.5 0 l 1
 451.5 459.5 l 1
42.5 230 m 0
 61 366.5 171 470.5 295.5 470 c 0
 419 469.5 467 354.5 451 230 c 0
 433 98.5 344.5 -9 222 -9.5 c 0
 97.5 -10 25.5 99 42.5 230 c 0
177 230 m 0
 166.5 161.5 202 99.5 271 99 c 0
 335 98.5 398.5 157 410 230 c 0
 419.5 298.5 385 359 322.5 361 c 0
 252.5 363 189 302.5 177 230 c 0
212 682 m 1
 318.5 729.5 l 1
 439 567 l 1
 364 530 l 1
 212 682 l 1
EndSplineSet
Substitution2: "alt a" agrave.alt
EndChar

StartChar: aacute
Encoding: 225 225 214
Width: 585
VWidth: 0
Flags: HMW
LayerCount: 2
Fore
SplineSet
451.5 459.5 m 1
 580 460 l 1
 500 0.5 l 1
 373.5 0 l 1
 451.5 459.5 l 1
42.5 230 m 0
 61 366.5 171 470.5 295.5 470 c 0
 419 469.5 467 354.5 451 230 c 0
 433 98.5 344.5 -9 222 -9.5 c 0
 97.5 -10 25.5 99 42.5 230 c 0
177 230 m 0
 166.5 161.5 202 99.5 271 99 c 0
 335 98.5 398.5 157 410 230 c 0
 419.5 298.5 385 359 322.5 361 c 0
 252.5 363 189 302.5 177 230 c 0
510.5 677.5 m 1
 312.5 531 l 1
 243 571.5 l 1
 413.5 728.5 l 1
 510.5 677.5 l 1
EndSplineSet
Substitution2: "alt a" aacute.alt
EndChar

StartChar: acircumflex
Encoding: 226 226 215
Width: 585
VWidth: 0
Flags: HMW
LayerCount: 2
Fore
SplineSet
451.5 459.5 m 1
 580 460 l 1
 500 0 l 1
 373.5 0 l 1
 451.5 459.5 l 1
42.5 230 m 0
 61 366.5 171 470.5 295.5 470 c 0
 419 469.5 467 354.5 451 230 c 0
 433 98.5 344.5 -9 222 -9.5 c 0
 97.5 -10 25.5 99 42.5 230 c 0
177 230 m 0
 166.5 161.5 202 99.5 271 99 c 0
 335 98.5 398.5 157 410 230 c 0
 419.5 298.5 385 359 322.5 361 c 0
 252.5 363 189 302.5 177 230 c 0
378 618 m 1
 269 530.5 l 1
 189 595 l 1
 391 732.5 l 1
 552 590.5 l 1
 456.5 530 l 1
 378 618 l 1
EndSplineSet
Substitution2: "alt a" acircumflex.alt
EndChar

StartChar: atilde
Encoding: 227 227 216
Width: 585
VWidth: 0
Flags: HMW
LayerCount: 2
Fore
SplineSet
451.5 459.5 m 1
 580 460 l 1
 500 0 l 1
 373.5 0 l 1
 451.5 459.5 l 1
42.5 230 m 0
 61 366.5 171 470.5 295.5 470 c 0
 419 469.5 467 354.5 451 230 c 0
 433 98.5 344.5 -9 222 -9.5 c 0
 97.5 -10 25.5 99 42.5 230 c 0
177 230 m 0
 166.5 161.5 202 99.5 271 99 c 0
 335 98.5 398.5 157 410 230 c 0
 419.5 298.5 385 359 322.5 361 c 0
 252.5 363 189 302.5 177 230 c 0
191 589.5 m 1
 211.5 637 257.5 678 315.5 678 c 0
 369.5 678 386.5 627.5 436 629 c 0
 463 630 486 654 507 679.5 c 1
 561 612.5 l 1
 536 576 485 531.5 428 533.5 c 0
 380 535 351.5 586 306.5 583.5 c 0
 272 582 258.5 551.5 250 533.5 c 1
 191 589.5 l 1
EndSplineSet
Substitution2: "alt a" atilde.alt
EndChar

StartChar: adieresis
Encoding: 228 228 217
Width: 585
VWidth: 0
Flags: HMW
LayerCount: 2
Fore
SplineSet
451.5 459.5 m 1
 580 460 l 1
 500 0 l 1
 373.5 0 l 1
 451.5 459.5 l 1
42.5 230 m 0
 61 366.5 171 470.5 295.5 470 c 0
 419 469.5 467 354.5 451 230 c 0
 433 98.5 344.5 -9 222 -9.5 c 0
 97.5 -10 25.5 99 42.5 230 c 0
177 230 m 0
 166.5 161.5 202 99.5 271 99 c 0
 335 98.5 398.5 157 410 230 c 0
 419.5 298.5 385 359 322.5 361 c 0
 252.5 363 189 302.5 177 230 c 0
403 605.5 m 0
 408 645.5 450 679.5 490.5 678.5 c 0
 532 677.5 562.5 644.5 557.5 603.5 c 0
 552.5 563.5 510.5 529.5 470 530.5 c 0
 428.5 531.5 398 564.5 403 605.5 c 0
178.5 605.5 m 0
 183.5 645.5 225.5 679.5 266 678.5 c 0
 307.5 677.5 338 644.5 333 603.5 c 0
 328 563.5 286 529.5 245.5 530.5 c 0
 204 531.5 173.5 564.5 178.5 605.5 c 0
EndSplineSet
Substitution2: "alt a" adieresis.alt
EndChar

StartChar: aring
Encoding: 229 229 218
Width: 585
VWidth: 0
Flags: HMW
LayerCount: 2
Fore
SplineSet
451.5 459.5 m 1
 580 460 l 1
 500 0 l 1
 373.5 0 l 1
 451.5 459.5 l 1
42.5 230 m 0
 61 366.5 171 470.5 295.5 470 c 0
 419 469.5 467 354.5 451 230 c 0
 433 98.5 344.5 -9 222 -9.5 c 0
 97.5 -10 25.5 99 42.5 230 c 0
177 230 m 0
 166.5 161.5 202 99.5 271 99 c 0
 335 98.5 398.5 157 410 230 c 0
 419.5 298.5 385 359 322.5 361 c 0
 252.5 363 189 302.5 177 230 c 0
244 642 m 0
 252.5 704.5 312 752.5 375 752 c 0
 438 751.5 484.5 702.5 476 640 c 0
 467.5 577.5 407 530 344 530.5 c 0
 281 531 235.5 579.5 244 642 c 0
313.5 640.5 m 0
 310.5 616 326 593 349 592.5 c 0
 373 592 403 616 406 642 c 0
 409 666.5 393.5 689.5 370.5 690 c 0
 346 690.5 316.5 666.5 313.5 640.5 c 0
EndSplineSet
Substitution2: "alt a" aring.alt
EndChar

StartChar: germandbls
Encoding: 223 223 219
Width: 568
VWidth: 0
Flags: HMW
LayerCount: 2
Fore
SplineSet
260.5 109.5 m 1
 341 116.5 411.5 166.5 426 249 c 0
 441 325 384 373 292.5 378 c 1
 306.5 468.5 l 1
 456.5 463.5 574.5 372 552 224.5 c 0
 528.5 74 397.5 -4.5 242.5 -9.5 c 1
 260.5 109.5 l 1
298.5 416.5 m 1
 311.5 498 l 1
 386.5 502 435.5 532.5 445.5 587.5 c 0
 453 637 425 674 366 674.5 c 0
 311 675 268 644 259.5 592.5 c 2
 157.5 0 l 1
 31 0 l 1
 134.5 606.5 l 2
 153.5 721 258.5 794 379.5 794 c 0
 509 794 591 717.5 574 605.5 c 0
 553.5 478.5 444.5 420 298.5 416.5 c 1
EndSplineSet
EndChar

StartChar: ae
Encoding: 230 230 220
Width: 849
VWidth: 0
Flags: HMW
LayerCount: 2
Fore
SplineSet
149 136.5 m 0
 143.5 100.5 170 82.5 209 81.5 c 0
 274 79.5 321.5 119 337 184 c 1
 393 128.5 l 1
 371 39.5 292.5 -9.5 184 -9.5 c 0
 83.5 -9.5 5 37 18.5 127.5 c 0
 32.5 225.5 128.5 280.5 234 280.5 c 0
 298.5 280.5 351 256 379.5 228 c 1
 369.5 164.5 l 1
 335 191 301 205 253.5 204.5 c 0
 202 204 156 180 149 136.5 c 0
142.5 327.5 m 1
 109 419.5 l 1
 164 446 233 472.5 309.5 472 c 0
 415 471 457.5 417 445.5 325.5 c 1
 413 130.5 l 1
 328.5 130.5 l 1
 359.5 299 l 1
 364 339 336 367.5 291 369.5 c 0
 232.5 372 176.5 344.5 142.5 327.5 c 1
410.5 201.5 m 1
 423 280.5 l 1
 820 281 l 1
 824 201 l 1
 410.5 201.5 l 1
697.5 245.5 m 2
 705.5 311.5 695 375 623 377 c 0
 553.5 379 503.5 323 489.5 255.5 c 1
 482.5 230 l 1
 472 153 496.5 92.5 569 90 c 0
 624.5 88.5 668 118.5 699 155 c 1
 809.5 118.5 l 1
 752 42.5 674.5 -10.5 558.5 -9.5 c 0
 412.5 -8 357.5 101.5 379 230 c 0
 382.5 247 390 263 396 279 c 0
 434 387 523.5 470 651.5 469.5 c 0
 782 469 847 364.5 831.5 236 c 0
 830 226 827 214.5 824.5 201.5 c 1
 693 221.5 l 1
 697.5 245.5 l 2
EndSplineSet
EndChar

StartChar: ccedilla
Encoding: 231 231 221
Width: 474
VWidth: 0
Flags: HMW
LayerCount: 2
Fore
SplineSet
172.5 230 m 0
 161 158.5 201 100 274.5 98.5 c 0
 335.5 97 392 129.5 427.5 169.5 c 1
 407.5 36.5 l 1
 368 8.5 316.5 -9.5 255 -9.5 c 0
 113.5 -9 20.5 94.5 40 230 c 0
 60.5 369.5 183.5 469 328.5 469.5 c 0
 387.5 469.5 435.5 452.5 471.5 424 c 1
 450.5 290 l 1
 428 334.5 381.5 362.5 327.5 362 c 0
 252.5 361.5 185.5 302.5 172.5 230 c 0
216.5 59 m 1
 314.5 57 l 1
 213.5 -61.5 l 1
 221.5 -60 231 -59.5 239.5 -59.5 c 0
 282.5 -62.5 317.5 -97.5 311 -150.5 c 0
 302.5 -215.5 236 -253 175.5 -254 c 0
 128 -254.5 91.5 -240.5 53 -214 c 1
 102.5 -156 l 1
 123 -171 145 -180.5 168 -180.5 c 0
 195 -180.5 226.5 -165 229 -142 c 0
 231.5 -118.5 204.5 -111 181 -110.5 c 0
 162.5 -109.5 131 -115.5 102.5 -126 c 1
 216.5 59 l 1
EndSplineSet
EndChar

StartChar: egrave
Encoding: 232 232 222
Width: 540
VWidth: 0
Flags: HMW
LayerCount: 2
Fore
SplineSet
113 201.5 m 1
 125.5 280.5 l 1
 390 281 l 1
 390 334 372.5 375.5 313 377 c 0
 243.5 379 193.5 322.5 179.5 255.5 c 1
 172.5 230 l 1
 162 153 187 92.5 259 90 c 0
 314.5 88.5 359 118.5 390 155 c 1
 499.5 118.5 l 1
 441.5 42 366 -10 249.5 -9.5 c 0
 103 -8.5 24.5 97.5 43 230 c 0
 45.5 247 49 263 54.5 279 c 0
 90.5 391 191 470 323.5 469.5 c 0
 469 469 538.5 371 521.5 236 c 0
 520 226 518 214.5 515.5 201.5 c 1
 113 201.5 l 1
211.5 688 m 1
 318.5 735 l 1
 439 573 l 1
 364 536 l 1
 211.5 688 l 1
EndSplineSet
EndChar

StartChar: eacute
Encoding: 233 233 223
Width: 540
VWidth: 0
Flags: HMW
LayerCount: 2
Fore
SplineSet
113 201.5 m 1
 125.5 280.5 l 1
 390 281 l 1
 390 334 372.5 375.5 313 377 c 0
 243.5 379 193.5 322.5 179.5 255.5 c 1
 172.5 230 l 1
 162 153 187 92.5 259 90 c 0
 314.5 88.5 359 118.5 390 155 c 1
 499.5 118.5 l 1
 441.5 42 366 -10 249.5 -9.5 c 0
 103 -8.5 24.5 97.5 43 230 c 0
 45.5 247 49 263 54.5 279 c 0
 90.5 391 191 470 323.5 469.5 c 0
 469 469 538.5 371 521.5 236 c 0
 520 226 518 214.5 515.5 201.5 c 1
 113 201.5 l 1
530 683 m 1
 332 536.5 l 1
 262 577.5 l 1
 432.5 734.5 l 1
 530 683 l 1
EndSplineSet
EndChar

StartChar: ecircumflex
Encoding: 234 234 224
Width: 540
VWidth: 0
Flags: HMW
LayerCount: 2
Fore
SplineSet
113 201.5 m 1
 125.5 280.5 l 1
 390 281 l 1
 390 334 372.5 375.5 313 377 c 0
 243.5 379 193.5 322.5 179.5 255.5 c 1
 172.5 230 l 1
 162 153 187 92.5 259 90 c 0
 314.5 88.5 359 118.5 390 155 c 1
 499.5 118.5 l 1
 441.5 42 366 -10 249.5 -9.5 c 0
 103 -8.5 24.5 97.5 43 230 c 0
 45.5 247 49 263 54.5 279 c 0
 90.5 391 191 470 323.5 469.5 c 0
 469 469 538.5 371 521.5 236 c 0
 520 226 518 214.5 515.5 201.5 c 1
 113 201.5 l 1
356.5 618 m 1
 247.5 530.5 l 1
 167 595 l 1
 369.5 732.5 l 1
 530.5 590.5 l 1
 435 530 l 1
 356.5 618 l 1
EndSplineSet
EndChar

StartChar: edieresis
Encoding: 235 235 225
Width: 540
VWidth: 0
Flags: HMW
LayerCount: 2
Fore
SplineSet
113 201.5 m 1
 125.5 280.5 l 1
 390 281 l 1
 390 334 372.5 375.5 313 377 c 0
 243.5 379 193.5 322.5 179.5 255.5 c 1
 172.5 230 l 1
 162 153 187 92.5 259 90 c 0
 314.5 88.5 359 118.5 390 155 c 1
 499.5 118.5 l 1
 441.5 42 366 -10 249.5 -9.5 c 0
 103 -8.5 24.5 97.5 43 230 c 0
 45.5 247 49 263 54.5 279 c 0
 90.5 391 191 470 323.5 469.5 c 0
 469 469 538.5 371 521.5 236 c 0
 520 226 518 214.5 515.5 201.5 c 1
 113 201.5 l 1
386 605.5 m 0
 391 645.5 432.5 679.5 473 678.5 c 0
 514.5 677.5 545.5 644.5 540.5 603.5 c 0
 535.5 563.5 493.5 529.5 453 530.5 c 0
 411.5 531.5 381 564.5 386 605.5 c 0
161.5 605.5 m 0
 166.5 645.5 208 679.5 248.5 678.5 c 0
 290 677.5 321 644.5 316 603.5 c 0
 311 563.5 268.5 529.5 228 530.5 c 0
 186.5 531.5 156.5 564.5 161.5 605.5 c 0
EndSplineSet
EndChar

StartChar: igrave
Encoding: 236 236 226
Width: 263
VWidth: 0
Flags: HMW
LayerCount: 2
Fore
SplineSet
119.5 459.5 m 1
 247 460 l 1
 167 0 l 1
 41.5 0 l 1
 119.5 459.5 l 1
53 693.5 m 1
 160 740.5 l 1
 281 578 l 1
 205 541.5 l 1
 53 693.5 l 1
EndSplineSet
EndChar

StartChar: dotlessi
Encoding: 305 305 227
Width: 263
VWidth: 0
Flags: HMW
LayerCount: 2
Fore
SplineSet
119.5 459.5 m 1
 247 460 l 1
 167 0 l 1
 41.5 0 l 1
 119.5 459.5 l 1
EndSplineSet
EndChar

StartChar: kgreenlandic
Encoding: 312 312 228
Width: 521
VWidth: 0
Flags: HMW
LayerCount: 2
Fore
SplineSet
109 459.5 m 1
 235.5 460 l 1
 156 0 l 1
 31.5 0 l 1
 109 459.5 l 1
393.5 459.5 m 1
 554 459.5 l 1
 325 267 l 1
 489 0 l 1
 341.5 0 l 1
 173 273.5 l 1
 393.5 459.5 l 1
EndSplineSet
EndChar

StartChar: iacute
Encoding: 237 237 229
Width: 263
VWidth: 0
Flags: HMW
LayerCount: 2
Fore
SplineSet
119.5 459.5 m 1
 247 460 l 1
 167 0 l 1
 41.5 0 l 1
 119.5 459.5 l 1
387 688.5 m 1
 189.5 542.5 l 1
 119 582.5 l 1
 290 739.5 l 1
 387 688.5 l 1
EndSplineSet
EndChar

StartChar: icircumflex
Encoding: 238 238 230
Width: 263
VWidth: 0
Flags: HMW
LayerCount: 2
Fore
SplineSet
119.5 459.5 m 1
 247 460 l 1
 167 0 l 1
 41.5 0 l 1
 119.5 459.5 l 1
214 623 m 1
 105 536 l 1
 25 600.5 l 1
 227 738.5 l 1
 388 596 l 1
 292.5 536 l 1
 214 623 l 1
EndSplineSet
EndChar

StartChar: idieresis
Encoding: 239 239 231
Width: 263
VWidth: 0
Flags: HMW
LayerCount: 2
Fore
SplineSet
119.5 459.5 m 1
 247 460 l 1
 167 0 l 1
 41.5 0 l 1
 119.5 459.5 l 1
246 622.5 m 0
 251 662.5 292.5 696 333 695 c 0
 374.5 694 405 661 400 620 c 0
 395 580 353.5 546.5 313 547.5 c 0
 271.5 548.5 241 581.5 246 622.5 c 0
21.5 622.5 m 0
 26.5 662.5 68 696 108.5 695 c 0
 150 694 181 661 176 620 c 0
 171 580 129 546.5 88.5 547.5 c 0
 47 548.5 16.5 581.5 21.5 622.5 c 0
EndSplineSet
EndChar

StartChar: ntilde
Encoding: 241 241 232
Width: 543
VWidth: 0
Flags: HMW
LayerCount: 2
Fore
SplineSet
242.5 460 m 1
 163.5 0 l 1
 33 0 l 1
 112.5 460 l 1
 242.5 460 l 1
371.5 280 m 1
 377 329 369 369.5 316.5 372 c 0
 261.5 374.5 224 329.5 211.5 281 c 1
 178.5 276.5 l 1
 197.5 377.5 263.5 469.5 373.5 470 c 0
 480.5 470.5 518.5 395.5 506 294.5 c 1
 455.5 0 l 1
 322.5 0 l 1
 371.5 280 l 1
163.5 590 m 1
 184 635.5 229.5 679.5 287 678 c 0
 341 677 358.5 627.5 407.5 629 c 0
 434.5 630 457.5 654 478.5 679.5 c 1
 533 612.5 l 1
 507.5 576 456 531.5 399 533.5 c 0
 351 535 323.5 586 278.5 583.5 c 0
 244 582 229.5 551.5 221 533.5 c 1
 163.5 590 l 1
EndSplineSet
EndChar

StartChar: ograve
Encoding: 242 242 233
Width: 559
VWidth: 0
Flags: HMW
LayerCount: 2
Fore
SplineSet
42.5 230 m 0
 63 368 185 470 328.5 470 c 0
 469 470 561.5 364.5 542 230 c 0
 521.5 92 399 -9.5 255.5 -9.5 c 0
 115 -9.5 23 95.5 42.5 230 c 0
175 230 m 0
 164.5 163.5 197.5 102 266.5 101 c 0
 336.5 100 397.5 159.5 409.5 230 c 0
 420 296.5 386.5 358 317.5 359 c 0
 247.5 360 187 300.5 175 230 c 0
215.5 693.5 m 1
 322.5 740.5 l 1
 443 578 l 1
 368 541.5 l 1
 215.5 693.5 l 1
EndSplineSet
EndChar

StartChar: oacute
Encoding: 243 243 234
Width: 559
VWidth: 0
Flags: HMW
LayerCount: 2
Fore
SplineSet
42.5 230 m 0
 63 368 185 470 328.5 470 c 0
 469 470 561.5 364.5 542 230 c 0
 521.5 92 399 -9.5 255.5 -9.5 c 0
 115 -9.5 23 95.5 42.5 230 c 0
175 230 m 0
 164.5 163.5 197.5 102 266.5 101 c 0
 336.5 100 397.5 159.5 409.5 230 c 0
 420 296.5 386.5 358 317.5 359 c 0
 247.5 360 187 300.5 175 230 c 0
527 688.5 m 1
 329.5 542.5 l 1
 259.5 582.5 l 1
 430.5 739.5 l 1
 527 688.5 l 1
EndSplineSet
EndChar

StartChar: ocircumflex
Encoding: 244 244 235
Width: 559
VWidth: 0
Flags: HMW
LayerCount: 2
Fore
SplineSet
42.5 230 m 0
 63 368 185 470 328.5 470 c 0
 469 470 561.5 364.5 542 230 c 0
 521.5 92 399 -9.5 255.5 -9.5 c 0
 115 -9.5 23 95.5 42.5 230 c 0
175 230 m 0
 164.5 163.5 197.5 102 266.5 101 c 0
 336.5 100 397.5 159.5 409.5 230 c 0
 420 296.5 386.5 358 317.5 359 c 0
 247.5 360 187 300.5 175 230 c 0
363.5 629 m 1
 255 542 l 1
 174.5 606.5 l 1
 376.5 744 l 1
 538 602 l 1
 442 541.5 l 1
 363.5 629 l 1
EndSplineSet
EndChar

StartChar: otilde
Encoding: 245 245 236
Width: 559
VWidth: 0
Flags: HMW
LayerCount: 2
Fore
SplineSet
42.5 230 m 0
 63 368 185 470 328.5 470 c 0
 469 470 561.5 364.5 542 230 c 0
 521.5 92 399 -9.5 255.5 -9.5 c 0
 115 -9.5 23 95.5 42.5 230 c 0
175 230 m 0
 164.5 163.5 197.5 102 266.5 101 c 0
 336.5 100 397.5 159.5 409.5 230 c 0
 420 296.5 386.5 358 317.5 359 c 0
 247.5 360 187 300.5 175 230 c 0
170.5 589.5 m 1
 171 637 249 678.5 294.5 678 c 0
 348.5 677 365.5 627.5 415 629 c 0
 442 630 465 654 486 679.5 c 1
 540.5 612.5 l 1
 515.5 576 465 531.5 408 533.5 c 0
 360 535 330.5 586 285.5 583.5 c 0
 251 582 238 551.5 229.5 533.5 c 1
 170.5 589.5 l 1
EndSplineSet
EndChar

StartChar: odieresis
Encoding: 246 246 237
Width: 559
VWidth: 0
Flags: HMW
LayerCount: 2
Fore
SplineSet
42.5 230 m 0
 63 368 185 470 328.5 470 c 0
 469 470 561.5 364.5 542 230 c 0
 521.5 92 399 -9.5 255.5 -9.5 c 0
 115 -9.5 23 95.5 42.5 230 c 0
175 230 m 0
 164.5 163.5 197.5 102 266.5 101 c 0
 336.5 100 397.5 159.5 409.5 230 c 0
 420 296.5 386.5 358 317.5 359 c 0
 247.5 360 187 300.5 175 230 c 0
394 622.5 m 0
 399 662.5 441 696 481.5 695 c 0
 523 694 553.5 661 548.5 620 c 0
 543.5 580 501.5 546.5 461 547.5 c 0
 419.5 548.5 389 581.5 394 622.5 c 0
170 622.5 m 0
 175 662.5 216.5 696 257 695 c 0
 298.5 694 328.5 661 323.5 620 c 0
 318.5 580 277 546.5 236.5 547.5 c 0
 195 548.5 165 581.5 170 622.5 c 0
EndSplineSet
EndChar

StartChar: ugrave
Encoding: 249 249 238
Width: 543
VWidth: 0
Flags: HMW
LayerCount: 2
Fore
SplineSet
326 0 m 1
 405.5 460 l 1
 535 460 l 1
 456 0 l 1
 326 0 l 1
197 180 m 1
 191.5 131 199 90.5 251.5 88 c 0
 306.5 85.5 345 130.5 357.5 179 c 1
 390 183.5 l 1
 371 82.5 304.5 -9.5 194.5 -10 c 0
 87.5 -10.5 50 64.5 62.5 165.5 c 1
 113 460 l 1
 246 459.5 l 1
 197 180 l 1
229 693.5 m 1
 336 740.5 l 1
 456.5 578 l 1
 381 541.5 l 1
 229 693.5 l 1
EndSplineSet
EndChar

StartChar: uacute
Encoding: 250 250 239
Width: 543
VWidth: 0
Flags: HMW
LayerCount: 2
Fore
SplineSet
326 0 m 1
 405.5 460 l 1
 535 460 l 1
 456 0 l 1
 326 0 l 1
197 180 m 1
 191.5 131 199 90.5 251.5 88 c 0
 306.5 85.5 345 130.5 357.5 179 c 1
 390 183.5 l 1
 371 82.5 304.5 -9.5 194.5 -10 c 0
 87.5 -10.5 50 64.5 62.5 165.5 c 1
 113 460 l 1
 246 459.5 l 1
 197 180 l 1
497 688.5 m 1
 299.5 542 l 1
 230 582.5 l 1
 401 739.5 l 1
 497 688.5 l 1
EndSplineSet
EndChar

StartChar: ucircumflex
Encoding: 251 251 240
Width: 543
VWidth: 0
Flags: HMW
LayerCount: 2
Fore
SplineSet
326 0 m 1
 405.5 460 l 1
 535 460 l 1
 456 0 l 1
 326 0 l 1
197 180 m 1
 191.5 131 199 90.5 251.5 88 c 0
 306.5 85.5 345 130.5 357.5 179 c 1
 390 183.5 l 1
 371 82.5 304.5 -9.5 194.5 -10 c 0
 87.5 -10.5 50 64.5 62.5 165.5 c 1
 113 460 l 1
 246 459.5 l 1
 197 180 l 1
355.5 629 m 1
 246.5 542 l 1
 165.5 606.5 l 1
 368.5 744 l 1
 529.5 602 l 1
 433.5 541.5 l 1
 355.5 629 l 1
EndSplineSet
EndChar

StartChar: udieresis
Encoding: 252 252 241
Width: 543
VWidth: 0
Flags: HMW
LayerCount: 2
Fore
SplineSet
326 0 m 1
 405.5 460 l 1
 535 460 l 1
 456 0 l 1
 326 0 l 1
197 180 m 1
 191.5 131 199 90.5 251.5 88 c 0
 306.5 85.5 345 130.5 357.5 179 c 1
 390 183.5 l 1
 371 82.5 304.5 -9.5 194.5 -10 c 0
 87.5 -10.5 50 64.5 62.5 165.5 c 1
 113 460 l 1
 246 459.5 l 1
 197 180 l 1
386 617 m 0
 391 657 431.5 690 472 689 c 0
 513.5 688 545 655.5 540 614.5 c 0
 535 574.5 492.5 541 452 542 c 0
 410.5 543 381 576 386 617 c 0
161.5 617 m 0
 166.5 657 207.5 690 248 689 c 0
 289.5 688 320.5 655.5 315.5 614.5 c 0
 310.5 574.5 268.5 541 228 542 c 0
 186.5 543 156.5 576 161.5 617 c 0
EndSplineSet
EndChar

StartChar: yacute
Encoding: 253 253 242
Width: 482
VWidth: 0
Flags: HMW
LayerCount: 2
Fore
SplineSet
545 459.5 m 1
 136.5 -219.5 l 1
 0.5 -219.5 l 1
 162 48.5 l 1
 45.5 460 l 1
 186.5 460 l 1
 267.5 93 l 1
 202.5 96 l 1
 406.5 459.5 l 1
 545 459.5 l 1
481.5 688.5 m 1
 283.5 542.5 l 1
 214 582.5 l 1
 384.5 739.5 l 1
 481.5 688.5 l 1
EndSplineSet
EndChar

StartChar: thorn
Encoding: 254 254 243
Width: 585
VWidth: 0
Flags: HMW
LayerCount: 2
Fore
SplineSet
123.5 -219.5 m 1
 -7.5 -220 l 1
 164.5 780 l 1
 294 779.5 l 1
 123.5 -219.5 l 1
567 230 m 0
 548.5 93.5 439.5 -10.5 315 -10 c 0
 191.5 -9.5 142 105.5 158 230 c 0
 176 361.5 265.5 469 388 469.5 c 0
 512.5 470 584 361 567 230 c 0
433 230 m 0
 443.5 298.5 408 360.5 339 361 c 0
 275 361.5 210.5 303 199 230 c 0
 189.5 161.5 225 101 287.5 99 c 0
 357.5 97 421 157.5 433 230 c 0
EndSplineSet
EndChar

StartChar: ydieresis
Encoding: 255 255 244
Width: 482
VWidth: 0
Flags: HMW
LayerCount: 2
Fore
SplineSet
545 459.5 m 1
 136.5 -219.5 l 1
 0.5 -219.5 l 1
 162 48.5 l 1
 45.5 460 l 1
 186.5 460 l 1
 267.5 93 l 1
 202.5 96 l 1
 406.5 459.5 l 1
 545 459.5 l 1
353 605.5 m 0
 358 645.5 400 679.5 440.5 678.5 c 0
 482 677.5 512 644.5 507 603.5 c 0
 502 563.5 460.5 529.5 420 530.5 c 0
 378.5 531.5 348 564.5 353 605.5 c 0
128.5 605.5 m 0
 133.5 645.5 175 679.5 215.5 678.5 c 0
 257 677.5 288 644.5 283 603.5 c 0
 278 563.5 236 529.5 195.5 530.5 c 0
 154 531.5 123.5 564.5 128.5 605.5 c 0
EndSplineSet
EndChar

StartChar: Amacron
Encoding: 256 256 245
Width: 691
VWidth: 0
Flags: HMW
LayerCount: 2
Fore
SplineSet
167 156.5 m 1
 202.5 271 l 1
 532.5 271.5 l 1
 528 156 l 1
 167 156.5 l 1
402 470.5 m 1
 259.5 230 l 1
 257.5 197.5 l 1
 135.5 0 l 1
 -30 0 l 1
 445 744 l 1
 664 0 l 1
 506 0 l 1
 451 191.5 l 1
 460 228.5 l 1
 402 470.5 l 1
278 802 m 1
 298 917 l 1
 655 917 l 1
 635 802 l 1
 278 802 l 1
EndSplineSet
EndChar

StartChar: amacron
Encoding: 257 257 246
Width: 585
VWidth: 0
Flags: HMW
LayerCount: 2
Fore
SplineSet
451.5 459.5 m 1
 580 460 l 1
 500 0 l 1
 373.5 0 l 1
 451.5 459.5 l 1
42.5 230 m 0
 61 366.5 171 470.5 295.5 470 c 0
 419 469.5 467 354.5 451 230 c 0
 433 98.5 344.5 -9 222 -9.5 c 0
 97.5 -10 25.5 99 42.5 230 c 0
177 230 m 0
 166.5 161.5 202 99.5 271 99 c 0
 335 98.5 398.5 157 410 230 c 0
 419.5 298.5 385 359 322.5 361 c 0
 252.5 363 189 302.5 177 230 c 0
176.5 536 m 1
 196 651 l 1
 553.5 651 l 1
 533 535.5 l 1
 176.5 536 l 1
EndSplineSet
Substitution2: "alt a" amacron.alt
EndChar

StartChar: breve
Encoding: 728 728 247
Width: 529
VWidth: 0
Flags: HMW
LayerCount: 2
Fore
SplineSet
220 850 m 1
 307.5 850 l 1
 307.5 818 322 787.5 365 786.5 c 0
 409.5 785.5 435.5 818 445.5 849.5 c 1
 536.5 849 l 1
 519.5 770 458.5 706 360 706 c 0
 262.5 706 215.5 769.5 220 850 c 1
EndSplineSet
EndChar

StartChar: Abreve
Encoding: 258 258 248
Width: 691
VWidth: 0
Flags: HMW
LayerCount: 2
Fore
SplineSet
167 156.5 m 1
 202.5 271 l 1
 532.5 271.5 l 1
 528 156 l 1
 167 156.5 l 1
402 470.5 m 1
 259.5 230 l 1
 257.5 197.5 l 1
 135.5 0 l 1
 -30 0 l 1
 445 744 l 1
 664 0 l 1
 506 0 l 1
 451 191.5 l 1
 460 228.5 l 1
 402 470.5 l 1
321.5 946 m 1
 409.5 946 l 1
 409 914 422.5 884 465.5 883 c 0
 510 882 536 914.5 547 945.5 c 1
 638.5 945 l 1
 620 866 558 802.5 459.5 802.5 c 0
 361.5 802.5 316 866 321.5 946 c 1
EndSplineSet
EndChar

StartChar: abreve
Encoding: 259 259 249
Width: 585
VWidth: 0
Flags: HMW
LayerCount: 2
Fore
SplineSet
451.5 459.5 m 1
 580 460 l 1
 500 0 l 1
 373.5 0 l 1
 451.5 459.5 l 1
42.5 230 m 0
 61 366.5 171 470.5 295.5 470 c 0
 419 469.5 467 354.5 451 230 c 0
 433 98.5 344.5 -9 222 -9.5 c 0
 97.5 -10 25.5 99 42.5 230 c 0
177 230 m 0
 166.5 161.5 202 99.5 271 99 c 0
 335 98.5 398.5 157 410 230 c 0
 419.5 298.5 385 359 322.5 361 c 0
 252.5 363 189 302.5 177 230 c 0
199 674.5 m 1
 287.5 674.5 l 1
 287.5 642.5 300.5 612.5 343.5 611.5 c 0
 388 610.5 414.5 642.5 425 674 c 1
 516.5 673.5 l 1
 499 594.5 437 530.5 338.5 530.5 c 0
 241 530.5 194 594 199 674.5 c 1
EndSplineSet
Substitution2: "alt a" abreve.alt
EndChar

StartChar: Aogonek
Encoding: 260 260 250
Width: 691
VWidth: 0
Flags: HMW
LayerCount: 2
Fore
SplineSet
167 156.5 m 1
 202.5 271 l 1
 532.5 271.5 l 1
 528 156 l 1
 167 156.5 l 1
402 470.5 m 1
 259.5 230 l 1
 257.5 197.5 l 1
 135.5 0 l 1
 -30 0 l 1
 445 744 l 1
 664 0 l 1
 506 0 l 1
 451 191.5 l 1
 460 228.5 l 1
 402 470.5 l 1
614 -116.5 m 1
 637 -181.5 l 1
 614 -201.5 583 -219.5 538.5 -219.5 c 0
 473.5 -219.5 428.5 -181.5 437 -119.5 c 0
 447.5 -50.5 525 -8.5 591.5 24.5 c 1
 631 0 l 1
 586.5 -25 539.5 -56 532.5 -96 c 0
 530 -118.5 538 -134 561 -136 c 0
 581 -137.5 599.5 -127 614 -116.5 c 1
EndSplineSet
EndChar

StartChar: aogonek
Encoding: 261 261 251
Width: 585
VWidth: 0
Flags: HMW
LayerCount: 2
Fore
SplineSet
451.5 459.5 m 1
 580 460 l 1
 500 0.5 l 1
 373.5 0 l 1
 451.5 459.5 l 1
42.5 230 m 0
 61 366.5 171 470.5 295.5 470 c 0
 419 469.5 467 354.5 451 230 c 0
 433 98.5 344.5 -9 222 -9.5 c 0
 97.5 -10 25.5 99 42.5 230 c 0
177 230 m 0
 166.5 161.5 202 99.5 271 99 c 0
 335 98.5 398.5 157 410 230 c 0
 419.5 298.5 385 359 322.5 361 c 0
 252.5 363 189 302.5 177 230 c 0
461.5 -116.5 m 1
 484.5 -181.5 l 1
 461.5 -201.5 430.5 -219.5 386 -219.5 c 0
 321 -219.5 275.5 -181.5 284 -119.5 c 0
 294.5 -50.5 372.5 -8.5 439 24.5 c 1
 478.5 0 l 1
 434 -25 387.5 -56 380.5 -96 c 0
 378 -118.5 386 -134 409 -136 c 0
 429 -137.5 447 -127 461.5 -116.5 c 1
EndSplineSet
Substitution2: "alt a" aogonek.alt
EndChar

StartChar: Cacute
Encoding: 262 262 252
Width: 675
VWidth: 0
Flags: HMW
LayerCount: 2
Fore
SplineSet
221 350 m 0
 202 228 272.5 127 395 125.5 c 0
 489 124.5 563 169.5 621.5 220 c 1
 597 57.5 l 1
 533.5 13 465.5 -15 373 -14.5 c 0
 163 -14 36.5 150.5 66 350 c 0
 97.5 557.5 274 714 488.5 714.5 c 0
 577 715 638 689 694 641.5 c 1
 669 479 l 1
 627 536 566 574.5 480 574.5 c 0
 355.5 574 243 478.5 221 350 c 0
655.5 921.5 m 1
 458 775 l 1
 388 815.5 l 1
 559 972.5 l 1
 655.5 921.5 l 1
EndSplineSet
EndChar

StartChar: cacute
Encoding: 263 263 253
Width: 474
VWidth: 0
Flags: HMW
LayerCount: 2
Fore
SplineSet
172.5 230 m 0
 161 158.5 201 100 274.5 98.5 c 0
 335.5 97 392 129.5 427.5 169.5 c 1
 407.5 36.5 l 1
 368 8.5 316.5 -9.5 255 -9.5 c 0
 113.5 -9 20.5 94.5 40 230 c 0
 60.5 369.5 183.5 469 328.5 469.5 c 0
 387.5 469.5 435.5 452.5 471.5 424 c 1
 450.5 290 l 1
 428 334.5 381.5 362.5 327.5 362 c 0
 252.5 361.5 185.5 302.5 172.5 230 c 0
496 677.5 m 1
 298 531 l 1
 228 571.5 l 1
 398.5 728.5 l 1
 496 677.5 l 1
EndSplineSet
EndChar

StartChar: Ccircumflex
Encoding: 264 264 254
Width: 675
VWidth: 0
Flags: HMW
LayerCount: 2
Fore
SplineSet
221 350 m 0
 202 228 272.5 127 395 125.5 c 0
 489 124.5 563 169.5 621.5 220 c 1
 597 57.5 l 1
 533.5 13 465.5 -15 373 -14.5 c 0
 163 -14 36.5 150.5 66 350 c 0
 97.5 557.5 274 714 488.5 714.5 c 0
 577 715 638 689 694 641.5 c 1
 669 479 l 1
 627 536 566 574.5 480 574.5 c 0
 355.5 574 243 478.5 221 350 c 0
521.5 862 m 1
 412.5 774.5 l 1
 332 839 l 1
 534.5 976.5 l 1
 695.5 834.5 l 1
 600 774 l 1
 521.5 862 l 1
EndSplineSet
EndChar

StartChar: ccircumflex
Encoding: 265 265 255
Width: 474
VWidth: 0
Flags: HMW
LayerCount: 2
Fore
SplineSet
172.5 230 m 0
 161 158.5 201 100 274.5 98.5 c 0
 335.5 97 392 129.5 427.5 169.5 c 1
 407.5 36.5 l 1
 368 8.5 316.5 -9.5 255 -9.5 c 0
 113.5 -9 20.5 94.5 40 230 c 0
 60.5 369.5 183.5 469 328.5 469.5 c 0
 387.5 469.5 435.5 452.5 471.5 424 c 1
 450.5 290 l 1
 428 334.5 381.5 362.5 327.5 362 c 0
 252.5 361.5 185.5 302.5 172.5 230 c 0
340 618 m 1
 230.5 530.5 l 1
 150 595 l 1
 352.5 732.5 l 1
 513.5 590.5 l 1
 418.5 530 l 1
 340 618 l 1
EndSplineSet
EndChar

StartChar: Cdotaccent
Encoding: 266 266 256
Width: 675
VWidth: 0
Flags: HMW
LayerCount: 2
Fore
SplineSet
221 350 m 0
 202 228 272.5 127 395 125.5 c 0
 489 124.5 563 169.5 621.5 220 c 1
 597 57.5 l 1
 533.5 13 465.5 -15 373 -14.5 c 0
 163 -14 36.5 150.5 66 350 c 0
 97.5 557.5 274 714 488.5 714.5 c 0
 577 715 638 689 694 641.5 c 1
 669 479 l 1
 627 536 566 574.5 480 574.5 c 0
 355.5 574 243 478.5 221 350 c 0
421.5 850 m 0
 426.5 890 468 923.5 508.5 922.5 c 0
 550 921.5 581 888.5 576 847.5 c 0
 571 807.5 528.5 774 488 775 c 0
 446.5 776 416.5 809 421.5 850 c 0
EndSplineSet
EndChar

StartChar: cdotaccent
Encoding: 267 267 257
Width: 474
VWidth: 0
Flags: HMW
LayerCount: 2
Fore
SplineSet
172.5 230 m 0
 161 158.5 201 100 274.5 98.5 c 0
 335.5 97 392 129.5 427.5 169.5 c 1
 407.5 36.5 l 1
 368 8.5 316.5 -9.5 255 -9.5 c 0
 113.5 -9 20.5 94.5 40 230 c 0
 60.5 369.5 183.5 469 328.5 469.5 c 0
 387.5 469.5 435.5 452.5 471.5 424 c 1
 450.5 290 l 1
 428 334.5 381.5 362.5 327.5 362 c 0
 252.5 361.5 185.5 302.5 172.5 230 c 0
262 610.5 m 0
 267 650.5 309 684 349.5 683 c 0
 391 682 421.5 649 416.5 608 c 0
 411.5 568 369.5 534.5 329 535.5 c 0
 287.5 536.5 257 569.5 262 610.5 c 0
EndSplineSet
EndChar

StartChar: Ccaron
Encoding: 268 268 258
Width: 675
VWidth: 0
Flags: HMW
LayerCount: 2
Fore
SplineSet
221 350 m 0
 202 228 272.5 127 395 125.5 c 0
 489 124.5 563 169.5 621.5 220 c 1
 597 57.5 l 1
 533.5 13 465.5 -15 373 -14.5 c 0
 163 -14 36.5 150.5 66 350 c 0
 97.5 557.5 274 714 488.5 714.5 c 0
 577 715 638 689 694 641.5 c 1
 669 479 l 1
 627 536 566 574.5 480 574.5 c 0
 355.5 574 243 478.5 221 350 c 0
519.5 889.5 m 1
 628.5 976.5 l 1
 708.5 912 l 1
 506.5 774.5 l 1
 345 916.5 l 1
 441 977 l 1
 519.5 889.5 l 1
EndSplineSet
EndChar

StartChar: ccaron
Encoding: 269 269 259
Width: 474
VWidth: 0
Flags: HMW
LayerCount: 2
Fore
SplineSet
172.5 230 m 0
 161 158.5 201 100 274.5 98.5 c 0
 335.5 97 392 129.5 427.5 169.5 c 1
 407.5 36.5 l 1
 368 8.5 316.5 -9.5 255 -9.5 c 0
 113.5 -9 20.5 94.5 40 230 c 0
 60.5 369.5 183.5 469 328.5 469.5 c 0
 387.5 469.5 435.5 452.5 471.5 424 c 1
 450.5 290 l 1
 428 334.5 381.5 362.5 327.5 362 c 0
 252.5 361.5 185.5 302.5 172.5 230 c 0
338 645.5 m 1
 446.5 732.5 l 1
 527 668 l 1
 324.5 530 l 1
 163 672.5 l 1
 259 733 l 1
 338 645.5 l 1
EndSplineSet
EndChar

StartChar: Dcaron
Encoding: 270 270 260
Width: 696
VWidth: 0
Flags: HMW
LayerCount: 2
Fore
SplineSet
164.5 699.5 m 1
 312.5 700 l 1
 192 0 l 1
 46 0 l 1
 164.5 699.5 l 1
282.5 0 m 1
 136 0 l 1
 159 132 l 1
 292.5 132 l 1
 420.5 134.5 525.5 211 548.5 350 c 0
 569.5 483 499.5 565 374.5 568 c 1
 232.5 568.5 l 1
 256 700 l 1
 393 700 l 1
 604 697 726 550 696 350 c 0
 664.5 143.5 498.5 3 282.5 0 c 1
473 889.5 m 1
 582 976.5 l 1
 662 912 l 1
 460 774.5 l 1
 299.5 916.5 l 1
 394.5 977 l 1
 473 889.5 l 1
EndSplineSet
EndChar

StartChar: dcaron
Encoding: 271 271 261
Width: 585
VWidth: 0
Flags: HMW
LayerCount: 2
Fore
SplineSet
503.5 779.5 m 1
 634.5 780 l 1
 500 0 l 1
 371 0 l 1
 503.5 779.5 l 1
42.5 230 m 0
 61 366.5 171 470.5 295.5 470 c 0
 419 469.5 467.5 354.5 451.5 230 c 0
 433.5 98.5 344.5 -9 222 -9.5 c 0
 97.5 -10 25.5 99 42.5 230 c 0
177 230 m 0
 166.5 161.5 202 99.5 271 99 c 0
 335 98.5 399 157 410.5 230 c 0
 420 298.5 385 359 322.5 361 c 0
 252.5 363 189 302.5 177 230 c 0
744.5 779 m 1
 871.5 746 l 1
 711.5 499 l 1
 615.5 522.5 l 1
 744.5 779 l 1
EndSplineSet
EndChar

StartChar: Dcroat
Encoding: 272 272 262
Width: 696
VWidth: 0
Flags: HMW
LayerCount: 2
Fore
SplineSet
28.5 301 m 1
 44.5 394 l 1
 368.5 394 l 1
 352 301 l 1
 28.5 301 l 1
164.5 699.5 m 1
 312.5 700 l 1
 192 0 l 1
 46 0 l 1
 164.5 699.5 l 1
282.5 0 m 1
 136 0 l 1
 159 132 l 1
 292.5 132 l 1
 420.5 134.5 525.5 211 548.5 350 c 0
 569.5 483 499.5 565 374.5 568 c 1
 232.5 568.5 l 1
 256 700 l 1
 393 700 l 1
 604 697 726 550 696 350 c 0
 664.5 143.5 498.5 3 282.5 0 c 1
EndSplineSet
EndChar

StartChar: dcroat
Encoding: 273 273 263
Width: 585
VWidth: 0
Flags: HMW
LayerCount: 2
Fore
SplineSet
356 572 m 1
 372 665 l 1
 705 665 l 1
 688.5 572 l 1
 356 572 l 1
503.5 779.5 m 1
 634.5 780 l 1
 500 0 l 1
 371 0 l 1
 503.5 779.5 l 1
42.5 230 m 0
 61 366.5 171 470.5 295.5 470 c 0
 419 469.5 467.5 354.5 451.5 230 c 0
 433.5 98.5 344.5 -9 222 -9.5 c 0
 97.5 -10 25.5 99 42.5 230 c 0
177 230 m 0
 166.5 161.5 202 99.5 271 99 c 0
 335 98.5 399 157 410.5 230 c 0
 420 298.5 385 359 322.5 361 c 0
 252.5 363 189 302.5 177 230 c 0
EndSplineSet
EndChar

StartChar: Emacron
Encoding: 274 274 264
Width: 570
VWidth: 0
Flags: HMW
LayerCount: 2
Fore
SplineSet
136.5 0 m 1
 158 122.5 l 1
 503 122.5 l 1
 481.5 0 l 1
 136.5 0 l 1
235.5 577.5 m 1
 256.5 700 l 1
 601 700 l 1
 580 577.5 l 1
 235.5 577.5 l 1
189.5 311 m 1
 210.5 431 l 1
 536 431 l 1
 515 310.5 l 1
 189.5 311 l 1
164.5 699.5 m 1
 304.5 700 l 1
 184 0 l 1
 46 0 l 1
 164.5 699.5 l 1
217 774.5 m 1
 237 889.5 l 1
 594 889.5 l 1
 574 774.5 l 1
 217 774.5 l 1
EndSplineSet
EndChar

StartChar: emacron
Encoding: 275 275 265
Width: 540
VWidth: 0
Flags: HMW
LayerCount: 2
Fore
SplineSet
113 201.5 m 1
 125.5 280.5 l 1
 390 281 l 1
 390 334 372.5 375.5 313 377 c 0
 243.5 379 193.5 322.5 179.5 255.5 c 1
 172.5 230 l 1
 162 153 187 92.5 259 90 c 0
 314.5 88.5 359 118.5 390 155 c 1
 499.5 118.5 l 1
 441.5 42 366 -10 249.5 -9.5 c 0
 103 -8.5 24.5 97.5 43 230 c 0
 45.5 247 49 263 54.5 279 c 0
 90.5 391 191 470 323.5 469.5 c 0
 469 469 538.5 371 521.5 236 c 0
 520 226 518 214.5 515.5 201.5 c 1
 113 201.5 l 1
160 530.5 m 1
 180 645.5 l 1
 537.5 645.5 l 1
 517 530 l 1
 160 530.5 l 1
EndSplineSet
EndChar

StartChar: Ebreve
Encoding: 276 276 266
Width: 570
VWidth: 0
Flags: HMW
LayerCount: 2
Fore
SplineSet
136.5 0 m 1
 158 122.5 l 1
 503 122.5 l 1
 481.5 0 l 1
 136.5 0 l 1
235.5 577.5 m 1
 256.5 700 l 1
 601 700 l 1
 580 577.5 l 1
 235.5 577.5 l 1
189.5 311 m 1
 210.5 431 l 1
 536 431 l 1
 515 310.5 l 1
 189.5 311 l 1
164.5 699.5 m 1
 304.5 700 l 1
 184 0 l 1
 46 0 l 1
 164.5 699.5 l 1
260 919 m 1
 348.5 919 l 1
 348 887 361 856.5 404 855.5 c 0
 448.5 854.5 475 887.5 486 918.5 c 1
 578 918 l 1
 559.5 839 497 775 398.5 775 c 0
 300.5 775 254.5 839 260 919 c 1
EndSplineSet
EndChar

StartChar: ebreve
Encoding: 277 277 267
Width: 540
VWidth: 0
Flags: HMW
LayerCount: 2
Fore
SplineSet
113 201.5 m 1
 125.5 280.5 l 1
 390 281 l 1
 390 334 372.5 375.5 313 377 c 0
 243.5 379 193.5 322.5 179.5 255.5 c 1
 172.5 230 l 1
 162 153 187 92.5 259 90 c 0
 314.5 88.5 359 118.5 390 155 c 1
 499.5 118.5 l 1
 441.5 42 366 -10 249.5 -9.5 c 0
 103 -8.5 24.5 97.5 43 230 c 0
 45.5 247 49 263 54.5 279 c 0
 90.5 391 191 470 323.5 469.5 c 0
 469 469 538.5 371 521.5 236 c 0
 520 226 518 214.5 515.5 201.5 c 1
 113 201.5 l 1
203.5 675 m 1
 292 674.5 l 1
 291.5 642.5 305 612.5 348 611.5 c 0
 392.5 610.5 418 643.5 429 674.5 c 1
 521 674 l 1
 502.5 595.5 440.5 530.5 342 530.5 c 0
 244 530.5 198 595 203.5 675 c 1
EndSplineSet
EndChar

StartChar: Edotaccent
Encoding: 278 278 268
Width: 570
VWidth: 0
Flags: HMW
LayerCount: 2
Fore
SplineSet
136.5 0 m 1
 158 122.5 l 1
 503 122.5 l 1
 481.5 0 l 1
 136.5 0 l 1
235.5 577.5 m 1
 256.5 700 l 1
 601 700 l 1
 580 577.5 l 1
 235.5 577.5 l 1
189.5 311 m 1
 210.5 431 l 1
 536 431 l 1
 515 310.5 l 1
 189.5 311 l 1
164.5 699.5 m 1
 304.5 700 l 1
 184 0 l 1
 46 0 l 1
 164.5 699.5 l 1
330.5 850 m 0
 335.5 890 377 923.5 417.5 922.5 c 0
 459 921.5 490 888.5 485 847.5 c 0
 480 807.5 438 774 397.5 775 c 0
 356 776 325.5 809 330.5 850 c 0
EndSplineSet
EndChar

StartChar: edotaccent
Encoding: 279 279 269
Width: 540
VWidth: 0
Flags: HMW
LayerCount: 2
Fore
SplineSet
113 201.5 m 1
 125.5 280.5 l 1
 390 281 l 1
 390 334 372.5 375.5 313 377 c 0
 243.5 379 193.5 322.5 179.5 255.5 c 1
 172.5 230 l 1
 162 153 187 92.5 259 90 c 0
 314.5 88.5 359 118.5 390 155 c 1
 499.5 118.5 l 1
 441.5 42 366 -10 249.5 -9.5 c 0
 103 -8.5 24.5 97.5 43 230 c 0
 45.5 247 49 263 54.5 279 c 0
 90.5 391 191 470 323.5 469.5 c 0
 469 469 538.5 371 521.5 236 c 0
 520 226 518 214.5 515.5 201.5 c 1
 113 201.5 l 1
273.5 605.5 m 0
 278.5 645.5 320.5 679.5 361 678.5 c 0
 402.5 677.5 433 644.5 428 603.5 c 0
 423 563.5 381 529.5 340.5 530.5 c 0
 299 531.5 268.5 564.5 273.5 605.5 c 0
EndSplineSet
EndChar

StartChar: Eogonek
Encoding: 280 280 270
Width: 570
VWidth: 0
Flags: HMW
LayerCount: 2
Fore
SplineSet
136.5 0 m 1
 158 122.5 l 1
 503 122.5 l 1
 481.5 0 l 1
 136.5 0 l 1
235.5 577.5 m 1
 256.5 700 l 1
 601 700 l 1
 580 577.5 l 1
 235.5 577.5 l 1
189.5 311 m 1
 210.5 431 l 1
 536 431 l 1
 515 310.5 l 1
 189.5 311 l 1
164.5 699.5 m 1
 304.5 700 l 1
 184 0 l 1
 46 0 l 1
 164.5 699.5 l 1
330 -116.5 m 1
 352.5 -181.5 l 1
 329.5 -201.5 298.5 -219.5 254 -219.5 c 0
 189 -219.5 144 -181.5 152.5 -119.5 c 0
 163 -50.5 240.5 -8.5 307 24.5 c 1
 347 0 l 1
 302.5 -25 255.5 -56 248.5 -96 c 0
 246 -118.5 254 -134 277 -136 c 0
 297 -137.5 315.5 -127 330 -116.5 c 1
EndSplineSet
EndChar

StartChar: eogonek
Encoding: 281 281 271
Width: 540
VWidth: 0
Flags: HMW
LayerCount: 2
Fore
SplineSet
113 201.5 m 1
 125.5 280.5 l 1
 390 281 l 1
 390 334 372.5 375.5 313 377 c 0
 243.5 379 193.5 322.5 179.5 255.5 c 1
 172.5 230 l 1
 162 153 187 92.5 259 90 c 0
 314.5 88.5 359 118.5 390 155 c 1
 499.5 118.5 l 1
 441.5 42 366 -10 249.5 -9.5 c 0
 103 -8.5 24.5 97.5 43 230 c 0
 45.5 247 49 263 54.5 279 c 0
 90.5 391 191 470 323.5 469.5 c 0
 469 469 538.5 371 521.5 236 c 0
 520 226 518 214.5 515.5 201.5 c 1
 113 201.5 l 1
262.5 -111.5 m 1
 285.5 -176.5 l 1
 263 -196.5 231.5 -214.5 187 -214.5 c 0
 122 -214.5 76.5 -176 85 -114 c 0
 95.5 -45 173.5 -3 240 30 c 1
 279.5 3 l 1
 234 -19.5 188 -50.5 181 -90 c 0
 178.5 -112.5 186.5 -129 209.5 -131 c 0
 229.5 -132.5 248 -122 262.5 -111.5 c 1
EndSplineSet
EndChar

StartChar: Ecaron
Encoding: 282 282 272
Width: 570
VWidth: 0
Flags: HMW
LayerCount: 2
Fore
SplineSet
136.5 0 m 1
 158 122.5 l 1
 503 122.5 l 1
 481.5 0 l 1
 136.5 0 l 1
235.5 577.5 m 1
 256.5 700 l 1
 601 700 l 1
 580 577.5 l 1
 235.5 577.5 l 1
189.5 311 m 1
 210.5 431 l 1
 536 431 l 1
 515 310.5 l 1
 189.5 311 l 1
164.5 699.5 m 1
 304.5 700 l 1
 184 0 l 1
 46 0 l 1
 164.5 699.5 l 1
411 889.5 m 1
 520 976.5 l 1
 600.5 912 l 1
 398 774.5 l 1
 237.5 916.5 l 1
 333 977 l 1
 411 889.5 l 1
EndSplineSet
EndChar

StartChar: ecaron
Encoding: 283 283 273
Width: 540
VWidth: 0
Flags: HMW
LayerCount: 2
Fore
SplineSet
113 201.5 m 1
 125.5 280.5 l 1
 390 281 l 1
 390 334 372.5 375.5 313 377 c 0
 243.5 379 193.5 322.5 179.5 255.5 c 1
 172.5 230 l 1
 162 153 187 92.5 259 90 c 0
 314.5 88.5 359 118.5 390 155 c 1
 499.5 118.5 l 1
 441.5 42 366 -10 249.5 -9.5 c 0
 103 -8.5 24.5 97.5 43 230 c 0
 45.5 247 49 263 54.5 279 c 0
 90.5 391 191 470 323.5 469.5 c 0
 469 469 538.5 371 521.5 236 c 0
 520 226 518 214.5 515.5 201.5 c 1
 113 201.5 l 1
354.5 645.5 m 1
 463.5 732.5 l 1
 543.5 668 l 1
 341.5 530 l 1
 180.5 672.5 l 1
 276 733 l 1
 354.5 645.5 l 1
EndSplineSet
EndChar

StartChar: Gcircumflex
Encoding: 284 284 274
Width: 778
VWidth: 0
Flags: HMW
LayerCount: 2
Fore
SplineSet
419 259.5 m 1
 440 375 l 1
 776 374.5 l 1
 749.5 167 601 -19 372.5 -19 c 0
 160.5 -19 36.5 149.5 66 350 c 0
 98 559 277.5 714.5 493.5 714.5 c 0
 622.5 714.5 715.5 653 771 552.5 c 1
 640 482 l 1
 611.5 544.5 559.5 584 480 584 c 0
 349.5 585 238.5 482.5 216 350 c 0
 196.5 224.5 259 112 390.5 111 c 0
 500 110.5 573 179.5 615 260 c 1
 419 259.5 l 1
526.5 862 m 1
 417 774.5 l 1
 337 839 l 1
 539.5 976.5 l 1
 700 834.5 l 1
 605 774 l 1
 526.5 862 l 1
EndSplineSet
EndChar

StartChar: gcircumflex
Encoding: 285 285 275
Width: 580
VWidth: 0
Flags: HMW
LayerCount: 2
Fore
SplineSet
6.5 -32 m 1
 131 -32.5 l 1
 131 -89 161 -127.5 225.5 -128 c 0
 298 -129 358 -70.5 371.5 10 c 1
 449 460 l 1
 575 460 l 1
 498 10 l 2
 473.5 -143 361 -236 220 -236.5 c 0
 75 -237 2 -155 6.5 -32 c 1
43.5 234.5 m 0
 62 371 171.5 470.5 295.5 470 c 0
 418.5 469.5 468.5 359 452.5 234 c 0
 435 103 345.5 0 223.5 -0.5 c 0
 99.5 -1 26.5 103 43.5 234.5 c 0
178 234 m 0
 167.5 164.5 204.5 109 272.5 108 c 0
 336 107 400.5 162 411.5 234.5 c 0
 421 303.5 384.5 359 322.5 361 c 0
 253 363 189.5 306.5 178 234 c 0
376.5 618 m 1
 267 530.5 l 1
 186.5 595 l 1
 389.5 732.5 l 1
 550 590.5 l 1
 454 530 l 1
 376.5 618 l 1
EndSplineSet
EndChar

StartChar: Gbreve
Encoding: 286 286 276
Width: 778
VWidth: 0
Flags: HMW
LayerCount: 2
Fore
SplineSet
419 259.5 m 1
 440 375 l 1
 776 374.5 l 1
 749.5 167 601 -19 372.5 -19 c 0
 160.5 -19 36.5 149.5 66 350 c 0
 98 559 277.5 714.5 493.5 714.5 c 0
 622.5 714.5 715.5 653 771 552.5 c 1
 640 482 l 1
 611.5 544.5 559.5 584 480 584 c 0
 349.5 585 238.5 482.5 216 350 c 0
 196.5 224.5 259 112 390.5 111 c 0
 500 110.5 573 179.5 615 260 c 1
 419 259.5 l 1
373 919 m 1
 461.5 919 l 1
 461 887 474.5 856.5 517.5 855.5 c 0
 562 854.5 588 887.5 599 918.5 c 1
 690.5 918 l 1
 672 839 610.5 775 512 775 c 0
 414 775 367.5 839 373 919 c 1
EndSplineSet
EndChar

StartChar: gbreve
Encoding: 287 287 277
Width: 580
VWidth: 0
Flags: HMW
LayerCount: 2
Fore
SplineSet
6.5 -32 m 1
 131 -32.5 l 1
 131 -89 161 -127.5 225.5 -128 c 0
 298 -129 358 -70.5 371.5 10 c 1
 449 460 l 1
 575 460 l 1
 498 10 l 2
 473.5 -143 361 -236 220 -236.5 c 0
 75 -237 2 -155 6.5 -32 c 1
43.5 234.5 m 0
 62 371 171.5 470.5 295.5 470 c 0
 418.5 469.5 468.5 359 452.5 234 c 0
 435 103 345.5 0 223.5 -0.5 c 0
 99.5 -1 26.5 103 43.5 234.5 c 0
178 234 m 0
 167.5 164.5 204.5 109 272.5 108 c 0
 336 107 400.5 162 411.5 234.5 c 0
 421 303.5 384.5 359 322.5 361 c 0
 253 363 189.5 306.5 178 234 c 0
223.5 675 m 1
 311.5 674.5 l 1
 311 642.5 324.5 612.5 367.5 611.5 c 0
 412 610.5 437.5 643.5 448.5 674.5 c 1
 540.5 674 l 1
 522 595.5 460 530.5 361.5 530.5 c 0
 263.5 530.5 218 595 223.5 675 c 1
EndSplineSet
EndChar

StartChar: Gdotaccent
Encoding: 288 288 278
Width: 778
VWidth: 0
Flags: HMW
LayerCount: 2
Fore
SplineSet
419 259.5 m 1
 440 375 l 1
 776 374.5 l 1
 749.5 167 601 -19 372.5 -19 c 0
 160.5 -19 36.5 149.5 66 350 c 0
 98 559 277.5 714.5 493.5 714.5 c 0
 622.5 714.5 715.5 653 771 552.5 c 1
 640 482 l 1
 611.5 544.5 559.5 584 480 584 c 0
 349.5 585 238.5 482.5 216 350 c 0
 196.5 224.5 259 112 390.5 111 c 0
 500 110.5 573 179.5 615 260 c 1
 419 259.5 l 1
443.5 850 m 0
 448.5 890 490 923.5 530.5 922.5 c 0
 572 921.5 603 888.5 598 847.5 c 0
 593 807.5 551.5 774 511 775 c 0
 469.5 776 438.5 809 443.5 850 c 0
EndSplineSet
EndChar

StartChar: gdotaccent
Encoding: 289 289 279
Width: 580
VWidth: 0
Flags: HMW
LayerCount: 2
Fore
SplineSet
6.5 -32 m 1
 131 -32.5 l 1
 131 -89 161 -127.5 225.5 -128 c 0
 298 -129 358 -70.5 371.5 10 c 1
 449 460 l 1
 575 460 l 1
 498 10 l 2
 473.5 -143 361 -236 220 -236.5 c 0
 75 -237 2 -155 6.5 -32 c 1
43.5 234.5 m 0
 62 371 171.5 470.5 295.5 470 c 0
 418.5 469.5 468.5 359 452.5 234 c 0
 435 103 345.5 0 223.5 -0.5 c 0
 99.5 -1 26.5 103 43.5 234.5 c 0
178 234 m 0
 167.5 164.5 204.5 109 272.5 108 c 0
 336 107 400.5 162 411.5 234.5 c 0
 421 303.5 384.5 359 322.5 361 c 0
 253 363 189.5 306.5 178 234 c 0
294.5 628 m 0
 299.5 668 341.5 701.5 382 700.5 c 0
 423.5 699.5 454 666.5 449 625.5 c 0
 444 585.5 402.5 552 362 553 c 0
 320.5 554 289.5 587 294.5 628 c 0
EndSplineSet
EndChar

StartChar: uni0122
Encoding: 290 290 280
Width: 778
VWidth: 0
Flags: HMW
LayerCount: 2
Fore
SplineSet
419 259.5 m 1
 440 375 l 1
 776 374.5 l 1
 749.5 167 601 -19 372.5 -19 c 0
 160.5 -19 36.5 149.5 66 350 c 0
 98 559 277.5 714.5 493.5 714.5 c 0
 622.5 714.5 715.5 653 771 552.5 c 1
 640 482 l 1
 611.5 544.5 559.5 584 480 584 c 0
 349.5 585 238.5 482.5 216 350 c 0
 196.5 224.5 259 112 390.5 111 c 0
 500 110.5 573 179.5 615 260 c 1
 419 259.5 l 1
312.5 -80 m 1
 440 -113 l 1
 279.5 -360 l 1
 183.5 -336.5 l 1
 312.5 -80 l 1
EndSplineSet
EndChar

StartChar: Hcircumflex
Encoding: 292 292 281
Width: 743
VWidth: 0
Flags: HMW
LayerCount: 2
Fore
SplineSet
143.5 306.5 m 1
 166 438 l 1
 669 438 l 1
 646 306.5 l 1
 143.5 306.5 l 1
620.5 699.5 m 1
 765 700 l 1
 644 0 l 1
 502 0 l 1
 620.5 699.5 l 1
164.5 699.5 m 1
 308.5 700 l 1
 188 0 l 1
 46 0 l 1
 164.5 699.5 l 1
495.5 862 m 1
 386.5 774.5 l 1
 306.5 839 l 1
 508.5 976.5 l 1
 669.5 834.5 l 1
 574.5 774 l 1
 495.5 862 l 1
EndSplineSet
EndChar

StartChar: hcircumflex
Encoding: 293 293 282
Width: 539
VWidth: 0
Flags: HMW
LayerCount: 2
Fore
SplineSet
297.5 780 m 1
 163.5 0 l 1
 33.5 0 l 1
 167 780 l 1
 297.5 780 l 1
371.5 280 m 1
 377 329 369.5 369.5 317 372 c 0
 262 374.5 224 329.5 211.5 281 c 1
 179 281 l 1
 198 382 264.5 474 374.5 474.5 c 0
 482 475 515 399.5 502.5 299 c 1
 451.5 0 l 1
 322.5 0 l 1
 371.5 280 l 1
329 927 m 1
 220.5 840.5 l 1
 140 905 l 1
 342 1042.5 l 1
 503.5 900 l 1
 408 840 l 1
 329 927 l 1
EndSplineSet
EndChar

StartChar: Itilde
Encoding: 296 296 283
Width: 289
VWidth: 0
Flags: HMW
LayerCount: 2
Fore
SplineSet
164.5 699.5 m 1
 310.5 700 l 1
 190 0 l 1
 46 0 l 1
 164.5 699.5 l 1
77.5 834 m 1
 98 879.5 144 924 201.5 922.5 c 0
 255.5 921.5 273 871.5 322 873 c 0
 349 874 372 898 393 923.5 c 1
 447.5 856.5 l 1
 422 820 371 775.5 314 777.5 c 0
 266 779 237.5 830 192.5 827.5 c 0
 158 826 144 795.5 135.5 777.5 c 1
 77.5 834 l 1
EndSplineSet
EndChar

StartChar: itilde
Encoding: 297 297 284
Width: 263
VWidth: 0
Flags: HMW
LayerCount: 2
Fore
SplineSet
119.5 459.5 m 1
 247 460 l 1
 167 0 l 1
 41.5 0 l 1
 119.5 459.5 l 1
22.5 590 m 1
 43 635.5 88.5 679.5 146 678 c 0
 200 677 217.5 627.5 266.5 629 c 0
 293.5 630 317 654 338 679.5 c 1
 392.5 612.5 l 1
 367 576 315.5 531.5 258.5 533.5 c 0
 210.5 535 183 586 138 583.5 c 0
 103.5 582 89 551.5 80.5 533.5 c 1
 22.5 590 l 1
EndSplineSet
EndChar

StartChar: Imacron
Encoding: 298 298 285
Width: 289
VWidth: 0
Flags: HMW
LayerCount: 2
Fore
SplineSet
164.5 699.5 m 1
 310.5 700 l 1
 190 0 l 1
 46 0 l 1
 164.5 699.5 l 1
71.5 774.5 m 1
 91.5 889.5 l 1
 449.5 889.5 l 1
 429 774.5 l 1
 71.5 774.5 l 1
EndSplineSet
EndChar

StartChar: imacron
Encoding: 299 299 286
Width: 263
VWidth: 0
Flags: HMW
LayerCount: 2
Fore
SplineSet
119.5 459.5 m 1
 247 460 l 1
 167 0 l 1
 41.5 0 l 1
 119.5 459.5 l 1
17 530.5 m 1
 37 645.5 l 1
 394 645.5 l 1
 374 530 l 1
 17 530.5 l 1
EndSplineSet
EndChar

StartChar: Ibreve
Encoding: 300 300 287
Width: 289
VWidth: 0
Flags: HMW
LayerCount: 2
Fore
SplineSet
164.5 699.5 m 1
 310.5 700 l 1
 190 0 l 1
 46 0 l 1
 164.5 699.5 l 1
116 919 m 1
 203.5 919 l 1
 203 887 217 856.5 260 855.5 c 0
 304.5 854.5 330.5 887.5 341.5 918.5 c 1
 432.5 918 l 1
 414 839.5 352.5 775 254 775 c 0
 156 775 110.5 839 116 919 c 1
EndSplineSet
EndChar

StartChar: ibreve
Encoding: 301 301 288
Width: 263
VWidth: 0
Flags: HMW
LayerCount: 2
Fore
SplineSet
119.5 459.5 m 1
 247 460 l 1
 167 0 l 1
 41.5 0 l 1
 119.5 459.5 l 1
60 675 m 1
 148.5 674.5 l 1
 148 642.5 161 612.5 204 611.5 c 0
 248.5 610.5 275 643.5 286 674.5 c 1
 377.5 674 l 1
 359 595.5 297 530.5 198.5 530.5 c 0
 100.5 530.5 54.5 595 60 675 c 1
EndSplineSet
EndChar

StartChar: Iogonek
Encoding: 302 302 289
Width: 289
VWidth: 0
Flags: HMW
LayerCount: 2
Fore
SplineSet
164.5 699.5 m 1
 310.5 700 l 1
 190 0 l 1
 46 0 l 1
 164.5 699.5 l 1
155 -115 m 1
 178.5 -180.5 l 1
 155.5 -200.5 124.5 -218.5 80 -218.5 c 0
 15 -218.5 -31 -180 -22.5 -118 c 0
 -12 -49 66 -7 132.5 26 c 1
 172.5 0 l 1
 127 -24 81 -54.5 74 -94.5 c 0
 71.5 -117 79.5 -132.5 102.5 -134.5 c 0
 122.5 -136 140.5 -125.5 155 -115 c 1
EndSplineSet
EndChar

StartChar: iogonek
Encoding: 303 303 290
Width: 263
VWidth: 0
Flags: HMW
LayerCount: 2
Fore
SplineSet
136.5 639 m 0
 141.5 678.5 182.5 712.5 223.5 711.5 c 0
 265.5 710.5 296 677 291 636.5 c 0
 286 597 244.5 563 203.5 564 c 0
 161.5 565 131.5 598.5 136.5 639 c 0
119.5 459.5 m 1
 246.5 460 l 1
 166.5 0 l 1
 41.5 0 l 1
 119.5 459.5 l 1
132.5 -116.5 m 1
 155.5 -181.5 l 1
 132.5 -201.5 102 -219.5 57.5 -219.5 c 0
 -7.5 -219.5 -53 -181.5 -44.5 -119.5 c 0
 -34 -50.5 44 -8.5 110.5 24.5 c 1
 149.5 0 l 1
 105 -25 58 -56 51 -96 c 0
 48.5 -118.5 57 -134 80 -136 c 0
 100 -137.5 118 -127 132.5 -116.5 c 1
EndSplineSet
EndChar

StartChar: Idotaccent
Encoding: 304 304 291
Width: 289
VWidth: 0
Flags: HMW
LayerCount: 2
Fore
SplineSet
164.5 699.5 m 1
 310.5 700 l 1
 190 0 l 1
 46 0 l 1
 164.5 699.5 l 1
185 850 m 0
 190 890 232 923.5 272.5 922.5 c 0
 314 921.5 344.5 888.5 339.5 847.5 c 0
 334.5 807.5 292.5 774 252 775 c 0
 210.5 776 180 809 185 850 c 0
EndSplineSet
EndChar

StartChar: uni0136
Encoding: 310 310 292
Width: 641
VWidth: 0
Flags: HMW
LayerCount: 2
Fore
SplineSet
164.5 699.5 m 1
 312.5 700 l 1
 192 0 l 1
 46 0 l 1
 164.5 699.5 l 1
548.5 699.5 m 1
 723 699.5 l 1
 382 369 l 1
 612.5 0 l 1
 445 0 l 1
 213 371.5 l 1
 548.5 699.5 l 1
278.5 -61 m 1
 406.5 -94 l 1
 246 -341 l 1
 149.5 -317.5 l 1
 278.5 -61 l 1
EndSplineSet
EndChar

StartChar: uni0137
Encoding: 311 311 293
Width: 521
VWidth: 0
Flags: HMW
LayerCount: 2
Fore
SplineSet
163.5 779.5 m 1
 290 780 l 1
 156 0 l 1
 31.5 0 l 1
 163.5 779.5 l 1
393.5 459.5 m 1
 554 459.5 l 1
 325 267 l 1
 489 0 l 1
 341.5 0 l 1
 173 273.5 l 1
 393.5 459.5 l 1
210.5 -61 m 1
 338 -94 l 1
 177 -341 l 1
 81.5 -317.5 l 1
 210.5 -61 l 1
EndSplineSet
EndChar

StartChar: Lacute
Encoding: 313 313 294
Width: 490
VWidth: 0
Flags: HMW
LayerCount: 2
Fore
SplineSet
165 700 m 1
 308.5 700 l 1
 210.5 127 l 1
 481.5 127 l 1
 459 0 l 1
 45 0 l 1
 165 700 l 1
559.5 921.5 m 1
 361.5 775 l 1
 291.5 815.5 l 1
 462 972.5 l 1
 559.5 921.5 l 1
EndSplineSet
EndChar

StartChar: lacute
Encoding: 314 314 295
Width: 250
VWidth: 0
Flags: HMW
LayerCount: 2
Fore
SplineSet
166.5 779.5 m 1
 297.5 780 l 1
 163 0 l 1
 34 0 l 1
 166.5 779.5 l 1
417 987 m 1
 219 841 l 1
 149 881.5 l 1
 319.5 1038.5 l 1
 417 987 l 1
EndSplineSet
EndChar

StartChar: uni013B
Encoding: 315 315 296
Width: 490
VWidth: 0
Flags: HMW
LayerCount: 2
Fore
SplineSet
165 700 m 1
 308.5 700 l 1
 210.5 127 l 1
 481.5 127 l 1
 459 0 l 1
 45 0 l 1
 165 700 l 1
218.5 -61 m 1
 345.5 -94 l 1
 185.5 -341 l 1
 89 -317.5 l 1
 218.5 -61 l 1
EndSplineSet
EndChar

StartChar: uni013C
Encoding: 316 316 297
Width: 250
VWidth: 0
Flags: HMW
LayerCount: 2
Fore
SplineSet
166.5 779.5 m 1
 297.5 780 l 1
 163 0 l 1
 34 0 l 1
 166.5 779.5 l 1
64.5 -61 m 1
 192 -94 l 1
 32 -341 l 1
 -64.5 -317.5 l 1
 64.5 -61 l 1
EndSplineSet
EndChar

StartChar: Lcaron
Encoding: 317 317 298
Width: 490
VWidth: 0
Flags: HMW
LayerCount: 2
Fore
SplineSet
165 700 m 1
 308.5 700 l 1
 210.5 127 l 1
 481.5 127 l 1
 459 0 l 1
 45 0 l 1
 165 700 l 1
469 713.5 m 1
 596 681 l 1
 436.5 434 l 1
 340 456.5 l 1
 469 713.5 l 1
EndSplineSet
EndChar

StartChar: lcaron
Encoding: 318 318 299
Width: 250
VWidth: 0
Flags: HMW
LayerCount: 2
Fore
SplineSet
166.5 779.5 m 1
 297.5 780 l 1
 163 0 l 1
 34 0 l 1
 166.5 779.5 l 1
427 779 m 1
 554 746 l 1
 394 499 l 1
 298 522.5 l 1
 427 779 l 1
EndSplineSet
EndChar

StartChar: Ldot
Encoding: 319 319 300
Width: 490
VWidth: 0
Flags: HMW
LayerCount: 2
Fore
SplineSet
165 700 m 1
 308.5 700 l 1
 210.5 127 l 1
 481.5 127 l 1
 459 0 l 1
 45 0 l 1
 165 700 l 1
339.5 427 m 0
 345 469.5 387.5 508.5 432.5 507.5 c 0
 478.5 506.5 509 468 503.5 425 c 0
 498 382.5 455 344 410 345 c 0
 364 346 334 384 339.5 427 c 0
EndSplineSet
EndChar

StartChar: ldot
Encoding: 320 320 301
Width: 433
VWidth: 0
Flags: HMW
LayerCount: 2
Fore
SplineSet
166.5 779.5 m 1
 297.5 780 l 1
 163 0 l 1
 34 0 l 1
 166.5 779.5 l 1
276.5 411.5 m 0
 282 454 324.5 493 369.5 492 c 0
 415.5 491 445.5 452.5 440 409.5 c 0
 434.5 367 392 328 347 329 c 0
 301 330 271 368.5 276.5 411.5 c 0
EndSplineSet
EndChar

StartChar: eth
Encoding: 240 240 302
Width: 623
VWidth: 0
Flags: HMW
LayerCount: 2
Fore
SplineSet
450.5 241.5 m 0
 461.5 309.5 425 372.5 352 373 c 0
 277.5 374 214 313.5 201.5 241 c 0
 190.5 172.5 228 112 300.5 111.5 c 0
 374.5 111 438 169 450.5 241.5 c 0
392 698 m 1
 550.5 422 l 2
 581.5 367 600.5 306.5 591 241 c 0
 569 87.5 438 -14 287 -14 c 0
 139 -14 39.5 91.5 61 241.5 c 0
 79 368 189 467.5 305 468.5 c 0
 351.5 469 381.5 456 413.5 423.5 c 1
 390 434 l 1
 217.5 698 l 1
 392 698 l 1
199.5 520.5 m 1
 211 594 l 1
 599.5 594 l 1
 588 520.5 l 1
 199.5 520.5 l 1
EndSplineSet
EndChar

StartChar: racute
Encoding: 341 341 303
Width: 380
VWidth: 0
Flags: HMW
LayerCount: 2
Fore
SplineSet
240 460 m 1
 160.5 0 l 1
 33 0 l 1
 112.5 460 l 1
 240 460 l 1
349 323.5 m 1
 333 337.5 318.5 347.5 295.5 348 c 0
 242.5 349 213.5 297 202.5 242.5 c 1
 172 281 l 1
 188.5 375 257.5 471.5 344.5 470.5 c 0
 377.5 470.5 403 455.5 423.5 432.5 c 1
 349 323.5 l 1
456.5 678 m 1
 258.5 531.5 l 1
 189.5 572.5 l 1
 360 729.5 l 1
 456.5 678 l 1
EndSplineSet
EndChar

StartChar: rcaron
Encoding: 345 345 304
Width: 380
VWidth: 0
Flags: HMW
LayerCount: 2
Fore
SplineSet
240 460 m 1
 160.5 0 l 1
 33 0 l 1
 112.5 460 l 1
 240 460 l 1
349 323.5 m 1
 333 337.5 318.5 347.5 295.5 348 c 0
 242.5 349 213.5 297 202.5 242.5 c 1
 171.5 281 l 1
 188 375 257.5 471.5 344.5 470.5 c 0
 377.5 470.5 403 455.5 423.5 432.5 c 1
 349 323.5 l 1
298.5 645.5 m 1
 407.5 733 l 1
 487.5 668.5 l 1
 285.5 531 l 1
 124.5 673 l 1
 220 733.5 l 1
 298.5 645.5 l 1
EndSplineSet
EndChar

StartChar: Rcaron
Encoding: 344 344 305
Width: 603
VWidth: 0
Flags: HMW
LayerCount: 2
Fore
SplineSet
258.5 325 m 1
 405 325 l 1
 570 0 l 1
 406.5 0 l 1
 258.5 325 l 1
164.5 699.5 m 1
 308.5 700 l 1
 188 0 l 1
 46 0 l 1
 164.5 699.5 l 1
230 576 m 1
 251.5 700 l 1
 391.5 700 l 1
 539.5 697.5 634 610.5 613.5 476.5 c 0
 592.5 340.5 476 256 323.5 253.5 c 1
 174 253.5 l 1
 195 368.5 l 1
 326.5 368.5 l 1
 396.5 370.5 453.5 407 465.5 472 c 0
 476.5 534.5 436 573 369 575.5 c 1
 230 576 l 1
409.5 889.5 m 1
 518.5 976.5 l 1
 598 912 l 1
 396 774.5 l 1
 235 916.5 l 1
 331 977 l 1
 409.5 889.5 l 1
EndSplineSet
EndChar

StartChar: uni0213
Encoding: 531 531 306
Width: 380
VWidth: 0
Flags: HMW
LayerCount: 2
Fore
SplineSet
240 460 m 1
 160.5 0 l 1
 33 0 l 1
 112.5 460 l 1
 240 460 l 1
349 323.5 m 1
 333 337.5 318.5 347.5 295.5 348 c 0
 242.5 349 213.5 297 202.5 242.5 c 1
 171.5 281 l 1
 188 375 257.5 471.5 344.5 470.5 c 0
 377.5 470.5 403 455.5 423.5 432.5 c 1
 349 323.5 l 1
124 530.5 m 1
 212.5 531 l 1
 223 562.5 248 595 292.5 594.5 c 0
 337 594 352 564.5 352.5 530.5 c 1
 438 531 l 1
 447.5 608.5 408.5 673.5 311 674.5 c 0
 210 675.5 146.5 608.5 124 530.5 c 1
EndSplineSet
EndChar

StartChar: uni0212
Encoding: 530 530 307
Width: 603
VWidth: 0
Flags: HMW
LayerCount: 2
Fore
SplineSet
258.5 325 m 1
 405 325 l 1
 570 0 l 1
 406.5 0 l 1
 258.5 325 l 1
164.5 699.5 m 1
 308.5 700 l 1
 188 0 l 1
 46 0 l 1
 164.5 699.5 l 1
230 576 m 1
 251.5 700 l 1
 391.5 700 l 1
 539.5 697.5 634 610.5 613.5 476.5 c 0
 592.5 340.5 476 256 323.5 253.5 c 1
 174 253.5 l 1
 195 368.5 l 1
 326.5 368.5 l 1
 396.5 370.5 453.5 407 465.5 472 c 0
 476.5 534.5 436 573 369 575.5 c 1
 230 576 l 1
249 774 m 1
 338 774.5 l 1
 348.5 806 373.5 838 418 837.5 c 0
 462.5 837 477.5 808 478 774 c 1
 563.5 774.5 l 1
 573 852 534.5 917.5 437 918.5 c 0
 336 919.5 271.5 852 249 774 c 1
EndSplineSet
EndChar

StartChar: OE
Encoding: 338 338 308
Width: 955
VWidth: 0
Flags: HMW
LayerCount: 2
Fore
SplineSet
570.5 311 m 1
 591.5 431 l 1
 940.5 431 l 1
 919.5 310.5 l 1
 570.5 311 l 1
564 669.5 m 1
 704 670 l 1
 593.5 30 l 1
 455 30.5 l 1
 564 669.5 l 1
906 122 m 1
 886.5 0 l 1
 356 0 l 1
 157 3.5 38 157 66 350 c 0
 96.5 550.5 262 697 466 700 c 1
 1006 700 l 1
 984 577.5 l 1
 627 577.5 l 1
 609 571 l 1
 475 571 l 1
 335 568.5 236.5 483.5 213 350 c 0
 192 222.5 254.5 132.5 391 129.5 c 1
 523 129 l 1
 545 122.5 l 1
 906 122 l 1
EndSplineSet
EndChar

StartChar: oe
Encoding: 339 339 309
Width: 873
VWidth: 0
Flags: HMW
LayerCount: 2
Fore
SplineSet
721 250 m 2
 729 313 716.5 374.5 648.5 377 c 0
 582.5 379.5 529 326.5 515.5 260 c 1
 507.5 230 l 1
 497 155.5 518 90 593 88 c 0
 648.5 86.5 690 119 723 155.5 c 1
 832.5 118.5 l 1
 780 48 698 -10 600.5 -9.5 c 0
 472 -8.5 412.5 107 428.5 230 c 0
 431 247 434.5 263 440 279 c 0
 474 386 568.5 470.5 687 469.5 c 0
 807 468.5 868 358 853.5 234 c 0
 852 224.5 849.5 211 847 201.5 c 1
 717.5 230.5 l 1
 721 250 l 2
474.5 201.5 m 1
 486.5 280 l 1
 840.5 280 l 1
 846.5 201 l 1
 474.5 201.5 l 1
45 230 m 0
 64 365.5 174 470 304 469.5 c 0
 434 469 482 357 465.5 230 c 0
 447 97 360 -9 231 -9.5 c 0
 101.5 -10 27.5 99 45 230 c 0
172.5 230 m 0
 162 160.5 195.5 101.5 264.5 101 c 0
 330 100.5 385 157.5 396.5 230 c 0
 406 297.5 380.5 357.5 315.5 359 c 0
 245.5 361 184.5 303.5 172.5 230 c 0
EndSplineSet
EndChar

StartChar: a.alt
Encoding: 65536 -1 310
Width: 511
VWidth: 0
Flags: HMW
LayerCount: 2
Fore
SplineSet
149 136.5 m 0
 144.5 101 172.5 82 209.5 81 c 0
 274.5 79 323 119 339 184 c 1
 346 129 l 1
 326.5 44.5 254 -9.5 160 -9.5 c 0
 70 -9.5 7 44 19 130.5 c 0
 33.5 227 126.5 280.5 234 280.5 c 0
 298 280.5 351 255.5 379.5 227.5 c 1
 369.5 164.5 l 1
 335 191 301.5 205.5 254 205 c 0
 201 204.5 155 180.5 149 136.5 c 0
143 327.5 m 1
 109 419.5 l 1
 165 446 233 472.5 309.5 472 c 0
 412.5 471.5 501 422.5 486.5 325.5 c 1
 431 0 l 1
 306 0 l 1
 360 304.5 l 1
 366 344 336.5 367.5 290.5 369 c 0
 231.5 371 177 344.5 143 327.5 c 1
EndSplineSet
EndChar

StartChar: Jcircumflex
Encoding: 308 308 312
Width: 295
VWidth: 0
Flags: HMW
LayerCount: 2
Fore
SplineSet
-112 -75 m 1
 -94.5 -93.5 -69.5 -110 -40 -109 c 0
 -2.5 -107.5 32 -75.5 40.5 -25.5 c 1
 165 700 l 1
 316.5 700 l 1
 188 -56 l 1
 168 -173.5 72.5 -233.5 -43.5 -233 c 0
 -108 -232.5 -164 -206.5 -203 -177.5 c 1
 -112 -75 l 1
271 862 m 1
 162.5 774.5 l 1
 81.5 839 l 1
 284 976.5 l 1
 445 834.5 l 1
 349.5 774 l 1
 271 862 l 1
EndSplineSet
EndChar

StartChar: jcircumflex
Encoding: 309 309 313
Width: 257
VWidth: 0
Flags: HMW
LayerCount: 2
Fore
SplineSet
-73 -88 m 1
 -61.5 -103.5 -49 -114 -32 -114 c 0
 1.5 -114 23 -79.5 29.5 -38.5 c 1
 115 460 l 1
 241 460 l 1
 151 -69.5 l 2
 134.5 -165.5 70.5 -234.5 -32.5 -233 c 0
 -85 -232.5 -117 -209 -141.5 -184.5 c 1
 -73 -88 l 1
208 618 m 1
 99 530.5 l 1
 18.5 595 l 1
 221 732.5 l 1
 381.5 590.5 l 1
 286 530 l 1
 208 618 l 1
EndSplineSet
EndChar

StartChar: Nacute
Encoding: 323 323 314
Width: 764
VWidth: 0
Flags: HMW
LayerCount: 2
Fore
SplineSet
647 700 m 1
 786 700 l 1
 660.5 -33.5 l 1
 258 430.5 l 1
 184 0 l 1
 44.5 0 l 1
 170.5 733.5 l 1
 572.5 269.5 l 1
 647 700 l 1
664 906.5 m 1
 466 760 l 1
 396.5 800.5 l 1
 567 957.5 l 1
 664 906.5 l 1
EndSplineSet
EndChar

StartChar: nacute
Encoding: 324 324 315
Width: 543
VWidth: 0
Flags: HMW
LayerCount: 2
Fore
SplineSet
242.5 460 m 1
 163.5 0 l 1
 33 0 l 1
 112.5 460 l 1
 242.5 460 l 1
371.5 280 m 1
 377 329 369 369.5 316.5 372 c 0
 261.5 374.5 224 329.5 211.5 281 c 1
 184 276.5 l 1
 202.5 377.5 264 469.5 373.5 470 c 0
 480.5 470.5 518.5 395.5 506 294.5 c 1
 455.5 0 l 1
 322.5 0 l 1
 371.5 280 l 1
514.5 677.5 m 1
 317 530.5 l 1
 248 571.5 l 1
 418.5 728.5 l 1
 514.5 677.5 l 1
EndSplineSet
EndChar

StartChar: uni0145
Encoding: 325 325 316
Width: 764
VWidth: 0
Flags: HMW
LayerCount: 2
Fore
SplineSet
324.5 -49.5 m 1
 451 -82 l 1
 291.5 -329 l 1
 195.5 -306 l 1
 324.5 -49.5 l 1
647 700 m 1
 786 700 l 1
 660.5 -33.5 l 1
 258 430.5 l 1
 184 0 l 1
 44.5 0 l 1
 170.5 733.5 l 1
 572.5 269.5 l 1
 647 700 l 1
EndSplineSet
EndChar

StartChar: uni0146
Encoding: 326 326 317
Width: 543
VWidth: 0
Flags: HMW
LayerCount: 2
Fore
SplineSet
242.5 460 m 1
 163.5 0 l 1
 33 0 l 1
 112.5 460 l 1
 242.5 460 l 1
371.5 280 m 1
 377 329 369 369.5 316.5 372 c 0
 261.5 374.5 224 329.5 211.5 281 c 1
 178.5 276.5 l 1
 197.5 377.5 263.5 469.5 373.5 470 c 0
 480.5 470.5 518.5 395.5 506 294.5 c 1
 455.5 0 l 1
 322.5 0 l 1
 371.5 280 l 1
211 -61 m 1
 338 -94 l 1
 178 -341 l 1
 82 -317.5 l 1
 211 -61 l 1
EndSplineSet
EndChar

StartChar: Ncaron
Encoding: 327 327 318
Width: 764
VWidth: 0
Flags: HMW
LayerCount: 2
Fore
SplineSet
493 896.5 m 1
 602 984 l 1
 682.5 919.5 l 1
 480 781.5 l 1
 319.5 924 l 1
 415 984 l 1
 493 896.5 l 1
647 700 m 1
 786 700 l 1
 660.5 -33.5 l 1
 258 430.5 l 1
 184 0 l 1
 44.5 0 l 1
 170.5 733.5 l 1
 572.5 269.5 l 1
 647 700 l 1
EndSplineSet
EndChar

StartChar: ncaron
Encoding: 328 328 319
Width: 543
VWidth: 0
Flags: HMW
LayerCount: 2
Fore
SplineSet
242.5 460 m 1
 163.5 0 l 1
 33 0 l 1
 112.5 460 l 1
 242.5 460 l 1
371.5 280 m 1
 377 329 369 369.5 316.5 372 c 0
 261.5 374.5 224 329.5 211.5 281 c 1
 178.5 276.5 l 1
 197.5 377.5 263.5 469.5 373.5 470 c 0
 480.5 470.5 518.5 395.5 506 294.5 c 1
 455.5 0 l 1
 322.5 0 l 1
 371.5 280 l 1
351.5 645.5 m 1
 460.5 732.5 l 1
 540.5 668 l 1
 338.5 530 l 1
 177 672.5 l 1
 272.5 733 l 1
 351.5 645.5 l 1
EndSplineSet
EndChar

StartChar: Omacron
Encoding: 332 332 320
Width: 788
VWidth: 0
Flags: HMW
LayerCount: 2
Fore
SplineSet
217.5 350 m 0
 199 232.5 255 122.5 383.5 121.5 c 0
 513.5 120.5 614.5 225.5 636 350 c 0
 654.5 467.5 599.5 577.5 470 578.5 c 0
 340 579.5 238.5 474.5 217.5 350 c 0
66 350 m 0
 97 554.5 273.5 715 484.5 714.5 c 0
 693 714 816 547 787.5 350 c 0
 756.5 145 582 -19.5 368 -19 c 0
 157.5 -18.5 37.5 153 66 350 c 0
321.5 774.5 m 1
 341.5 889.5 l 1
 698 889.5 l 1
 677.5 774.5 l 1
 321.5 774.5 l 1
EndSplineSet
EndChar

StartChar: omacron
Encoding: 333 333 321
Width: 559
VWidth: 0
Flags: HMW
LayerCount: 2
Fore
SplineSet
42.5 230 m 0
 63 368 185 470 328.5 470 c 0
 469 470 561.5 364.5 542 230 c 0
 521.5 92 399 -9.5 255.5 -9.5 c 0
 115 -9.5 23 95.5 42.5 230 c 0
175 230 m 0
 164.5 163.5 197.5 102 266.5 101 c 0
 336.5 100 397.5 159.5 409.5 230 c 0
 420 296.5 386.5 358 317.5 359 c 0
 247.5 360 187 300.5 175 230 c 0
165.5 530.5 m 1
 185.5 645.5 l 1
 542.5 645.5 l 1
 522 530 l 1
 165.5 530.5 l 1
EndSplineSet
EndChar

StartChar: Obreve
Encoding: 334 334 322
Width: 788
VWidth: 0
Flags: HMW
LayerCount: 2
Fore
SplineSet
217.5 350 m 0
 199 232.5 255 122.5 383.5 121.5 c 0
 513.5 120.5 614.5 225.5 636 350 c 0
 654.5 467.5 599.5 577.5 470 578.5 c 0
 340 579.5 238.5 474.5 217.5 350 c 0
66 350 m 0
 97 554.5 273.5 715 484.5 714.5 c 0
 693 714 816 547 787.5 350 c 0
 756.5 145 582 -19.5 368 -19 c 0
 157.5 -18.5 37.5 153 66 350 c 0
365 919 m 1
 452.5 919 l 1
 452 887 466 856.5 509 855.5 c 0
 553.5 854.5 579.5 887.5 590.5 918.5 c 1
 681.5 918 l 1
 663 839.5 601.5 775 503 775 c 0
 405 775 359.5 839 365 919 c 1
EndSplineSet
EndChar

StartChar: obreve
Encoding: 335 335 323
Width: 559
VWidth: 0
Flags: HMW
LayerCount: 2
Fore
SplineSet
42.5 230 m 0
 63 368 185 470 328.5 470 c 0
 469 470 561.5 364.5 542 230 c 0
 521.5 92 399 -9.5 255.5 -9.5 c 0
 115 -9.5 23 95.5 42.5 230 c 0
175 230 m 0
 164.5 163.5 197.5 102 266.5 101 c 0
 336.5 100 397.5 159.5 409.5 230 c 0
 420 296.5 386.5 358 317.5 359 c 0
 247.5 360 187 300.5 175 230 c 0
209 675 m 1
 297.5 674.5 l 1
 297 642.5 310 612.5 353 611.5 c 0
 397.5 610.5 424 643.5 435 674.5 c 1
 526 674 l 1
 507.5 595.5 446 530.5 347.5 530.5 c 0
 249.5 530.5 203.5 595 209 675 c 1
EndSplineSet
EndChar

StartChar: Racute
Encoding: 340 340 324
Width: 603
VWidth: 0
Flags: HMW
LayerCount: 2
Fore
SplineSet
258.5 325 m 1
 405 325 l 1
 570 0 l 1
 406.5 0 l 1
 258.5 325 l 1
164.5 699.5 m 1
 308.5 700 l 1
 188 0 l 1
 46 0 l 1
 164.5 699.5 l 1
230 576 m 1
 251.5 700 l 1
 391.5 700 l 1
 539.5 697.5 634 610.5 613.5 476.5 c 0
 592.5 340.5 476 256 323.5 253.5 c 1
 174 253.5 l 1
 195 368.5 l 1
 326.5 368.5 l 1
 396.5 370.5 453.5 407 465.5 472 c 0
 476.5 534.5 436 573 369 575.5 c 1
 230 576 l 1
569 921.5 m 1
 371.5 775 l 1
 301.5 815.5 l 1
 472.5 972.5 l 1
 569 921.5 l 1
EndSplineSet
EndChar

StartChar: uni0156
Encoding: 342 342 325
Width: 603
VWidth: 0
Flags: HMW
LayerCount: 2
Fore
SplineSet
258.5 325 m 1
 405 325 l 1
 570 0 l 1
 406.5 0 l 1
 258.5 325 l 1
164.5 699.5 m 1
 308.5 700 l 1
 188 0 l 1
 46 0 l 1
 164.5 699.5 l 1
230 576 m 1
 251.5 700 l 1
 391.5 700 l 1
 539.5 697.5 634 610.5 613.5 476.5 c 0
 592.5 340.5 476 256 323.5 253.5 c 1
 174 253.5 l 1
 195 368.5 l 1
 326.5 368.5 l 1
 396.5 370.5 453.5 407 465.5 472 c 0
 476.5 534.5 436 573 369 575.5 c 1
 230 576 l 1
275.5 -61 m 1
 402 -94 l 1
 242 -341 l 1
 146.5 -317.5 l 1
 275.5 -61 l 1
EndSplineSet
EndChar

StartChar: uni0157
Encoding: 343 343 326
Width: 380
VWidth: 0
Flags: HMW
LayerCount: 2
Fore
SplineSet
240 460 m 1
 160.5 0 l 1
 33 0 l 1
 112.5 460 l 1
 240 460 l 1
349 323.5 m 1
 333 337.5 318.5 347.5 295.5 348 c 0
 242.5 349 213.5 297 202.5 242.5 c 1
 171.5 281 l 1
 188 375 257.5 471.5 344.5 470.5 c 0
 377.5 470.5 403 455.5 423.5 432.5 c 1
 349 323.5 l 1
63.5 -61 m 1
 190.5 -94 l 1
 31 -341 l 1
 -65 -317.5 l 1
 63.5 -61 l 1
EndSplineSet
EndChar

StartChar: Scedilla
Encoding: 350 350 327
Width: 585
VWidth: 0
Flags: HMW
LayerCount: 2
Fore
SplineSet
149 244 m 1
 179 169 215.5 110 293.5 110 c 0
 350 109.5 393.5 140 403 190.5 c 0
 415.5 257.5 346 285 282 312 c 0
 204.5 345.5 118.5 403.5 133.5 521.5 c 0
 151.5 638 259 714 390 714 c 0
 510.5 714 579.5 647.5 607 560.5 c 1
 490 496.5 l 1
 467.5 547 435 587.5 376.5 588 c 0
 327.5 588.5 287 559.5 279 517.5 c 0
 267 460 350.5 433.5 413 408 c 0
 502 371.5 568 303.5 553.5 194 c 0
 534 61 417.5 -19 275.5 -19 c 0
 154.5 -19 67 60.5 36 173 c 1
 149 244 l 1
265.5 59.5 m 1
 363.5 57 l 1
 262.5 -61.5 l 1
 270.5 -60 279.5 -59 288 -59 c 0
 331 -62 366.5 -97.5 360 -150.5 c 0
 351.5 -215.5 285 -253 224.5 -254 c 0
 177 -254.5 140.5 -240.5 102 -214 c 1
 151 -156 l 1
 171.5 -171 194 -180.5 217 -180.5 c 0
 244 -180.5 275 -165 277.5 -142 c 0
 280 -118.5 254 -111 230.5 -110.5 c 0
 212 -109.5 180 -115.5 151.5 -126 c 1
 265.5 59.5 l 1
EndSplineSet
EndChar

StartChar: scedilla
Encoding: 351 351 328
Width: 425
VWidth: 0
Flags: HMW
LayerCount: 2
Fore
SplineSet
81 170.5 m 1
 120 127.5 163 86 208 87.5 c 0
 237.5 87.5 265 102 269.5 127.5 c 0
 276 165 228 182.5 188 199 c 0
 126 225 71 263.5 82 342 c 0
 94.5 421 175 470 260.5 470 c 0
 333 470 393 438.5 434 394 c 1
 367 315.5 l 1
 336.5 347.5 301 373 262 373 c 0
 233 373.5 204.5 361 200 338 c 0
 192.5 301 254.5 288.5 294.5 271.5 c 0
 356 245 407 205 397.5 130 c 0
 385 36.5 307.5 -15.5 210.5 -15.5 c 0
 122 -15.5 53 30 7.5 91.5 c 1
 81 170.5 l 1
197.5 67.7334 m 1
 296.5 65.2334 l 1
 195 -53.2666 l 1
 203 -51.7666 211.5 -50.7666 220 -50.7666 c 0
 263 -53.7666 299.5 -88.7666 293.5 -142.2665 c 0
 285 -207.7665 217.5 -244.7665 157 -245.2665 c 0
 109.5 -245.7665 73.5 -232.2665 35 -205.7665 c 1
 83.5 -147.2665 l 1
 104 -162.2665 126 -171.7665 149 -171.7665 c 0
 176 -171.7665 207.5 -157.2665 210 -134.2665 c 0
 212.5 -110.7665 185.5 -102.2666 162 -101.7666 c 0
 144 -100.7666 112.5 -106.7666 84 -117.2665 c 1
 197.5 67.7334 l 1
EndSplineSet
EndChar

StartChar: Zcaron
Encoding: 381 381 329
Width: 580
VWidth: 0
Flags: HMW
LayerCount: 2
Fore
SplineSet
117 568.5 m 1
 140.5 700 l 1
 661.5 699.5 l 1
 233 127.5 l 1
 532 127 l 1
 509.5 0 l 1
 -20 0 l 1
 405 568 l 1
 117 568.5 l 1
429 889.5 m 1
 537.5 976.5 l 1
 617.5 912 l 1
 416 774.5 l 1
 255 916.5 l 1
 350 977 l 1
 429 889.5 l 1
EndSplineSet
EndChar

StartChar: zcaron
Encoding: 382 382 330
Width: 484
VWidth: 0
Flags: HMW
LayerCount: 2
Fore
SplineSet
343.5 645.5 m 1
 452.5 732 l 1
 533 667.5 l 1
 330.5 530 l 1
 169.5 672 l 1
 265 732.5 l 1
 343.5 645.5 l 1
289 339.5 m 1
 81.5 340.5 l 1
 103 460 l 1
 530.5 459.5 l 1
 233 120.5 l 1
 442.5 119.5 l 1
 421 0 l 1
 -16 0 l 1
 289 339.5 l 1
EndSplineSet
EndChar

StartChar: Ydieresis
Encoding: 376 376 331
Width: 612
VWidth: 0
Flags: HMW
LayerCount: 2
Fore
SplineSet
224 857.5 m 0
 229 897.5 270 931 310.5 930 c 0
 352 929 382.5 896 377.5 855 c 0
 372.5 815 331 781.5 290.5 782.5 c 0
 249 783.5 219 816.5 224 857.5 c 0
474 857.5 m 0
 479 897.5 520.5 931 561 930 c 0
 602.5 929 634 896 629 855 c 0
 624 815 581 781.5 540.5 782.5 c 0
 499 783.5 469 816.5 474 857.5 c 0
541 699.5 m 1
 708.5 699.5 l 1
 401 286 l 1
 352.5 0 l 1
 206.5 0 l 1
 258 293 l 1
 94 700 l 1
 254 700 l 1
 349.5 422 l 1
 541 699.5 l 1
EndSplineSet
EndChar

StartChar: Scaron
Encoding: 352 352 332
Width: 585
VWidth: 0
Flags: HMW
LayerCount: 2
Fore
SplineSet
149 244 m 1
 179 169 215.5 110 293.5 110 c 0
 350 109.5 393.5 140 403 190.5 c 0
 415.5 257.5 346 284.5 282 312 c 0
 205 346 119 410.5 133.5 524.5 c 0
 151.5 640.5 263 714.5 390 714 c 0
 510 713.5 583 644.5 607 560.5 c 1
 490 496 l 1
 468 546 440.5 587.5 382 588 c 0
 332.5 588.5 287 560.5 279 517.5 c 0
 267 460 350.5 433.5 413 408 c 0
 502 371.5 568 303.5 553.5 194 c 0
 534 60.5 421 -19.5 275.5 -19 c 0
 154.5 -18.5 67 60.5 36 173 c 1
 149 244 l 1
421 889.5 m 1
 530 976.5 l 1
 610.5 912 l 1
 408 774.5 l 1
 247 916.5 l 1
 343 977 l 1
 421 889.5 l 1
EndSplineSet
EndChar

StartChar: scaron
Encoding: 353 353 333
Width: 427
VWidth: 0
Flags: HMW
LayerCount: 2
Fore
SplineSet
82 170.5 m 1
 118 120.5 159 88.5 206 88.5 c 0
 235.5 88 264.5 101 269 128 c 0
 275.5 166.5 210.5 182.5 171 201.5 c 0
 113.5 229.5 64 269.5 73.5 340.5 c 0
 86 425 174 469 261 469.5 c 0
 333.5 470 396.5 438.5 436 394 c 1
 369 314.5 l 1
 340 346 298.5 369 259 369 c 0
 231 369 200 358.5 196.5 334 c 0
 191 301 256.5 284.5 296 268 c 0
 356.5 241.5 408 200 399.5 129.5 c 0
 387.5 32 307.5 -16.5 208 -16.5 c 0
 118.5 -16.5 48 27 7.5 89.5 c 1
 82 170.5 l 1
290 636.5 m 1
 399.5 724 l 1
 480 659.5 l 1
 277 521.5 l 1
 116 664 l 1
 212 724 l 1
 290 636.5 l 1
EndSplineSet
EndChar

StartChar: Lslash
Encoding: 321 321 334
Width: 494
VWidth: 0
Flags: HMW
LayerCount: 2
Fore
SplineSet
34 318 m 1
 11.5 388.5 l 1
 375.5 610 l 1
 398.5 540 l 1
 34 318 l 1
165 700 m 1
 308.5 700 l 1
 210.5 127 l 1
 481.5 127 l 1
 459 0 l 1
 45 0 l 1
 165 700 l 1
EndSplineSet
EndChar

StartChar: lslash
Encoding: 322 322 335
Width: 250
VWidth: 0
Flags: HMW
LayerCount: 2
Fore
SplineSet
25.5 318 m 1
 3 388.5 l 1
 335 586 l 1
 357 515.5 l 1
 25.5 318 l 1
166.5 779.5 m 1
 297.5 780 l 1
 163 0 l 1
 34 0 l 1
 166.5 779.5 l 1
EndSplineSet
EndChar

StartChar: uni0218
Encoding: 536 536 336
Width: 585
VWidth: 0
Flags: HMW
LayerCount: 2
Fore
SplineSet
149 244 m 1
 179 169 215.5 110 293.5 110 c 0
 350 109.5 393.5 140 403 190.5 c 0
 415.5 257.5 346 284.5 282 312 c 0
 205 346 119 410.5 133.5 524.5 c 0
 151.5 640.5 263 714.5 390 714 c 0
 510 713.5 583 644.5 607 560.5 c 1
 490 496 l 1
 468 546 440.5 587.5 382 588 c 0
 332.5 588.5 287 560.5 279 517.5 c 0
 267 460 350.5 433.5 413 408 c 0
 502 371.5 568 303.5 553.5 194 c 0
 534 60.5 421 -19.5 275.5 -19 c 0
 154.5 -18.5 67 60.5 36 173 c 1
 149 244 l 1
221 -71 m 1
 348.5 -104 l 1
 188.5 -351 l 1
 92 -327.5 l 1
 221 -71 l 1
EndSplineSet
EndChar

StartChar: uni0219
Encoding: 537 537 337
Width: 427
VWidth: 0
Flags: HMW
LayerCount: 2
Fore
SplineSet
82 170.5 m 1
 118 120.5 159 88.5 206 88.5 c 0
 235.5 88 264.5 101 269 128 c 0
 275.5 166.5 210.5 182.5 171 201.5 c 0
 113.5 229.5 64 269.5 73.5 340.5 c 0
 86 425 174 469 261 469.5 c 0
 333.5 470 396.5 438.5 436 394 c 1
 369 314.5 l 1
 340 346 298.5 369 259 369 c 0
 231 369 200 358.5 196.5 334 c 0
 191 301 256.5 284.5 296 268 c 0
 356.5 241.5 408 200 399.5 129.5 c 0
 387.5 32 307.5 -16.5 208 -16.5 c 0
 118.5 -16.5 48 27 7.5 89.5 c 1
 82 170.5 l 1
154.5 -69 m 1
 281 -102 l 1
 121.5 -349 l 1
 25.5 -325.5 l 1
 154.5 -69 l 1
EndSplineSet
EndChar

StartChar: pi
Encoding: 960 960 338
Width: 567
VWidth: 0
Flags: HMW
LayerCount: 2
Fore
SplineSet
132 429.5 m 1
 256.5 430 l 1
 181.5 0 l 1
 59.5 0 l 1
 132 429.5 l 1
79.5 460 m 1
 582 460 l 1
 562 349.5 l 1
 60 349.5 l 1
 79.5 460 l 1
375.5 430 m 1
 499 430 l 1
 452.5 167.5 l 1
 447 115 459.5 105 493 97.5 c 1
 476 -8.5 l 1
 374.5 -6.5 309 10.5 323 121 c 1
 375.5 430 l 1
EndSplineSet
EndChar

StartChar: trademark
Encoding: 8482 8482 339
Width: 701
VWidth: 0
Flags: HMW
LayerCount: 2
Fore
SplineSet
109.5 634 m 1
 120.5 699.5 l 1
 377 699.5 l 1
 366 634 l 1
 274 634 l 1
 225 350.5 l 1
 152.5 350.5 l 1
 201 634 l 1
 109.5 634 l 1
647 598 m 1
 722.5 723 l 1
 707.5 350 l 1
 633 350.5 l 1
 647 598 l 1
433.5 717.5 m 1
 464 591 l 1
 395.5 350.5 l 1
 319 351 l 1
 433.5 717.5 l 1
724 723.5 m 1
 701 607 l 1
 520.5 381 l 1
 416 615 l 1
 433.5 717 l 1
 535.5 494.5 l 1
 724 723.5 l 1
EndSplineSet
EndChar

StartChar: uni2219
Encoding: 8729 8729 340
Width: 306
VWidth: 0
Flags: HMW
LayerCount: 2
Fore
SplineSet
119 436 m 0
 124.5 478.5 167 517.5 212 516.5 c 0
 258 515.5 288 477 282.5 434 c 0
 277 391.5 234.5 352.5 189.5 353.5 c 0
 143.5 354.5 113.5 393 119 436 c 0
EndSplineSet
EndChar

StartChar: agrave.alt
Encoding: 65537 -1 341
Width: 511
VWidth: 0
Flags: HMW
LayerCount: 2
Fore
SplineSet
149.5 136.5 m 0
 144 100.5 170.5 82.5 209.5 81.5 c 0
 274.5 79.5 323 119 339 184 c 1
 346 129 l 1
 326.5 44.5 254 -9.5 160 -9.5 c 0
 70 -9.5 6.5 42.5 18.5 127.5 c 0
 33 225.5 128 280.5 234 280.5 c 0
 298.5 280.5 351 256 379.5 228 c 1
 369.5 164.5 l 1
 335 191 301.5 205 254 204.5 c 0
 202.5 204 156.5 180 149.5 136.5 c 0
142.5 327.5 m 1
 109 419.5 l 1
 164.5 446 233 472.5 309.5 472 c 0
 412.5 471.5 499.5 422.5 487 325.5 c 1
 431.5 0 l 1
 306 0 l 1
 360 304 l 1
 362 344 336.5 368 290.5 369.5 c 0
 231.5 371.5 176.5 344.5 142.5 327.5 c 1
185.5 684 m 1
 292.5 731.5 l 1
 413.5 569 l 1
 338 532 l 1
 185.5 684 l 1
EndSplineSet
EndChar

StartChar: aacute.alt
Encoding: 65538 -1 342
Width: 511
VWidth: 0
Flags: HMW
LayerCount: 2
Fore
SplineSet
149.5 136.5 m 0
 144 100.5 170.5 82.5 209.5 81.5 c 0
 274.5 79.5 323 119 339 184 c 1
 346 129 l 1
 326.5 44.5 254 -9.5 160 -9.5 c 0
 70 -9.5 6.5 42.5 18.5 127.5 c 0
 33 225.5 128 280.5 234 280.5 c 0
 298.5 280.5 351 256 379.5 228 c 1
 369.5 164.5 l 1
 335 191 301.5 205 254 204.5 c 0
 202.5 204 156.5 180 149.5 136.5 c 0
142.5 327.5 m 1
 109 419.5 l 1
 164.5 446 233 472.5 309.5 472 c 0
 412.5 471.5 499.5 422.5 487 325.5 c 1
 431.5 0 l 1
 306 0 l 1
 360 304 l 1
 362 344 336.5 368 290.5 369.5 c 0
 231.5 371.5 176.5 344.5 142.5 327.5 c 1
514.5 679 m 1
 316.5 533 l 1
 247 573.5 l 1
 417.5 730.5 l 1
 514.5 679 l 1
EndSplineSet
EndChar

StartChar: acircumflex.alt
Encoding: 65539 -1 343
Width: 511
VWidth: 0
Flags: HMW
LayerCount: 2
Fore
SplineSet
149.5 136.5 m 0
 144 100.5 170.5 82.5 209.5 81.5 c 0
 274.5 79.5 323 119 339 184 c 1
 346 129 l 1
 326.5 44.5 254 -9.5 160 -9.5 c 0
 70 -9.5 6.5 42.5 18.5 127.5 c 0
 33 225.5 128 280.5 234 280.5 c 0
 298.5 280.5 351 256 379.5 228 c 1
 369.5 164.5 l 1
 335 191 301.5 205 254 204.5 c 0
 202.5 204 156.5 180 149.5 136.5 c 0
142.5 327.5 m 1
 109 419.5 l 1
 164.5 446 233 472.5 309.5 472 c 0
 412.5 471.5 499.5 422.5 487 325.5 c 1
 431.5 0 l 1
 306 0 l 1
 360 304 l 1
 362 344 336.5 368 290.5 369.5 c 0
 231.5 371.5 176.5 344.5 142.5 327.5 c 1
342.5 620 m 1
 233 532.5 l 1
 152.5 597 l 1
 355.5 734.5 l 1
 516.5 592.5 l 1
 421 532 l 1
 342.5 620 l 1
EndSplineSet
EndChar

StartChar: atilde.alt
Encoding: 65540 -1 344
Width: 511
VWidth: 0
Flags: HMW
LayerCount: 2
Fore
SplineSet
149.5 136.5 m 0
 144 100.5 170.5 82.5 209.5 81.5 c 0
 274.5 79.5 323 119 339 184 c 1
 346 129 l 1
 326.5 44.5 254 -9.5 160 -9.5 c 0
 70 -9.5 6.5 42.5 18.5 127.5 c 0
 33 225.5 128 280.5 234 280.5 c 0
 298.5 280.5 351 256 379.5 228 c 1
 369.5 164.5 l 1
 335 191 301.5 205 254 204.5 c 0
 202.5 204 156.5 180 149.5 136.5 c 0
142.5 327.5 m 1
 109 419.5 l 1
 164.5 446 233 472.5 309.5 472 c 0
 412.5 471.5 499.5 422.5 487 325.5 c 1
 431.5 0 l 1
 306 0 l 1
 360 304 l 1
 362 344 336.5 368 290.5 369.5 c 0
 231.5 371.5 176.5 344.5 142.5 327.5 c 1
151 591.5 m 1
 171.5 637 218 681.5 275.5 680 c 0
 329.5 679 347 629.5 396 631 c 0
 423 632 445.5 656 466.5 681.5 c 1
 521 614.5 l 1
 496 578 445 532.5 388 534.5 c 0
 340 536 311.5 588 266.5 585.5 c 0
 232 584 218.5 553.5 210 535.5 c 1
 151 591.5 l 1
EndSplineSet
EndChar

StartChar: adieresis.alt
Encoding: 65541 -1 345
Width: 511
VWidth: 0
Flags: HMW
LayerCount: 2
Fore
SplineSet
149.5 136.5 m 0
 144 100.5 170.5 82.5 209.5 81.5 c 0
 274.5 79.5 323 119 339 184 c 1
 346 129 l 1
 326.5 44.5 254 -9.5 160 -9.5 c 0
 70 -9.5 6.5 42.5 18.5 127.5 c 0
 33 225.5 128 280.5 234 280.5 c 0
 298.5 280.5 351 256 379.5 228 c 1
 369.5 164.5 l 1
 335 191 301.5 205 254 204.5 c 0
 202.5 204 156.5 180 149.5 136.5 c 0
142.5 327.5 m 1
 109 419.5 l 1
 164.5 446 233 472.5 309.5 472 c 0
 412.5 471.5 499.5 422.5 487 325.5 c 1
 431.5 0 l 1
 306 0 l 1
 360 304 l 1
 362 344 336.5 368 290.5 369.5 c 0
 231.5 371.5 176.5 344.5 142.5 327.5 c 1
372 607.5 m 0
 377 647.5 418 681 458.5 680 c 0
 500 679 531.5 646 526.5 605 c 0
 521.5 565 479 531.5 438.5 532.5 c 0
 397 533.5 367 566.5 372 607.5 c 0
147.5 607.5 m 0
 152.5 647.5 193.5 681 234 680 c 0
 275.5 679 306.5 646 301.5 605 c 0
 296.5 565 254.5 531.5 214 532.5 c 0
 172.5 533.5 142.5 566.5 147.5 607.5 c 0
EndSplineSet
EndChar

StartChar: aring.alt
Encoding: 65542 -1 346
Width: 511
VWidth: 0
Flags: HMW
LayerCount: 2
Fore
SplineSet
149.5 136.5 m 0
 144 100.5 170.5 82.5 209.5 81.5 c 0
 274.5 79.5 323 119 339 184 c 1
 346 129 l 1
 326.5 44.5 254 -9.5 160 -9.5 c 0
 70 -9.5 6.5 42.5 18.5 127.5 c 0
 33 225.5 128 280.5 234 280.5 c 0
 298.5 280.5 351 256 379.5 228 c 1
 369.5 164.5 l 1
 335 191 301.5 205 254 204.5 c 0
 202.5 204 156.5 180 149.5 136.5 c 0
142.5 327.5 m 1
 109 419.5 l 1
 164.5 446 233 472.5 309.5 472 c 0
 412.5 471.5 499.5 422.5 487 325.5 c 1
 431.5 0 l 1
 306 0 l 1
 360 304 l 1
 362 344 336.5 368 290.5 369.5 c 0
 231.5 371.5 176.5 344.5 142.5 327.5 c 1
227 644.5 m 0
 235.5 707 295 754.5 358 754 c 0
 421 753.5 467.5 705 459 642.5 c 0
 450.5 580 389.5 532 326.5 532.5 c 0
 263.5 533 218.5 582 227 644.5 c 0
296.5 642.5 m 0
 293.5 618 308.5 596.5 331.5 595 c 0
 355.5 593.5 386 618 389 644 c 0
 392 668.5 376 691 353 692.5 c 0
 329 694 299.5 668.5 296.5 642.5 c 0
EndSplineSet
EndChar

StartChar: amacron.alt
Encoding: 65543 -1 347
Width: 511
VWidth: 0
Flags: HMW
LayerCount: 2
Fore
SplineSet
149.5 136.5 m 0
 144 100.5 170.5 82.5 209.5 81.5 c 0
 274.5 79.5 323 119 339 184 c 1
 346 129 l 1
 326.5 44.5 254 -9.5 160 -9.5 c 0
 70 -9.5 6.5 42.5 18.5 127.5 c 0
 33 225.5 128 280.5 234 280.5 c 0
 298.5 280.5 351 256 379.5 228 c 1
 369.5 164.5 l 1
 335 191 301.5 205 254 204.5 c 0
 202.5 204 156.5 180 149.5 136.5 c 0
142.5 327.5 m 1
 109 419.5 l 1
 164.5 446 233 472.5 309.5 472 c 0
 412.5 471.5 499.5 422.5 487 325.5 c 1
 431.5 0 l 1
 306 0 l 1
 360 304 l 1
 362 344 336.5 368 290.5 369.5 c 0
 231.5 371.5 176.5 344.5 142.5 327.5 c 1
147.5 543.5 m 1
 167.5 658.5 l 1
 525 658.5 l 1
 505 543 l 1
 147.5 543.5 l 1
EndSplineSet
EndChar

StartChar: abreve.alt
Encoding: 65544 -1 348
Width: 511
VWidth: 0
Flags: HMW
LayerCount: 2
Fore
SplineSet
149.5 136.5 m 0
 144 100.5 170.5 82.5 209.5 81.5 c 0
 274.5 79.5 323 119 339 184 c 1
 346 129 l 1
 326.5 44.5 254 -9.5 160 -9.5 c 0
 70 -9.5 6.5 42.5 18.5 127.5 c 0
 33 225.5 128 280.5 234 280.5 c 0
 298.5 280.5 351 256 379.5 228 c 1
 369.5 164.5 l 1
 335 191 301.5 205 254 204.5 c 0
 202.5 204 156.5 180 149.5 136.5 c 0
142.5 327.5 m 1
 109 419.5 l 1
 164.5 446 233 472.5 309.5 472 c 0
 412.5 471.5 499.5 422.5 487 325.5 c 1
 431.5 0 l 1
 306 0 l 1
 360 304 l 1
 362 344 336.5 368 290.5 369.5 c 0
 231.5 371.5 176.5 344.5 142.5 327.5 c 1
189 677 m 1
 277.5 676.5 l 1
 277 644.5 290.5 614.5 333.5 613.5 c 0
 378 612.5 404 645.5 415 676.5 c 1
 506.5 675.5 l 1
 488 597 426.5 532.5 328 532.5 c 0
 230 532.5 183.5 597 189 677 c 1
EndSplineSet
EndChar

StartChar: aogonek.alt
Encoding: 65545 -1 349
Width: 511
VWidth: 0
Flags: HMW
LayerCount: 2
Fore
SplineSet
149.5 136.5 m 0
 145 101 174 82.5 209.5 81.5 c 0
 274.5 79.5 323 119.5 339 184 c 1
 346 129 l 1
 326.5 44.5 254 -9.5 160 -9.5 c 0
 71.5 -9.5 7 43.5 19 131.5 c 0
 33.5 227 125.5 280.5 234 280.5 c 0
 298.5 280.5 351 256 379.5 228 c 1
 369.5 164.5 l 1
 335 191 301.5 205 254 204.5 c 0
 202.5 204 156 180.5 149.5 136.5 c 0
142.5 327.5 m 1
 109 419.5 l 1
 164.5 446 233 472.5 309.5 472 c 0
 412.5 471.5 499.5 422.5 487 325.5 c 1
 431.5 0 l 1
 306 0 l 1
 360 304 l 1
 362 344 336.5 368 290.5 369.5 c 0
 231.5 371.5 176.5 344.5 142.5 327.5 c 1
393 -116.5 m 1
 416 -181.5 l 1
 393 -201.5 362 -219.5 317.5 -219.5 c 0
 252.5 -219.5 207 -181.5 215.5 -119.5 c 0
 226 -50.5 304 -8.5 370.5 24.5 c 1
 410 0 l 1
 365.5 -25 318.5 -56 311.5 -96 c 0
 309 -118.5 317 -134 340 -136 c 0
 360 -137.5 378.5 -127 393 -116.5 c 1
EndSplineSet
EndChar

StartChar: dagger
Encoding: 8224 8224 350
Width: 596
VWidth: 0
Flags: HMW
LayerCount: 2
Fore
SplineSet
152.5 540 m 1
 577 540 l 1
 558.5 429.5 l 1
 134.5 429.5 l 1
 152.5 540 l 1
327 700 m 1
 451 700 l 1
 319 -150 l 1
 197 -149.5 l 1
 327 700 l 1
EndSplineSet
EndChar

StartChar: daggerdbl
Encoding: 8225 8225 351
Width: 596
VWidth: 0
Flags: HMW
LayerCount: 2
Fore
SplineSet
92 146.5 m 1
 516.5 146.5 l 1
 498.5 36 l 1
 74 36 l 1
 92 146.5 l 1
152.5 540 m 1
 577 540 l 1
 558.5 429.5 l 1
 134.5 429.5 l 1
 152.5 540 l 1
327 700 m 1
 451 700 l 1
 319 -150 l 1
 197 -149.5 l 1
 327 700 l 1
EndSplineSet
EndChar

StartChar: ellipsis
Encoding: 8230 8230 352
Width: 890
VWidth: 0
Flags: HMW
LayerCount: 2
Fore
SplineSet
55 61 m 0
 60.5 103.5 103 142.5 148 141.5 c 0
 194 140.5 224 102 218.5 59 c 0
 213 16.5 170.5 -22.5 125.5 -21.5 c 0
 79.5 -20.5 49.5 18 55 61 c 0
346 61 m 0
 351.5 103.5 394 142.5 439 141.5 c 0
 485 140.5 515 102 509.5 59 c 0
 504 16.5 461.5 -22.5 416.5 -21.5 c 0
 370.5 -20.5 340.5 18 346 61 c 0
637 61 m 0
 642.5 103.5 685 142.5 730 141.5 c 0
 776 140.5 806 102 800.5 59 c 0
 795 16.5 752.5 -22.5 707.5 -21.5 c 0
 661.5 -20.5 631.5 18 637 61 c 0
EndSplineSet
EndChar

StartChar: uniFF10
Encoding: 65296 65296 353
Width: 597
VWidth: 0
Flags: HMW
LayerCount: 2
Fore
SplineSet
194.5 350 m 0
 183 248 188 117 287 115 c 0
 386.5 113 451.5 235 467.5 350 c 0
 479 452 474 583 375 585 c 0
 275.5 587 210.5 465 194.5 350 c 0
56 350 m 0
 83 544 208 712.5 388.5 712 c 0
 574 711.5 629 532 606 350 c 0
 579 155.5 457 -12.5 273.5 -12 c 0
 91.5 -11.5 33 168.5 56 350 c 0
EndSplineSet
EndChar

StartChar: uniFF11
Encoding: 65297 65297 354
Width: 597
VWidth: 0
Flags: HMW
LayerCount: 2
Fore
SplineSet
166 515 m 1
 190 647 l 1
 504 713 l 1
 381 0 l 1
 242 0 l 1
 337.5 557.5 l 1
 166 515 l 1
EndSplineSet
EndChar

StartChar: uniFF12
Encoding: 65298 65298 355
Width: 597
VWidth: 0
Flags: HMW
LayerCount: 2
Fore
SplineSet
-13.5 0 m 1
 349.5 331.5 l 2
 402 380.5 452 427 463 488 c 0
 471 536.5 445.5 584 383.5 585.5 c 0
 307.5 587.5 256 520.5 240.5 447 c 1
 99.5 447.5 l 1
 126 592.5 235 714 401 713 c 0
 547.5 712.5 628 604 609.5 490.5 c 0
 597.5 414.5 546.5 353 485 302.5 c 2
 281.5 134.5 l 1
 562.5 133.5 l 1
 539.5 0 l 1
 -13.5 0 l 1
EndSplineSet
EndChar

StartChar: uniFF13
Encoding: 65299 65299 356
Width: 597
VWidth: 0
Flags: HMW
LayerCount: 2
Fore
SplineSet
295 341 m 1
 305.5 410.5 l 1
 376.5 415.5 443 451 453.5 512 c 0
 460 556 438 592 386.5 593 c 0
 330 594 288 552 274.5 504 c 1
 141 504.5 l 1
 165 623 263.5 712 398.5 712 c 0
 526 712 614 629.5 596.5 519.5 c 0
 575.5 394 436 344 295 341 c 1
277 -14 m 0
 130 -13.5 48 88 60 211.5 c 1
 200.5 211 l 1
 196.5 149.5 228 107 293 106 c 0
 355.5 105 409 144 419.5 204.5 c 0
 434 276.5 370 308 289.5 311.5 c 1
 301 388 l 1
 445 385 581.5 334 559 189 c 0
 539.5 64.5 420 -14.5 277 -14 c 0
EndSplineSet
EndChar

StartChar: uniFF14
Encoding: 65300 65300 357
Width: 597
VWidth: 0
Flags: HMW
LayerCount: 2
Fore
SplineSet
4 129.5 m 1
 138.5 237 l 1
 414 237.5 l 1
 433.5 253 l 1
 594 253 l 1
 572 129 l 1
 4 129.5 l 1
152 165 m 1
 2 127 l 1
 471 699 l 1
 571.5 699.5 l 1
 452 0 l 1
 303.5 0 l 1
 332 164.5 l 1
 346.5 175.5 l 1
 395.5 462.5 l 1
 152 165 l 1
EndSplineSet
EndChar

StartChar: uniFF15
Encoding: 65301 65301 358
Width: 597
VWidth: 0
Flags: HMW
LayerCount: 2
Fore
SplineSet
569.5 225.5 m 0
 547.5 73.5 408.5 -11.5 268.5 -12 c 0
 155 -12 76 33.5 18.5 95.5 c 1
 101 208 l 1
 141 159 196.5 122.5 257.5 122 c 0
 339 121.5 405 165.5 417.5 239.5 c 0
 428.5 310 374 352.5 304.5 354 c 0
 240 355.5 174.5 338 106.5 306 c 1
 211.5 384 l 1
 265 431 328.5 457 398 456.5 c 0
 517.5 455.5 586 350 569.5 225.5 c 0
352.5 573 m 1
 264.5 389 l 1
 100 301 l 1
 265 699.5 l 1
 640.5 700 l 1
 619 573.5 l 1
 352.5 573 l 1
EndSplineSet
EndChar

StartChar: uniFF16
Encoding: 65302 65302 359
Width: 597
VWidth: 0
Flags: HMW
LayerCount: 2
Fore
SplineSet
188 241 m 0
 177 172.5 214 112 286.5 111.5 c 0
 360.5 111 424.5 169 437 241.5 c 0
 448 309.5 411.5 372.5 338.5 373 c 0
 264 374 200.5 313.5 188 241 c 0
397.5 697.5 m 1
 583 697.5 l 1
 319.5 435.5 l 1
 289.5 427.5 l 1
 324 456 357.5 468.5 403.5 468 c 0
 518.5 467 592.5 361 577 240.5 c 0
 555.5 86.5 423.5 -14 273 -14 c 0
 125 -14 27 91 48 241 c 0
 59 311.5 99 371 145.5 422 c 2
 397.5 697.5 l 1
EndSplineSet
EndChar

StartChar: uniFF17
Encoding: 65303 65303 360
Width: 597
VWidth: 0
Flags: HMW
LayerCount: 2
Fore
SplineSet
110 564 m 1
 134 700 l 1
 670.5 699.5 l 1
 222.5 0 l 1
 65.5 0 l 1
 433.5 563.5 l 1
 110 564 l 1
EndSplineSet
EndChar

StartChar: uniFF18
Encoding: 65304 65304 361
Width: 597
VWidth: 0
Flags: HMW
LayerCount: 2
Fore
SplineSet
152.5 531.5 m 0
 169.5 643 280.5 714.5 398 714 c 0
 511.5 713.5 605.5 641.5 589.5 530.5 c 0
 573 413 457.5 346 343.5 346 c 0
 233 346 136 415 152.5 531.5 c 0
284 516.5 m 0
 277.5 471 302.5 430 350 428.5 c 0
 398.5 427 445 469 453 517 c 0
 460 563 436 603.5 386.5 605 c 0
 336 606.5 292 565 284 516.5 c 0
70 190.5 m 0
 88.5 323.5 222.5 394.5 343 394 c 0
 458.5 394 574 322 555.5 189.5 c 0
 537 67 411 -14.5 282 -14 c 0
 157.5 -13.5 52 69.5 70 190.5 c 0
214 210.5 m 0
 205 152.5 238 107 295 106 c 0
 353 105 410 150.5 419.5 211.5 c 0
 427.5 263.5 393 313.5 337.5 314.5 c 0
 280.5 315.5 224 265 214 210.5 c 0
EndSplineSet
EndChar

StartChar: uniFF19
Encoding: 65305 65305 362
Width: 597
VWidth: 0
Flags: HMW
LayerCount: 2
Fore
SplineSet
474 459 m 0
 485 527.5 448 588 375.5 588.5 c 0
 301.5 589 237.5 531 225 458.5 c 0
 214 390.5 250.5 327.5 323.5 327 c 0
 398 326 461.5 386.5 474 459 c 0
264.5 2.5 m 1
 78.5 2.5 l 1
 342.5 264.5 l 1
 373 272.5 l 1
 338.5 244 305 231.5 259 232 c 0
 144 233 69 339 84.5 459.5 c 0
 106 613.5 238 714 388.5 714 c 0
 536.5 714 635 609 614 459 c 0
 603 388.5 563.5 329 517 278 c 2
 264.5 2.5 l 1
EndSplineSet
EndChar

StartChar: caron
Encoding: 711 711 363
Width: 465
VWidth: 0
Flags: HMW
LayerCount: 2
Fore
SplineSet
317 671 m 1
 426 758 l 1
 506 693.5 l 1
 304 556 l 1
 143 698 l 1
 238.5 758.5 l 1
 317 671 l 1
EndSplineSet
EndChar

StartChar: napostrophe
Encoding: 329 329 364
Width: 693
VWidth: 0
Flags: HMW
LayerCount: 2
Fore
SplineSet
393 460 m 1
 313.5 0 l 1
 183 0 l 1
 262.5 460 l 1
 393 460 l 1
521.5 280 m 1
 527 329 519.5 369.5 467 372 c 0
 412 374.5 374 329.5 361.5 281 c 1
 328.5 276.5 l 1
 347.5 377.5 414 469.5 524 470 c 0
 631 470.5 668.5 395.5 656 294.5 c 1
 605.5 0 l 1
 472.5 0 l 1
 521.5 280 l 1
203.5 699.5 m 1
 344.5 699.5 l 1
 202 452.5 l 1
 107.5 452.5 l 1
 203.5 699.5 l 1
EndSplineSet
EndChar

StartChar: IJ
Encoding: 306 306 365
Width: 568
VWidth: 0
Flags: HMW
LayerCount: 2
Fore
SplineSet
161 -75 m 1
 178.5 -93.5 203.5 -110 233 -109 c 0
 270.5 -107.5 304.5 -75.5 313 -25.5 c 1
 438 700 l 1
 589.5 700 l 1
 461 -56 l 1
 441 -173.5 346 -233.5 230 -233 c 0
 165.5 -232.5 108.5 -206.5 69.5 -177.5 c 1
 161 -75 l 1
164.5 699.5 m 1
 310.5 700 l 1
 190 0 l 1
 46 0 l 1
 164.5 699.5 l 1
EndSplineSet
EndChar

StartChar: ij
Encoding: 307 307 366
Width: 518
VWidth: 0
Flags: HMW
LayerCount: 2
Fore
SplineSet
392 639 m 0
 397 679 439 712.5 479.5 711.5 c 0
 521 710.5 551 677.5 546 636.5 c 0
 541 596.5 499.5 563 459 564 c 0
 417.5 565 387 598 392 639 c 0
188 -88 m 1
 199.5 -97.5 215.5 -113.5 229.5 -114 c 0
 262.5 -116 284.5 -78 290 -38.5 c 1
 376.5 460 l 1
 502 460 l 1
 412 -69.5 l 2
 395.5 -165.5 331 -234.5 228 -233 c 0
 175.5 -232.5 143.5 -209 119 -184.5 c 1
 188 -88 l 1
136 639 m 0
 141 679 183 712.5 223.5 711.5 c 0
 265 710.5 296 677.5 291 636.5 c 0
 286 596.5 244 563 203.5 564 c 0
 162 565 131 598 136 639 c 0
119.5 459.5 m 1
 247 460 l 1
 167 0 l 1
 41.5 0 l 1
 119.5 459.5 l 1
EndSplineSet
EndChar

StartChar: uni0237
Encoding: 567 567 367
Width: 257
VWidth: 0
Flags: HMW
LayerCount: 2
Fore
SplineSet
-73 -88 m 1
 -61.5 -103.5 -49 -114 -32 -114 c 0
 1.5 -114 23 -79.5 29.5 -38.5 c 1
 115 460 l 1
 241 460 l 1
 151 -69.5 l 2
 134.5 -165.5 70.5 -234.5 -32.5 -233 c 0
 -85 -232.5 -117 -209 -141.5 -184.5 c 1
 -73 -88 l 1
EndSplineSet
EndChar

StartChar: Sacute
Encoding: 346 346 368
Width: 585
VWidth: 0
Flags: HMW
LayerCount: 2
Fore
SplineSet
149 244 m 1
 179 169 215.5 110 293.5 110 c 0
 350 109.5 393.5 140 403 190.5 c 0
 415.5 257.5 346 284.5 282 312 c 0
 205 346 119 410.5 133.5 524.5 c 0
 151.5 640.5 263 714.5 390 714 c 0
 510 713.5 583 644.5 607 560.5 c 1
 490 496 l 1
 468 546 440.5 587.5 382 588 c 0
 332.5 588.5 287 560.5 279 517.5 c 0
 267 460 350.5 433.5 413 408 c 0
 502 371.5 568 303.5 553.5 194 c 0
 534 60.5 421 -19.5 275.5 -19 c 0
 154.5 -18.5 67 60.5 36 173 c 1
 149 244 l 1
606 921.5 m 1
 408 775 l 1
 338.5 815.5 l 1
 509.5 972.5 l 1
 606 921.5 l 1
EndSplineSet
EndChar

StartChar: sacute
Encoding: 347 347 369
Width: 427
VWidth: 0
Flags: HMW
LayerCount: 2
Fore
SplineSet
82 170.5 m 1
 118 120.5 159 88.5 206 88.5 c 0
 235.5 88 264.5 101 269 128 c 0
 275.5 166.5 210.5 182.5 171 201.5 c 0
 113.5 229.5 64 269.5 73.5 340.5 c 0
 86 425 174 469 261 469.5 c 0
 333.5 470 396.5 438.5 436 394 c 1
 369 314.5 l 1
 340 346 298.5 369 259 369 c 0
 231 369 200 358.5 196.5 334 c 0
 191 301 256.5 284.5 296 268 c 0
 356.5 241.5 408 200 399.5 129.5 c 0
 387.5 32 307.5 -16.5 208 -16.5 c 0
 118.5 -16.5 48 27 7.5 89.5 c 1
 82 170.5 l 1
476.5 677.5 m 1
 279 531 l 1
 209.5 571.5 l 1
 380 728.5 l 1
 476.5 677.5 l 1
EndSplineSet
EndChar

StartChar: Scircumflex
Encoding: 348 348 370
Width: 585
VWidth: 0
Flags: HMW
LayerCount: 2
Fore
SplineSet
149 244 m 1
 179 169 215.5 110 293.5 110 c 0
 350 109.5 393.5 140 403 190.5 c 0
 415.5 257.5 346 284.5 282 312 c 0
 205 346 119 410.5 133.5 524.5 c 0
 151.5 640.5 263 714.5 390 714 c 0
 510 713.5 583 644.5 607 560.5 c 1
 490 496 l 1
 468 546 440.5 587.5 382 588 c 0
 332.5 588.5 287 560.5 279 517.5 c 0
 267 460 350.5 433.5 413 408 c 0
 502 371.5 568 303.5 553.5 194 c 0
 534 60.5 421 -19.5 275.5 -19 c 0
 154.5 -18.5 67 60.5 36 173 c 1
 149 244 l 1
423 862 m 1
 314 774.5 l 1
 234 839 l 1
 436 976.5 l 1
 597.5 834.5 l 1
 502 774 l 1
 423 862 l 1
EndSplineSet
EndChar

StartChar: scircumflex
Encoding: 349 349 371
Width: 427
VWidth: 0
Flags: HMW
LayerCount: 2
Fore
SplineSet
82 170.5 m 1
 118 120.5 159 88.5 206 88.5 c 0
 235.5 88 264.5 101 269 128 c 0
 275.5 166.5 210.5 182.5 171 201.5 c 0
 113.5 229.5 64 269.5 73.5 340.5 c 0
 86 425 174 469 261 469.5 c 0
 333.5 470 396.5 438.5 436 394 c 1
 369 314.5 l 1
 340 346 298.5 369 259 369 c 0
 231 369 200 358.5 196.5 334 c 0
 191 301 256.5 284.5 296 268 c 0
 356.5 241.5 408 200 399.5 129.5 c 0
 387.5 32 307.5 -16.5 208 -16.5 c 0
 118.5 -16.5 48 27 7.5 89.5 c 1
 82 170.5 l 1
302.5 618 m 1
 193.5 530.5 l 1
 113.5 595 l 1
 315.5 732.5 l 1
 476.5 590.5 l 1
 381 530 l 1
 302.5 618 l 1
EndSplineSet
EndChar

StartChar: uni1E9E
Encoding: 7838 7838 372
Width: 816
VWidth: 0
Flags: HMW
LayerCount: 2
Fore
SplineSet
488.5 -14 m 0
 335.5 -13.5 268 94.5 280.5 211.5 c 1
 408 211 l 1
 404 152.5 433.5 107.5 500.5 106 c 0
 566 105 616 144.5 626 204.5 c 0
 640 280.5 573 308 497 311.5 c 1
 507 379.5 l 1
 647.5 377 787 327 765 184.5 c 0
 746.5 63 624 -14.5 488.5 -14 c 0
503.5 345.5 m 1
 513 411 l 1
 584 415.5 643.5 446.5 654.5 508 c 0
 666 568 601 594.5 525.5 594.5 c 0
 389.5 594 277.5 504.5 252.5 350.5 c 1
 192.5 0 l 1
 49 0 l 1
 112 368 l 2
 147 577 315.5 709.5 531.5 710 c 0
 679.5 710 825 653 804 524.5 c 0
 784 401.5 648 348.5 503.5 345.5 c 1
EndSplineSet
EndChar

StartChar: Zacute
Encoding: 377 377 373
Width: 580
VWidth: 0
Flags: HW
LayerCount: 2
Fore
SplineSet
117 568.5 m 1
 140.5 700 l 1
 661.5 699.5 l 1
 233 127.5 l 1
 532 127 l 1
 509.5 0 l 1
 -20 0 l 1
 405 568 l 1
 117 568.5 l 1
603 921.5 m 1
 405 775 l 1
 335 815.5 l 1
 506 972.5 l 1
 603 921.5 l 1
EndSplineSet
EndChar

StartChar: zacute
Encoding: 378 378 374
Width: 489
VWidth: 0
Flags: HW
LayerCount: 2
Fore
SplineSet
288 339.5 m 1
 81.5 340.5 l 1
 103 460 l 1
 530.5 459.5 l 1
 234 120.5 l 1
 442.5 119.5 l 1
 421 0 l 1
 -16 0 l 1
 288 339.5 l 1
519.5 688.5 m 1
 321.5 542.5 l 1
 252 582.5 l 1
 423 739.5 l 1
 519.5 688.5 l 1
EndSplineSet
EndChar

StartChar: Zdotaccent
Encoding: 379 379 375
Width: 580
VWidth: 0
Flags: HW
LayerCount: 2
Fore
SplineSet
117 568.5 m 1
 140.5 700 l 1
 661.5 699.5 l 1
 233 127.5 l 1
 532 127 l 1
 509.5 0 l 1
 -20 0 l 1
 405 568 l 1
 117 568.5 l 1
348 850 m 0
 353 890 394.5 923.5 435 922.5 c 0
 476.5 921.5 507 888.5 502 847.5 c 0
 497 807.5 455.5 774 415 775 c 0
 373.5 776 343 809 348 850 c 0
EndSplineSet
EndChar

StartChar: zdotaccent
Encoding: 380 380 376
Width: 489
VWidth: 0
Flags: HW
LayerCount: 2
Fore
SplineSet
288 339.5 m 1
 81.5 340.5 l 1
 103 460 l 1
 530.5 459.5 l 1
 234 120.5 l 1
 442.5 119.5 l 1
 421 0 l 1
 -16 0 l 1
 288 339.5 l 1
265.5 622.5 m 0
 270.5 662.5 312 696 352.5 695 c 0
 394 694 425 661 420 620 c 0
 415 580 373 546.5 332.5 547.5 c 0
 291 548.5 260.5 581.5 265.5 622.5 c 0
EndSplineSet
EndChar

StartChar: Tcaron
Encoding: 356 356 377
Width: 517
VWidth: 0
Flags: HW
LayerCount: 2
Fore
SplineSet
73.5 569 m 1
 97 700 l 1
 606.5 700 l 1
 583.5 569 l 1
 400.5 569 l 1
 303 0 l 1
 160 0 l 1
 257 569 l 1
 73.5 569 l 1
380.75 889.5 m 1
 489.75 976.5 l 1
 569.75 912 l 1
 367.75 774.5 l 1
 206.75 916.5 l 1
 301.75 977 l 1
 380.75 889.5 l 1
EndSplineSet
EndChar

StartChar: tcaron
Encoding: 357 357 378
Width: 437
VWidth: 0
Flags: HW
LayerCount: 2
Fore
SplineSet
55.5 460 m 1
 335.5 460 l 1
 315.5 349.5 l 1
 35.5 349.5 l 1
 55.5 460 l 1
159 619.5 m 1
 285.5 620 l 1
 178.5 0 l 1
 54 0 l 1
 159 619.5 l 1
448.5 791.5 m 1
 576 758.5 l 1
 416 511.5 l 1
 320 535 l 1
 448.5 791.5 l 1
EndSplineSet
EndChar

StartChar: Uring
Encoding: 366 366 379
Width: 658
VWidth: 0
Flags: HW
LayerCount: 2
Fore
SplineSet
160 700 m 1
 303 700 l 1
 222.5 238.5 l 2
 213.5 169.5 238 109.5 317 108.5 c 0
 397 107.5 449 166.5 462.5 239 c 1
 542 700 l 1
 685 700 l 1
 605 230 l 2
 579.5 76.5 458.5 -23.5 303 -23.5 c 0
 151.5 -23.5 59.5 78.5 79.5 230 c 1
 160 700 l 1
337.75 886.5 m 0
 346.25 949 405.75 996.5 468.75 996 c 0
 531.75 995.5 578.25 947 569.75 884.5 c 0
 561.25 822 500.75 774.5 437.75 775 c 0
 374.75 775.5 329.25 824 337.75 886.5 c 0
407.25 884.5 m 0
 404.25 860 419.25 838.5 442.25 837 c 0
 466.25 835.5 496.75 860 499.75 886 c 0
 502.75 910.5 486.75 932.5 463.75 934 c 0
 439.75 935.5 410.25 910.5 407.25 884.5 c 0
EndSplineSet
EndChar

StartChar: uring
Encoding: 367 367 380
Width: 543
VWidth: 0
Flags: HW
LayerCount: 2
Fore
SplineSet
326 0 m 1
 405.5 460 l 1
 535 460 l 1
 456 0 l 1
 326 0 l 1
197 180 m 1
 191.5 131.5 199 90 251.5 87.5 c 0
 306 85 345 130 357.5 179 c 1
 385 183.5 l 1
 366.5 82.5 304 -9.5 194.5 -10 c 0
 87.5 -10.5 50 65 62.5 165.5 c 1
 113 460 l 1
 246 459.5 l 1
 197 180 l 1
238.25 642.5 m 0
 246.75 705 306.75 752.5 369.75 752 c 0
 432.75 751.5 479.25 703 470.75 640.5 c 0
 462.25 578 401.75 530 338.75 530.5 c 0
 275.75 531 229.75 580 238.25 642.5 c 0
308.25 640.5 m 0
 305.25 616 320.25 594.5 343.25 593 c 0
 367.25 591.5 397.75 616 400.75 642 c 0
 403.75 666.5 387.75 688.5 364.75 690 c 0
 340.75 691.5 311.25 666.5 308.25 640.5 c 0
EndSplineSet
EndChar
